<svg width="30" height="30" viewBox="0 0 30 30" fill="none" xmlns="http://www.w3.org/2000/svg">
<rect width="30" height="30" rx="8.73727" transform="matrix(-1 0 0 1 30 0)" fill="url(#paint0_linear_2980_3938)"/>
<path d="M11.2602 15.169C11.2602 13.1282 12.9137 11.4734 14.9539 11.4734C16.9941 11.4734 18.6484 13.1282 18.6484 15.169C18.6484 17.2098 16.9941 18.8646 14.9539 18.8646C12.9137 18.8646 11.2602 17.2098 11.2602 15.169ZM9.26301 15.169C9.26301 18.313 11.8108 20.8615 14.9539 20.8615C18.097 20.8615 20.6448 18.313 20.6448 15.169C20.6448 12.025 18.097 9.47648 14.9539 9.47648C11.8108 9.47648 9.26301 12.025 9.26301 15.169ZM19.5401 9.25077C19.54 9.51388 19.6179 9.77111 19.764 9.98994C19.91 10.2088 20.1177 10.3794 20.3606 10.4801C20.6036 10.5809 20.871 10.6074 21.129 10.5562C21.387 10.5049 21.624 10.3783 21.8101 10.1924C21.9962 10.0064 22.1229 9.76939 22.1743 9.51135C22.2258 9.25332 22.1995 8.98582 22.099 8.7427C21.9984 8.49957 21.828 8.29174 21.6094 8.14547C21.3907 7.99921 21.1336 7.92108 20.8706 7.92098H20.8701C20.5175 7.92114 20.1794 8.06128 19.93 8.31061C19.6807 8.55995 19.5404 8.89809 19.5401 9.25077V9.25077ZM10.4764 24.1927C9.39591 24.1435 8.80861 23.9635 8.41832 23.8114C7.90089 23.6099 7.5317 23.3699 7.14353 22.9821C6.75537 22.5944 6.51509 22.2255 6.31454 21.7079C6.16239 21.3177 5.98241 20.73 5.93329 19.6492C5.87956 18.4806 5.86883 18.1296 5.86883 15.1691C5.86883 12.2086 5.88045 11.8585 5.93329 10.689C5.9825 9.60818 6.16381 9.02169 6.31454 8.63031C6.51598 8.11272 6.7559 7.74343 7.14353 7.35515C7.53116 6.96687 7.9 6.72653 8.41832 6.52592C8.80843 6.37373 9.39591 6.19369 10.4764 6.14456C11.6447 6.09081 11.9956 6.08008 14.9539 6.08008C17.9122 6.08008 18.2635 6.0917 19.4327 6.14456C20.5132 6.19378 21.0995 6.37515 21.4908 6.52592C22.0082 6.72653 22.3774 6.96741 22.7656 7.35515C23.1537 7.74289 23.3931 8.11272 23.5946 8.63031C23.7467 9.02053 23.9267 9.60818 23.9758 10.689C24.0295 11.8585 24.0403 12.2086 24.0403 15.1691C24.0403 18.1296 24.0295 18.4796 23.9758 19.6492C23.9266 20.73 23.7457 21.3175 23.5946 21.7079C23.3931 22.2255 23.1532 22.5948 22.7656 22.9821C22.3779 23.3695 22.0082 23.6099 21.4908 23.8114C21.1007 23.9636 20.5132 24.1436 19.4327 24.1927C18.2645 24.2465 17.9135 24.2572 14.9539 24.2572C11.9943 24.2572 11.6443 24.2465 10.4764 24.1927V24.1927ZM10.3847 4.15014C9.20484 4.20389 8.39864 4.39102 7.69457 4.66507C6.96541 4.94807 6.34814 5.32774 5.73132 5.94377C5.11449 6.5598 4.73591 7.17822 4.45298 7.90759C4.17902 8.6123 3.99194 9.4183 3.93821 10.5985C3.8836 11.7805 3.87109 12.1584 3.87109 15.169C3.87109 18.1796 3.8836 18.5575 3.93821 19.7395C3.99194 20.9198 4.17902 21.7257 4.45298 22.4304C4.73591 23.1593 5.11458 23.7785 5.73132 24.3942C6.34805 25.01 6.96541 25.3891 7.69457 25.6729C8.39997 25.947 9.20484 26.1341 10.3847 26.1879C11.567 26.2416 11.9442 26.255 14.9539 26.255C17.9636 26.255 18.3414 26.2425 19.5231 26.1879C20.703 26.1341 21.5087 25.947 22.2132 25.6729C22.9419 25.3891 23.5596 25.0103 24.1765 24.3942C24.7933 23.7782 25.1711 23.1593 25.4548 22.4304C25.7288 21.7257 25.9167 20.9197 25.9696 19.7395C26.0233 18.5566 26.0358 18.1796 26.0358 15.169C26.0358 12.1584 26.0233 11.7805 25.9696 10.5985C25.9158 9.41821 25.7288 8.61186 25.4548 7.90759C25.1711 7.17866 24.7923 6.56077 24.1765 5.94377C23.5606 5.32677 22.9419 4.94807 22.2141 4.66507C21.5087 4.39102 20.7029 4.203 19.524 4.15014C18.3423 4.0964 17.9645 4.08301 14.9548 4.08301C11.945 4.08301 11.567 4.09551 10.3847 4.15014Z" fill="white"/>
<defs>
<linearGradient id="paint0_linear_2980_3938" x1="29.4234" y1="30" x2="-0.576599" y2="-8.07516e-07" gradientUnits="userSpaceOnUse">
<stop stop-color="#FBE18A"/>
<stop offset="0.21" stop-color="#FCBB45"/>
<stop offset="0.38" stop-color="#F75274"/>
<stop offset="0.52" stop-color="#D53692"/>
<stop offset="0.74" stop-color="#8F39CE"/>
<stop offset="1" stop-color="#5B4FE9"/>
</linearGradient>
</defs>
</svg>
