<svg width="30" height="21" viewBox="0 0 30 21" fill="none" xmlns="http://www.w3.org/2000/svg">
<path d="M29.3748 3.27886C29.0312 1.99023 28.0146 0.973637 26.7213 0.625227C24.3828 2.27581e-07 15 0 15 0C15 0 5.62202 2.27581e-07 3.27871 0.625227C1.99014 0.968864 0.973592 1.98545 0.625199 3.27886C0 5.6175 0 10.5 0 10.5C0 10.5 0 15.3825 0.625199 17.7211C0.96882 19.0098 1.98536 20.0264 3.27871 20.3748C5.62202 21 15 21 15 21C15 21 24.3828 21 26.7213 20.3748C28.0099 20.0311 29.0264 19.0145 29.3748 17.7211C30 15.3825 30 10.5 30 10.5C30 10.5 30 5.6175 29.3748 3.27886Z" fill="#FF3000"/>
<path d="M12.0029 15.0007L19.7964 10.5L12.0029 5.99932V15.0007Z" fill="white"/>
</svg>
