<svg width="30" height="30" viewBox="0 0 30 30" fill="none" xmlns="http://www.w3.org/2000/svg">
<path d="M17.077 0.141625H17.0499C16.8241 0.10549 16.5984 0.0874149 16.3726 0.0602949L16.1379 0.04222L15.6412 0.015115H14.2866L13.9705 0.0331899L13.6905 0.0512648L13.3744 0.0874149L13.0945 0.11452L12.7875 0.1597L12.5166 0.204895L12.2095 0.25912L11.9386 0.31333L11.6316 0.3766L11.3697 0.439855L11.0716 0.521185L10.8098 0.593485L10.5117 0.68386L10.2589 0.76519L9.9699 0.864595L9.71704 0.95497L9.42807 1.07245L9.18423 1.17186L8.89525 1.29837L8.66046 1.39779L8.37147 1.54237L8.1457 1.65082L7.86574 1.80445L7.64901 1.92193L7.36003 2.09364L7.16136 2.21112L6.85431 2.4009L6.22216 2.83467C6.22216 2.83467 3.48586 0.756145 2.39314 0.18682C2.14356 0.05596 1.86442 -0.00810509 1.5828 0.000819912C1.30117 0.00974491 1.02664 0.0913749 0.785846 0.237775C0.545036 0.384175 0.346136 0.59038 0.208451 0.83638C0.0707662 1.08238 -0.00103865 1.35982 1.13522e-05 1.64178V15.0075C-0.00117365 18.8181 1.44673 22.4862 4.04977 25.2673C6.65281 28.0483 10.2159 29.734 14.0157 29.9818H14.1511L14.6026 30H15.7134C15.8488 30 15.9753 29.982 16.1107 29.9728L16.4811 29.9458L16.8693 29.9005L17.2306 29.8554L17.6098 29.7921L17.971 29.7198C18.0975 29.7018 18.2239 29.6656 18.3504 29.6385L18.7026 29.5572L19.0728 29.4577L19.416 29.3583L19.7772 29.2408L20.1204 29.1234L20.4726 28.9878L20.7976 28.8523L21.1408 28.7077L21.466 28.554L21.8001 28.3914L22.1161 28.2288L22.4413 28.0389L22.7484 27.8673L23.0644 27.6684L23.3625 27.4786L23.6604 27.2617L23.9494 27.0538C24.0496 26.9836 24.1461 26.9082 24.2383 26.8279L24.5184 26.611L24.7983 26.3671L25.0692 26.1412L25.3401 25.879L25.584 25.6441L25.8459 25.3731L26.0897 25.12L26.3335 24.8398L26.5593 24.5778L26.794 24.2796L27.0108 24.0084L27.2275 23.7012L27.4263 23.421C27.4985 23.3125 27.5617 23.2041 27.6339 23.1048L27.8237 22.8064C27.8868 22.698 27.9501 22.5897 28.0042 22.4812C28.0584 22.3728 28.1307 22.2823 28.1848 22.1829L28.3565 21.8395L28.5189 21.5323C28.5732 21.4147 28.6273 21.2973 28.6725 21.1798C28.7176 21.0624 28.7718 20.9719 28.8169 20.8635C28.8621 20.755 28.9163 20.6196 28.9614 20.502L29.0878 20.1858C29.133 20.0592 29.1691 19.9327 29.2143 19.8061L29.3228 19.4809C29.3679 19.3543 29.3949 19.2187 29.44 19.0923C29.4852 18.9658 29.5033 18.8754 29.5303 18.7669C29.5575 18.6585 29.5937 18.4959 29.6207 18.3693C29.6478 18.2428 29.6749 18.1524 29.6929 18.0439L29.7743 17.6193L29.8284 17.3029C29.8555 17.1493 29.8645 17.0047 29.8825 16.8511C29.9007 16.6975 29.9097 16.6522 29.9277 16.5438C29.9458 16.4353 29.9549 16.2094 29.9639 16.0378C29.9743 15.9538 29.9804 15.8694 29.982 15.7848C29.991 15.5407 30 15.2967 30 15.0528V15.0075C30 11.3866 28.692 7.88767 26.3172 5.15575C23.9422 2.42382 20.6607 0.64303 17.077 0.141625ZM23.7598 13.0917L15.0451 21.8034C14.4964 22.3519 13.7527 22.66 12.9771 22.66C12.2016 22.66 11.4577 22.3519 10.9091 21.8034L6.24022 17.1403C5.73676 16.5813 5.46697 15.8502 5.48649 15.0978C5.506 14.3455 5.81337 13.6294 6.34513 13.0972C6.8769 12.5652 7.5925 12.2575 8.34429 12.238C9.09607 12.2185 9.82666 12.4885 10.3853 12.9922L12.9771 15.5949L19.6147 8.9437C20.1733 8.4399 20.904 8.16991 21.6556 8.18944C22.4074 8.20897 23.1231 8.51655 23.6548 9.04869C24.1866 9.58083 24.4939 10.2969 24.5135 11.0493C24.5331 11.8016 24.2632 12.5326 23.7598 13.0917Z" fill="#0ACA9B"/>
</svg>
