<svg width="30" height="30" viewBox="0 0 30 30" fill="none" xmlns="http://www.w3.org/2000/svg">
<path d="M29.1597 22.5152C29.1597 22.5898 29.1348 22.6893 29.1348 22.7639C28.538 26.469 25.8773 29.1545 22.222 29.8508C22.0728 29.8757 21.9484 29.9503 21.8241 30H7.40157C7.20264 29.9503 7.0037 29.8508 6.80477 29.8259C3.07481 29.1794 0.0908377 25.8473 0.0411048 22.1173C-0.0334945 17.5668 0.0162407 13.0162 0.0162407 8.46565C0.0162407 7.91858 0.0162407 7.34666 0.140573 6.82447C0.936298 2.99503 3.77107 0.458651 7.62537 0.0607877C7.94863 0.0359212 8.29676 0.0110518 8.64489 0.0110518C12.5987 -0.0138147 16.5524 0.0110518 20.5062 0.0110518C20.9538 0.0110518 21.3765 0.0110548 21.8241 0.0607877C21.9484 0.0607877 22.0479 0.0856572 22.1722 0.110524C25.7779 0.732185 28.5132 3.3183 29.0602 6.9488C29.1348 7.44613 29.1846 7.94345 29.2094 8.46565C29.2592 9.51004 29.2094 10.5793 29.2094 11.6237C29.2094 11.9221 29.2094 12.2454 29.2094 12.5437C29.2094 12.6929 29.0851 12.8421 28.9856 12.9665C27.4936 14.4087 26.0514 15.851 24.5097 17.2435C23.2166 18.4122 21.8987 19.6307 20.4564 20.6253C18.7158 21.8438 16.7016 22.1919 14.6128 21.6449C14.0409 21.4957 13.8171 21.6946 13.6928 22.1671C13.4938 22.9628 13.3198 23.7585 13.1457 24.604C13.0711 24.604 12.9716 24.6288 12.8722 24.604C11.0818 24.1812 9.39088 22.2168 9.29142 20.4015C9.26655 19.8296 9.06762 19.4566 8.66975 19.1085C7.6005 18.1138 7.12804 16.8954 7.35184 15.4283C7.50104 14.4087 7.9735 13.5384 8.64489 12.7676C10.8331 10.2312 13.6182 8.81378 16.9503 8.56512C18.7655 8.44079 20.4067 8.96298 21.5754 10.5047C22.0479 11.1264 22.023 11.574 21.476 12.1459C21.3019 12.32 21.1278 12.4692 20.9289 12.5935C19.0142 13.8119 16.9254 14.359 14.6874 14.1849C13.1457 14.0606 12.5738 13.3395 12.5987 11.7978C12.5987 11.6734 12.5738 11.574 12.5489 11.375C11.604 11.7232 11.0321 12.3697 10.6591 13.2151C10.0623 14.5331 10.4353 15.7018 11.4051 16.6467C9.58981 19.2826 10.1617 22.5898 12.5738 23.4104C12.8225 20.2772 15.0604 18.8598 17.5719 17.6911C18.3925 17.3181 19.1883 16.9202 20.0088 16.5472C22.7193 15.3537 24.2113 13.3395 24.4351 10.3804C24.6589 7.44612 23.6393 4.76055 20.8046 3.3929C18.7158 2.39824 16.5773 2.44797 14.4388 3.26857C7.77457 5.82981 3.27374 13.9611 4.14407 20.128C4.46733 22.4903 5.48685 24.4548 7.42643 25.897C11.3056 28.7567 16.6767 28.4831 20.5808 25.2256C22.5204 23.6342 24.0123 21.6449 25.5043 19.6307C26.3747 18.462 27.245 17.3181 28.1402 16.1742C28.4386 15.8012 28.8116 15.5029 29.2592 15.0801C29.2592 17.144 29.2592 19.009 29.2592 20.8989C29.1597 21.3962 29.2094 21.9681 29.1597 22.5152Z" fill="#E37600"/>
</svg>
