<svg width="30" height="30" viewBox="0 0 30 30" fill="none" xmlns="http://www.w3.org/2000/svg">
<path d="M15 30C23.2843 30 30 23.2843 30 15C30 6.71574 23.2843 0 15 0C6.71574 0 0 6.71574 0 15C0 23.2843 6.71574 30 15 30Z" fill="#34AADF"/>
<path d="M6.43232 14.6716C6.43232 14.6716 13.8626 11.5106 16.4395 10.3975C17.4274 9.95227 20.7774 8.52751 20.7774 8.52751C20.7774 8.52751 22.3236 7.90423 22.1947 9.41797C22.1517 10.0413 21.8082 12.2229 21.4646 14.5826C20.9492 17.9218 20.3908 21.5726 20.3908 21.5726C20.3908 21.5726 20.3049 22.5967 19.5748 22.7747C18.8447 22.9528 17.6421 22.1515 17.4274 21.9733C17.2555 21.8398 14.2061 19.8362 13.0895 18.8567C12.7888 18.5896 12.4452 18.0554 13.1324 17.432C14.6786 15.9628 16.5254 14.1374 17.6421 12.9798C18.1575 12.4455 18.6728 11.1989 16.5254 12.7126C13.476 14.8943 10.4696 16.9423 10.4696 16.9423C10.4696 16.9423 9.78235 17.3875 8.49389 16.9868C7.20537 16.5861 5.70214 16.0518 5.70214 16.0518C5.70214 16.0518 4.67142 15.384 6.43232 14.6716Z" fill="white"/>
</svg>
