<svg width="31" height="30" viewBox="0 0 31 30" fill="none" xmlns="http://www.w3.org/2000/svg">
<path d="M7.99082 0.0990069C7.64437 0.211703 7.30681 0.350106 6.98096 0.513053C6.10562 0.959988 5.38869 1.66503 4.92717 2.53278C4.51182 3.62253 4.17435 4.74039 3.91731 5.87794C3.88071 6.01553 4.14959 5.78327 4.90445 5.03597C6.24508 3.64683 7.86546 2.55825 9.65834 1.84229C10.6694 1.45331 11.7139 1.15752 12.7788 0.95865C12.9896 0.929617 13.1486 0.893024 13.1272 0.879138C13.1057 0.865253 12.4304 0.668329 11.6124 0.443635C10.856 0.187878 10.0663 0.043734 9.26828 0.0157199C8.8407 -0.0211463 8.40999 0.00691672 7.99082 0.0990069Z" fill="#231F20"/>
<path d="M13.8663 2.02819C12.3417 2.18101 10.8551 2.59659 9.47218 3.25646C7.53105 4.16821 5.84557 5.54594 4.56595 7.26695C3.28632 8.98796 2.45227 10.9988 2.13811 13.1203C2.00084 14.3641 2.00084 15.6192 2.13811 16.8631C2.45227 18.9845 3.28632 20.9953 4.56595 22.7163C5.84557 24.4373 7.53105 25.8151 9.47218 26.7269C11.5423 27.7158 13.8348 28.1466 16.1227 27.9768C18.4105 27.807 20.6143 27.0424 22.5157 25.7587C23.9626 24.7923 25.2016 23.5462 26.1596 22.0936C27.1176 20.6411 27.7753 19.0116 28.0939 17.3011C28.2818 15.7651 28.2818 14.2119 28.0939 12.6759C27.7753 10.9653 27.1176 9.33586 26.1596 7.88336C25.2016 6.43086 23.9626 5.18472 22.5157 4.21835C19.9715 2.51249 16.9157 1.73872 13.8663 2.02819ZM12.1647 5.56904C12.6499 5.67366 13.1094 5.87411 13.5161 6.15868C13.9228 6.44325 14.2686 6.80619 14.5331 7.22619C14.7977 7.6462 14.9757 8.11483 15.0567 8.60455C15.1377 9.09427 15.1201 9.59523 15.0049 10.0781C14.8372 10.7119 14.5055 11.2904 14.0433 11.7553C13.581 12.2203 13.0045 12.5553 12.3717 12.7268C11.7388 12.8982 11.072 12.9 10.4383 12.732C9.80457 12.564 9.22624 12.232 8.76149 11.7696C8.41509 11.4337 8.14007 11.0314 7.95292 10.5867C7.76576 10.142 7.67032 9.66413 7.67233 9.18167C7.67433 8.6992 7.77374 8.22208 7.96458 7.77896C8.15542 7.33584 8.43377 6.93584 8.78295 6.60289C9.21169 6.15649 9.74749 5.82716 10.3394 5.64621C10.9313 5.46525 11.5596 5.43869 12.1647 5.56904ZM21.7103 7.40444C22.5064 7.59244 23.2157 8.0438 23.7232 8.68533C24.2307 9.32686 24.5067 10.121 24.5064 10.939C24.5292 11.4236 24.4474 11.9074 24.2667 12.3577C24.0859 12.8079 23.8103 13.2139 23.4586 13.5482C22.9704 14.0419 22.3554 14.3914 21.6813 14.5581C20.8139 14.7793 19.8949 14.6657 19.1074 14.2399C18.4005 13.8887 17.8271 13.3169 17.4739 12.6109C17.1207 11.9049 17.0068 11.1031 17.1496 10.3267C17.2747 9.59391 17.6349 8.92174 18.1759 8.41178C18.5074 8.05496 18.9105 7.77207 19.3588 7.58153C19.8071 7.39099 20.2905 7.29708 20.7775 7.30597C21.0899 7.30306 21.4017 7.3361 21.7065 7.40444H21.7103ZM15.8141 13.6479C16.0754 13.775 16.2964 13.972 16.4524 14.2171C16.6084 14.4623 16.6933 14.7459 16.6977 15.0365C16.7061 15.3167 16.6412 15.5943 16.5095 15.8418C16.3778 16.0893 16.1839 16.2981 15.9468 16.4478C15.7097 16.5974 15.4377 16.6826 15.1577 16.695C14.8776 16.7074 14.5991 16.6465 14.3498 16.5184C14.1732 16.4573 14.0131 16.3565 13.8818 16.2236C13.7504 16.0907 13.6514 15.9295 13.5924 15.7522C13.4529 15.4461 13.4124 15.1041 13.4767 14.7738C13.5409 14.4436 13.7066 14.1417 13.9506 13.9101C14.1947 13.6786 14.5049 13.529 14.8381 13.4822C15.1712 13.4354 15.5106 13.4938 15.809 13.6492L15.8141 13.6479ZM10.2069 15.3899C10.545 15.472 10.8725 15.5931 11.1826 15.7509C11.8896 16.1022 12.463 16.674 12.8162 17.38C13.1694 18.086 13.2832 18.8878 13.1405 19.6642C13.0154 20.397 12.6551 21.0691 12.1142 21.5791C11.5634 22.1551 10.8386 22.5342 10.0514 22.6582C9.26416 22.7823 8.45796 22.6444 7.75669 22.2658C7.29568 22.025 6.8908 21.6895 6.56863 21.2812C6.24645 20.8729 6.01428 20.4011 5.88732 19.8967C5.76037 19.3923 5.74151 18.8668 5.83199 18.3547C5.92247 17.8425 6.12024 17.3553 6.41232 16.9249C6.83225 16.3348 7.41196 15.8768 8.08326 15.6049C8.75456 15.333 9.48955 15.2584 10.2018 15.3899H10.2069ZM19.8396 17.2405C20.7556 17.4771 21.5465 18.0549 22.0503 18.8556C22.5542 19.6563 22.7328 20.6194 22.5498 21.5475C22.4144 22.0799 22.1723 22.5792 21.8382 23.0151C21.504 23.4511 21.0847 23.8146 20.6058 24.0836C19.9078 24.4396 19.1155 24.5668 18.3411 24.4475C17.5667 24.3281 16.8496 23.968 16.2912 23.4183C15.9431 23.0802 15.666 22.6759 15.4761 22.2293C15.2862 21.7827 15.1873 21.3027 15.1853 20.8174C15.1833 20.3321 15.2782 19.8512 15.4644 19.4031C15.6506 18.9549 15.9244 18.5484 16.2697 18.2074C16.732 17.7554 17.3023 17.4291 17.9263 17.2599C18.5503 17.0906 19.2072 17.084 19.8345 17.2405H19.8396Z" fill="#ED165A"/>
<path d="M23.8359 3.75007C23.9272 3.86513 24.0378 3.96336 24.1629 4.04039C25.2621 4.96094 26.227 6.03084 27.0296 7.21893C28.13 8.89193 28.8715 10.775 29.2071 12.7492C29.2215 12.9232 29.2642 13.0938 29.3333 13.2541C29.3472 13.2327 29.5732 12.4273 29.8383 11.454C30.1094 10.6728 30.2658 9.85645 30.3028 9.03036C30.3101 8.41393 30.1917 7.80247 29.9547 7.23337C29.7177 6.66428 29.3671 6.14954 28.9243 5.72057C28.1115 4.95384 27.0858 4.45087 25.9819 4.27773C25.3432 4.1111 24.6034 3.91544 24.3345 3.84222C24.1759 3.77955 24.0065 3.74826 23.8359 3.75007Z" fill="#231F20"/>
<path d="M0.798123 17.2454C0.798123 17.2744 0.616352 17.9712 0.399234 18.798C0.159892 19.4955 0.0254592 20.2247 0.000339126 20.9616C-0.00718603 21.5764 0.110597 22.1863 0.346506 22.754C0.582414 23.3218 0.931504 23.8355 1.37248 24.2639C2.25836 25.0957 3.38287 25.6286 4.5876 25.7875C5.43714 26.0122 6.14782 26.1864 6.16297 26.1788C6.17812 26.1713 6.09733 26.0779 5.9812 25.9908C5.21423 25.3189 4.49389 24.5956 3.82516 23.8259C2.46185 22.1114 1.50191 20.1122 1.0165 17.9763C0.883961 17.3615 0.798123 17.0787 0.798123 17.2454Z" fill="#231F20"/>
<path d="M26.199 23.908C26.04 24.1188 25.6108 24.5896 25.2485 24.9608C23.2539 26.9554 20.7225 28.3272 17.9624 28.9093C17.6978 28.9549 17.4361 29.0156 17.1785 29.0911C17.1495 29.1201 17.1419 29.1201 18.8334 29.5695C21.0614 30.1641 21.9614 30.1502 23.3184 29.4824C24.3405 28.9723 25.1426 28.1083 25.5754 27.0512C25.7635 26.5652 26.5411 23.6833 26.5121 23.5962C26.5007 23.5608 26.3581 23.7047 26.199 23.908Z" fill="#231F20"/>
</svg>
