<svg width="28" height="30" viewBox="0 0 28 30" fill="none" xmlns="http://www.w3.org/2000/svg">
<path d="M13.6106 0.000552985H13.708C13.7345 2.36115 13.6941 7.09616 13.6941 7.09616C11.4341 5.82996 9.15856 4.59358 6.89962 3.32351C8.3794 2.48306 9.86029 1.645 11.3423 0.809334C12.0442 0.413783 12.7992 0.0740282 13.6106 0.000552985Z" fill="#B8CE01"/>
<path d="M13.8684 0C14.7473 0.0789997 15.5416 0.4972 16.2988 0.921478C17.7089 1.71589 19.1172 2.514 20.5236 3.31578C18.2558 4.57149 15.9631 5.84708 13.692 7.09892C13.6726 4.73832 13.7268 2.3606 13.7003 0H13.8684Z" fill="#7DB425"/>
<path d="M6.90129 3.32075L13.6958 7.0934L6.85427 11.0854C6.85427 11.0854 6.85095 8.55241 6.8587 7.28952C6.85261 5.97801 6.90129 3.32075 6.90129 3.32075Z" fill="#F6A925"/>
<path d="M20.5313 3.31633L20.5507 3.32683C20.5451 5.6797 20.5507 8.03256 20.5507 10.3854C20.5468 10.6158 20.5446 11.0909 20.5446 11.0909L13.6964 7.09616C13.6964 7.09616 18.264 4.57204 20.5335 3.31633H20.5313Z" fill="#35AC9D"/>
<path d="M20.5451 3.32628C22.054 4.18312 23.5524 5.05874 25.0514 5.93216C25.7765 6.33876 26.5448 6.78956 26.9408 7.5558C24.8179 8.72974 20.5423 11.0914 20.5423 11.0914C20.5423 11.0914 20.539 10.6158 20.5423 10.3854C20.5423 8.03256 20.539 5.67969 20.5423 3.32683L20.5451 3.32628Z" fill="#59D6BD"/>
<path d="M2.572 5.80233C3.99075 4.97367 6.89684 3.32296 6.89684 3.32296L6.85702 11.0854C6.85702 11.0854 2.59799 8.74024 0.481749 7.56574C0.943052 6.74702 1.77605 6.24926 2.572 5.80233Z" fill="#EF7414"/>
<path d="M13.6897 7.09561L20.5379 11.0898C20.5379 11.0898 18.3343 12.3079 17.2402 12.893C16.0709 13.5559 13.6953 14.8718 13.6953 14.8718L6.85536 11.0854L13.6897 7.09561Z" fill="white"/>
<path d="M0 10.6639C0.00608433 9.62194 -0.012718 8.51594 0.479007 7.56574C2.59691 8.74024 6.85427 11.0854 6.85427 11.0854C4.56601 12.4068 2.28882 13.7482 0.00166037 15.0713C-0.00165836 13.6018 0.00166037 12.1328 0.00166037 10.6639H0Z" fill="#E74B50"/>
<path d="M26.9408 7.5558C27.3579 8.33475 27.4188 9.24076 27.3955 10.1075C27.3955 11.7544 27.3955 15.0856 27.3955 15.0856L20.5435 11.0909C20.5435 11.0909 24.8179 8.72974 26.9408 7.5558Z" fill="#794387"/>
<path d="M6.85427 11.0854C6.86478 11.081 13.6942 14.8718 13.6942 14.8718C13.6942 14.8718 13.697 18.8323 13.6981 20.7697C13.7091 21.3935 13.6942 22.6541 13.6942 22.6541C11.4115 21.3957 9.14089 20.1261 6.85761 18.8677L6.85374 18.8505C6.85374 16.2622 6.85427 13.6738 6.85427 11.0854Z" fill="#E4E4E4"/>
<path d="M0.00166037 15.0713C2.28881 13.7454 4.56601 12.4068 6.85427 11.0854C6.85206 13.6741 6.85153 16.2625 6.85374 18.8505C6.50251 18.7042 6.18332 18.4953 5.84813 18.318C3.89948 17.2479 1.95693 16.153 0.00109039 15.0934V15.0729L0.00166037 15.0713Z" fill="#794387"/>
<path d="M20.5423 11.0914C20.5423 12.6788 20.5424 14.2652 20.5424 15.8519C20.5352 16.8612 20.5678 17.8666 20.5424 18.8754C18.2629 20.1129 13.6942 22.6541 13.6942 22.6541C13.6942 22.6541 13.7091 21.3935 13.6981 20.7697C13.6981 18.8323 13.6942 14.8718 13.6942 14.8718L20.5423 11.0914Z" fill="#F1F1F1"/>
<path d="M20.5423 11.0914C20.5423 11.0914 27.3944 15.0762 27.3944 15.0856C25.1172 16.3463 20.5424 18.8754 20.5424 18.8754C20.5678 17.8666 20.5352 16.8612 20.5424 15.8519C20.5424 14.2645 20.5435 12.6775 20.5435 11.0909L20.5423 11.0914Z" fill="#4C3683"/>
<path d="M0.00109039 15.0934C1.95693 16.1546 3.89672 17.2479 5.84758 18.3196C6.18277 18.497 6.50248 18.7064 6.85371 18.8522L6.85758 18.8693C4.75572 20.0932 2.65497 21.3176 0.555323 22.5425C0.334075 22.2061 0.223449 21.8139 0.139928 21.4238C0.0077321 20.7736 0.000539689 20.1074 0.000539689 19.4466C0.000539689 17.9955 0.00109039 16.5445 0.00109039 15.0934Z" fill="#4C3683"/>
<path d="M27.3944 15.0856C27.3978 16.6131 27.3944 18.1406 27.3944 19.6682C27.4165 20.6476 27.3878 21.6912 26.8651 22.5547C24.9734 21.4498 20.5412 18.8754 20.5412 18.8754C20.5412 18.8754 25.1172 16.3463 27.3944 15.0856Z" fill="#E74B50"/>
<path d="M0.555334 22.5409C2.65498 21.3144 4.75575 20.0901 6.85761 18.8677C6.84378 21.4548 6.86201 24.0424 6.84873 26.629C5.36084 25.7911 3.87682 24.9466 2.39667 24.0955C1.70472 23.6866 0.996171 23.232 0.555334 22.5409Z" fill="#0F68A0"/>
<path d="M6.85761 18.8677C9.14089 20.1261 11.4115 21.3957 13.6942 22.6541C11.4153 23.98 6.85205 26.6317 6.84873 26.629C6.86201 24.0424 6.84378 21.4548 6.85761 18.8677Z" fill="#49BDCA"/>
<path d="M20.5319 18.8804L20.5424 18.8754C20.549 21.4631 20.5291 24.0513 20.5534 26.6389L20.5363 26.6472C18.7298 25.5694 16.9017 24.5258 15.0869 23.4607C14.6301 23.2011 13.6942 22.6541 13.6942 22.6541C13.6942 22.6541 18.2524 20.1206 20.5319 18.8804Z" fill="#F6A925"/>
<path d="M20.5424 18.8754C20.7442 19.013 24.9751 21.4509 26.8667 22.5547C26.5979 23.0132 26.172 23.3497 25.7428 23.6507C25.0503 24.1159 24.3113 24.5054 23.5912 24.9241C22.5784 25.4959 21.5723 26.0793 20.5534 26.6367C20.5291 24.0491 20.5495 21.4608 20.5429 18.8732L20.5424 18.8754Z" fill="#EF7414"/>
<path d="M13.6942 22.6541L13.6942 29.9978C13.1272 29.9144 12.5094 29.784 12.0071 29.4962C10.2864 28.5426 8.56285 27.5946 6.84873 26.629C9.12759 25.3003 11.4153 23.9828 13.6942 22.6541Z" fill="#7DB425"/>
<path d="M13.6942 22.6541C13.6942 22.6541 14.6301 23.2011 15.0869 23.4607C16.9017 24.5258 18.7298 25.5694 20.5363 26.6472C18.774 27.621 17.012 28.597 15.2501 29.5752C14.8098 29.8192 14.3215 29.9642 13.8192 30C13.7882 30 13.6942 30 13.6942 30L13.6942 22.6541Z" fill="#B8CE01"/>
</svg>
