<svg xmlns="http://www.w3.org/2000/svg" width="148" height="77.523" viewBox="0 0 148 77.523">
  <g id="darkematn" transform="translate(-184 -113.148)">
    <g id="Rectangle_66" data-name="Rectangle 66" transform="translate(184 113.148)" fill="#fff" stroke="#bfd730" stroke-width="1" stroke-dasharray="4">
      <rect width="148" height="77.524" rx="4" stroke="none"/>
      <rect x="0.5" y="0.5" width="147" height="76.524" rx="3.5" fill="none"/>
    </g>
    <g id="darke_matn" data-name="darke matn" transform="translate(198 120.148)">
      <path id="Path_16004" data-name="Path 16004" d="M108.834,355.5a13.985,13.985,0,0,1-8.752-.937,15.19,15.19,0,0,1-7.5,2.42,18.738,18.738,0,0,1-2.889,8.331c-3.084,4.722-7.919,6.953-13.449,7.42-5,.422-9.664-.852-13.064-4.666a16.993,16.993,0,0,1-4.115-10.107c-.4-4.737.69-13.582,6.829-14.1a5.426,5.426,0,0,1,4.415,1.455,5.008,5.008,0,0,1,1.064,1.536,6.863,6.863,0,0,1,6.452-.556,6.063,6.063,0,0,1,5.905-6.489,5.771,5.771,0,0,1,.578-.02,6.778,6.778,0,0,1,4.677-5.387,6.779,6.779,0,0,1,5.922-4.786q.2-.017.392-.022a8,8,0,0,1-.309-1.727c-.267-3.285.883-7.38,4.806-7.711a4.846,4.846,0,0,1,5.3,4.661,12.477,12.477,0,0,0,2.532-.258,4.9,4.9,0,0,1,3.016-5.719q.011-.37.037-.733c.2-2.719,1.412-5.5,4.523-5.762a3.517,3.517,0,0,1,1.835.206,4.935,4.935,0,0,1,2.844,2.376q.092-.011.185-.019a5.2,5.2,0,0,1,3.553.987,12.911,12.911,0,0,1,4.724-3.464c3.122-1.419,8.268-2.661,10.518.884a4.641,4.641,0,0,1,.7,2.1,4.962,4.962,0,0,1-3.635,5.208l-.4.13a7.771,7.771,0,0,1,1.839,4.238,8.523,8.523,0,0,1,.01,1.336c4.472-2.277,12.51-5.137,15.848-.575a5.38,5.38,0,0,1,.957,2.264c.88,5.046-5.409,8.064-9.13,9.808-.653.306-1.311.6-1.97.9,3.092,2.036,6.055,4.613,7.479,7.749q0-.261-.026-.538c-.034-.394-.1-.806-.165-1.2-.093-.584-.185-1.181-.236-1.772-.339-4.015,1.117-8.11,5.673-8.494a6.06,6.06,0,0,1,4.821,1.571,6.525,6.525,0,0,1,4-1.3c4.066.009,7.616,3.542,9.867,6.6,1.772,2.405,3.78,5.967,4.035,8.988a9.518,9.518,0,0,1-.491,3.928c-1.345,3.891-4.967,6.507-8.652,7.987s-10.027,2.669-13.558-.057a21.723,21.723,0,0,1-2.046,1.406,19.313,19.313,0,0,1-7.118,2.653c-2.642.372-5.756-.064-7.035-2.725a38.555,38.555,0,0,1-7.437,1.969c-7.022,1.12-17.275.683-21.689-5.864a10.8,10.8,0,0,1-1.671-4.119h0Zm15.9-3.593a23.986,23.986,0,0,0,12.275-1.48c-.447-.278-.853-.52-1.124-.68-2.153-1.279-5.926-3.489-7.465-5.462l-.008-.01a7.6,7.6,0,0,1-.975-1.674,11.559,11.559,0,0,1-2.7,9.308h0Zm2-11.9a9.236,9.236,0,0,1,1.782-6.522l-.274.036a12.7,12.7,0,0,1-4.622-.187,7.673,7.673,0,0,1-2.173.695,9.122,9.122,0,0,1,3.479,2.816,12.963,12.963,0,0,1,1.807,3.163ZM115.668,333.5a6.413,6.413,0,0,1-.918-.544,13.736,13.736,0,0,1-2.972,1.528,5.194,5.194,0,0,1-.85,1.837,10.035,10.035,0,0,1,4.74-2.821h0Zm-5.551,3.711a5.244,5.244,0,0,1-7.908-1.24,6.78,6.78,0,0,1-.1,1.605,6.4,6.4,0,0,1,3.279,4.416,2.413,2.413,0,0,0,1.579.118,4.252,4.252,0,0,0,.336-.519l.008-.014a37.871,37.871,0,0,1,2.368-3.83l.012-.015q.206-.266.421-.522h0Z" transform="translate(-58.994 -311.004)" fill="#bfd730" fill-rule="evenodd"/>
      <path id="Path_16005" data-name="Path 16005" d="M440.858,350.242a2.276,2.276,0,0,0,.312,1.063c.91,1.37,4.819,3,4.944,4.482q.067.791-2,1.141c-1.4.238-4.915,1.016-5.347-1.077q-.233-1.1-1.046-1.029t-.895,1.193a1.735,1.735,0,0,1-1.809,1.717l-.163.014-.523.044q-1.824.154-2.014-2.092c-.127-1.51.206-9.464-1.978-9.28-2.086.176-.421,10.71.736,12.734a3.081,3.081,0,0,0,3.229,1.368l.1-.009.674-.057.14-.012a3.1,3.1,0,0,0,2.738-1.671c1.164,2.288,7.569.707,8.822-.043a3.12,3.12,0,0,0,1.509-3.209q-.2-2.328-4.748-5.212a.537.537,0,0,1-.28-.41.388.388,0,0,1,.26-.385,43.625,43.625,0,0,1,6.036-2.408q1-.319.931-1.169c-.205-2.43-9.928.807-9.633,4.306h0Zm-5.428,1.416a1.342,1.342,0,0,0-.226-2.674,1.342,1.342,0,0,0,.226,2.674Zm-.112,2.763a1.342,1.342,0,1,0-.226-2.674,1.275,1.275,0,0,0-.909.469,1.352,1.352,0,0,0,.165,1.888,1.268,1.268,0,0,0,.969.316h0Zm-12.8,9.905a1.353,1.353,0,0,0-.153-1.889,1.274,1.274,0,0,0-.974-.31,1.342,1.342,0,1,0,.226,2.675,1.272,1.272,0,0,0,.9-.474h0Zm6.918-8.13c-.092-1.091-.674-3.725-2.176-3.6-1.547.13-1.028,1.717-.567,2.577a3.712,3.712,0,0,1,.483,1.294c.165,1.952-10.767,4.165-11.09.341-.065-.778.272-2.7-1.154-2.577-1.282.108-1.323,2.626-1.246,3.536.438,6.56,16.282,4.722,15.751-1.573h0Z" transform="translate(-373.805 -341.26)" fill="#ed0677" fill-rule="evenodd"/>
      <path id="Shape_4_copy" data-name="Shape 4 copy" d="M146.712,473.939q-1.195-.5-1.255-1.222a2.509,2.509,0,0,1,.8-1.922,2.893,2.893,0,0,1,1.854-1.033c2.969-.251,3.344,6.127-1.4,4.176h0Zm-38.747,8.031a2.9,2.9,0,0,0-.328-4.042,2.726,2.726,0,0,0-2.085-.663,2.87,2.87,0,1,0,.483,5.72,2.72,2.72,0,0,0,1.93-1.015h0Zm20.363-16.162a2.9,2.9,0,0,0-.328-4.042,2.725,2.725,0,0,0-2.085-.663,2.87,2.87,0,1,0,.483,5.72,2.721,2.721,0,0,0,1.93-1.014h0Zm-4.479,4.515a2.9,2.9,0,0,0-.328-4.042,2.725,2.725,0,0,0-2.085-.663,2.87,2.87,0,1,0,.483,5.72,2.721,2.721,0,0,0,1.93-1.015h0Zm81.477,7.952c-.315-3.731-5.917-12.022-10.03-12.028a2.569,2.569,0,0,0-2.662,2.575c-.1,3.76,8.367,5.4,8.3,9.952-.033,2.444-7.528,2.975-9.279,3.387q-3.565.779-3.553,2.991c.012,5.183,17.934,1.563,17.223-6.877h0Zm-14.938-6.5q-.075-.9-.231-1.859-.68-4.175-3.339-3.951-2.461.208-2.117,4.287.042.5.2,1.486t.2,1.486c.847,10.03-11.812,10.457-11.353,15.886-.108,3.078,17.741-.547,16.64-17.334Zm-23.364-4.834a1.1,1.1,0,0,1-.646-.8.837.837,0,0,1,.453-.89c2.741-1.692,14.771-5.637,14.193-8.959-.857-4.922-21.017,3.515-19.711,11.01a4.966,4.966,0,0,0,.865,2.205q1.043,1.339,6.383,4.512,4.747,2.821,4.97,4.1.313,1.8-4.371,3.548c-16.989,6.38-25.492-4.564-25.825-1.985a6.686,6.686,0,0,0,0,2.687c2.284,13.106,36.936,6.982,34.808-5.232q-.853-4.892-11.122-10.2h0Zm-14.5-.1a4.921,4.921,0,0,0-4.579-2.043q-2.362.2-4.484,2.942-.452.591-2.09,3.418a5.264,5.264,0,0,1-1.477,1.783c-2.41,1.606-6.971.677-7.579-2.279-.665-3.129-3.928-2.772-4.153.351-.317,4-6.5,4.711-9.357,3.052a14.916,14.916,0,0,1-2.084-1.839,2.566,2.566,0,0,0-1.98-.917,2.25,2.25,0,0,0-2.322,2.75,11.293,11.293,0,0,0,1.29,3.273,11.078,11.078,0,0,1,1.326,3.7,8.587,8.587,0,0,1-1.929,6.8,9.472,9.472,0,0,1-6.524,2.805,8.041,8.041,0,0,1-5.671-1.325,6.749,6.749,0,0,1-2.562-5.144c-.24-5.343,1.621-9.057-1.443-8.8-2.254.19-3.683,5.04-3.272,9.9a13.1,13.1,0,0,0,3.142,7.85q3.487,3.914,9.826,3.378,7.21-.609,10.513-5.671,2.861-4.374,2.306-10.94c3.022,2.226,9.751-.137,11.167-2.972,1.962,3.862,10.221,3.086,12.726.078,6.4,6.475,14.794-2.919,9.209-10.145h0Z" transform="translate(-89.677 -438.662)" fill="#fff" fill-rule="evenodd"/>
    </g>
  </g>
</svg>
