<svg xmlns="http://www.w3.org/2000/svg" width="148" height="77.523" viewBox="0 0 148 77.523">
  <g id="azmoone_tizhooshan" data-name="azmoone tizhooshan" transform="translate(-184 -113)">
    <g id="Rectangle_66" data-name="Rectangle 66" transform="translate(184 113)" fill="#fff" stroke="#ffde00" stroke-width="1" stroke-dasharray="4 4">
      <rect width="148" height="77.524" rx="4" stroke="none"/>
      <rect x="0.5" y="0.5" width="147" height="76.524" rx="3.5" fill="none"/>
    </g>
    <g id="azmoon" transform="translate(4.006 -170.012)">
      <path id="Path_16003" data-name="Path 16003" d="M271.438,301.92a9.1,9.1,0,0,1-.9.335,4.3,4.3,0,0,1-2.045-.308,1.1,1.1,0,0,1-.763-1.319,3,3,0,0,1,1.741-2.441,1.518,1.518,0,0,1,1.755.321,3.076,3.076,0,0,1,.979,1.935,1.35,1.35,0,0,1-.77,1.477h0Zm-43.254,3.452a2.555,2.555,0,0,1-3.55.82,2.678,2.678,0,0,1-.824-3.651,2.575,2.575,0,0,1,3.584-.8,2.65,2.65,0,0,1,.79,3.631h0Zm54.878-7.951a2.6,2.6,0,1,1-4.426-1.859,2.6,2.6,0,0,1,4.426,1.86h0Zm6.338-1.189a2.324,2.324,0,0,0-1.33-.7l-1.35-.068a3.987,3.987,0,0,0-1.674.472c-.088.328-.189.656-.283.984-.034,1.415-.068,2.837-.095,4.252-.128,6.03-.209,9.339-.331,15.368-.02.807-.027,1.613-.041,2.42a1.06,1.06,0,0,1,.169.178,1.4,1.4,0,0,0,.331.335c.3.068.938.116,1.039.137l.128.02c.317.014.634.034.945.048l.216-.021c.189-.034.371-.068.553-.1a1.717,1.717,0,0,0,.506-.786l1.256-22.363-.04-.185h0Zm-6.183,8.088c.081-.52.115-1.053.155-1.586a1.006,1.006,0,0,0-.122-.308,3.449,3.449,0,0,0-.256-.294c-1.255-.191-2.484-.383-3.706-.574a1.469,1.469,0,0,0-.871.52,19.347,19.347,0,0,1-1.006,5.319,8.542,8.542,0,0,1-2.24,3.617,10.65,10.65,0,0,1-2.956,1.757,32.235,32.235,0,0,1-7.324,2.106,3.675,3.675,0,0,0-.439.588q.354,1.9.709,3.781a2.038,2.038,0,0,0,.324.362.417.417,0,0,1,.054.027c.047.021.095.034.135.048a22.328,22.328,0,0,0,10.307-3.186,14.686,14.686,0,0,0,5.549-6.235,20.749,20.749,0,0,0,1.687-5.941h0Zm9.977-12.716c-.3-.383-.614-.766-.925-1.155a1.946,1.946,0,0,0-1.262-.048c-.149.1-.3.191-.459.273a5.339,5.339,0,0,1-4.091.595,16.066,16.066,0,0,1-2.153-.923,16.26,16.26,0,0,0-3.206-1.176,4.817,4.817,0,0,0-5.643,2.557,1.529,1.529,0,0,0-.02.718c.061.089.128.185.2.267a2.554,2.554,0,0,0,.986.567,1.175,1.175,0,0,0,1.1-.075,2.738,2.738,0,0,1,2.768-1.244,4.657,4.657,0,0,1,1.248.458,17.124,17.124,0,0,0,5.353,1.812,6.886,6.886,0,0,0,5.657-1.607c.128-.109.25-.226.378-.335a2.212,2.212,0,0,0,.075-.684h0ZM238.14,303.185a17.64,17.64,0,0,0-6.865-9.954,1.561,1.561,0,0,0-.256-.062,4.307,4.307,0,0,0-.634.123c-.736.752-1.472,1.5-2.207,2.249a3.162,3.162,0,0,0-.243.636,4.66,4.66,0,0,0,.108.65c.29.212.58.424.85.656a22.615,22.615,0,0,1,4.151,4.868,6.031,6.031,0,0,1,.918,4.218,7.36,7.36,0,0,1-2.4,4.464,8.914,8.914,0,0,1-5.164,2.338,5.341,5.341,0,0,1-4.759-1.6,10.692,10.692,0,0,1-2.477-4.95c-.135-.561-.243-1.135-.351-1.709a1.579,1.579,0,0,0-.4-.417,4.187,4.187,0,0,0-.5-.068c-.277.082-.547.164-.824.239-.4.116-.8.226-1.195.335a2.412,2.412,0,0,0-.628.451.749.749,0,0,0-.095.123,3.454,3.454,0,0,0-.142.328,1.733,1.733,0,0,0-.034.376c.034.144.061.287.095.424a23.082,23.082,0,0,0,1.984,6.071,10.731,10.731,0,0,0,3.672,4.245,11.053,11.053,0,0,0,4.7,1.552,7.865,7.865,0,0,0,2.99-.15,14.5,14.5,0,0,0,6.979-4.081,10.883,10.883,0,0,0,3.206-7.267,13.466,13.466,0,0,0-.486-4.088h0Zm9.531.766a8.038,8.038,0,0,1-3,.526,1.382,1.382,0,0,1-1.391-1.326,1.6,1.6,0,0,1,1.12-1.675,1.936,1.936,0,0,1,1.006-.027,3.732,3.732,0,0,1,2.309,2.434c-.034.048-.041.062-.047.068h0Zm28.073-3.842a8.922,8.922,0,0,0-2.4-5.188,4.5,4.5,0,0,0-5.67-.793,6.959,6.959,0,0,0-2.666,3.329c-.479,1.114-.891,2.256-1.316,3.391a3.659,3.659,0,0,1-2.376,2.509c-.979.246-5.279,1.825-9.032-.533a1.647,1.647,0,0,1-.446-.608,16.29,16.29,0,0,0-.878-1.791,7.961,7.961,0,0,0-4.043-3.507,4.7,4.7,0,0,0-5.994,2.112,8.809,8.809,0,0,0-.391,7.684,4.012,4.012,0,0,0,3.294,2.652,10.463,10.463,0,0,0,3.686-.294c.385-.082.763-.171,1.188-.267-.027.191-.04.321-.068.451A9.553,9.553,0,0,1,247.2,312.7a25.366,25.366,0,0,1-6.318,6.4c-.155.116-.3.219-.466.321a1.9,1.9,0,0,0,.013.991c.176.239.351.472.52.7.331.451.661.909.992,1.36l.007.007a3.856,3.856,0,0,0,.526.369,1.233,1.233,0,0,0,.844.014,28.211,28.211,0,0,0,4.144-3.329,18.785,18.785,0,0,0,4.9-7.527,10.925,10.925,0,0,0,.7-3.623,15.185,15.185,0,0,0,9.666-.076,5.856,5.856,0,0,0,3.679-2.646,1.021,1.021,0,0,1,.128-.171,1.378,1.378,0,0,1,.142.075,6.16,6.16,0,0,0,4.549,1.059,4.886,4.886,0,0,0,3.544-2.044,6.216,6.216,0,0,0,.972-4.478h0Z" transform="translate(0 0)" fill="#0054a6" fill-rule="evenodd"/>
      <path id="Shape_4839_copy_2" data-name="Shape 4839 copy 2" d="M261.621,622.125a1.831,1.831,0,0,1,.459-2.523,1.773,1.773,0,0,1,2.488.466,1.831,1.831,0,0,1-.459,2.523,1.773,1.773,0,0,1-2.488-.465Zm27.727,7.24a1.82,1.82,0,0,1-1.11,1.682,1.775,1.775,0,0,1-1.957-.4,1.838,1.838,0,0,1-.38-1.987,1.793,1.793,0,0,1,1.667-1.113,1.747,1.747,0,0,1,1.269.527,1.8,1.8,0,0,1,.511,1.291Zm-45.474,4.662a1.82,1.82,0,0,1-.135,2.584,1.785,1.785,0,0,1-2.556-.184,1.816,1.816,0,0,1,.175-2.557,1.736,1.736,0,0,1,2.515.157h0Zm51.678,9.817a1.783,1.783,0,0,1,.511-1.287,1.732,1.732,0,0,1,1.269-.518,1.752,1.752,0,0,1,1.278.512,1.8,1.8,0,0,1,.529,1.286,1.838,1.838,0,0,1-.517,1.3,1.786,1.786,0,0,1-1.276.544,1.764,1.764,0,0,1-1.281-.534,1.815,1.815,0,0,1-.513-1.3h0Zm-37.578-19.211a1.851,1.851,0,0,1-.02-2.039,1.793,1.793,0,0,1,1.853-.791,1.817,1.817,0,0,1,1.423,1.441,1.841,1.841,0,0,1-.776,1.881,1.743,1.743,0,0,1-1.343.286,1.762,1.762,0,0,1-1.138-.778Zm42.986,1.025a1.741,1.741,0,0,1,1.274.509,1.793,1.793,0,0,1,.526,1.282,1.824,1.824,0,0,1-1.087,1.706,1.779,1.779,0,0,1-1.969-.373,1.842,1.842,0,0,1-.406-1.989,1.8,1.8,0,0,1,1.661-1.135Zm-9.811,18.2a1.8,1.8,0,0,1,3.6-.034,1.843,1.843,0,0,1-.524,1.319,1.79,1.79,0,0,1-1.3.54,1.766,1.766,0,0,1-1.266-.535,1.817,1.817,0,0,1-.514-1.29h0ZM305.322,629.3a1.779,1.779,0,0,1-1.269-.565,1.831,1.831,0,0,1-.491-1.314,1.772,1.772,0,0,1,1.834-1.764,1.822,1.822,0,0,1-.075,3.644h0ZM260.569,618.1a1.8,1.8,0,1,1-2.946,2.058,1.84,1.84,0,0,1,.458-2.537,1.748,1.748,0,0,1,1.344-.293,1.766,1.766,0,0,1,1.145.772h0Zm-13.284,11.438a1.5,1.5,0,0,0-1.463.335.486.486,0,0,1-.094.068c-.25.431-.506.861-.755,1.285-.128.615.243.971.634,1.36.506.321,1,.649,1.5.978a8.968,8.968,0,0,1,2.165,1.757,4.381,4.381,0,0,1,.472,4.97,7.45,7.45,0,0,1-1.032,1.408,5.83,5.83,0,0,1-3.419,2,3.4,3.4,0,0,1-3.5-1.47,9.708,9.708,0,0,1-1.483-3.261,1.776,1.776,0,0,0-.627-.506,1.2,1.2,0,0,0-.317-.02.357.357,0,0,1-.148-.007c-.324.123-.647.239-.971.362a1.925,1.925,0,0,0-.479.458c-.061.178-.128.349-.189.526a10.984,10.984,0,0,0,2.8,5.517,6.386,6.386,0,0,0,6.965,1.784,9.089,9.089,0,0,0,5.414-4.847c1.6-3.3.877-6.385-1.214-9.223a12.131,12.131,0,0,0-4.255-3.48h0Zm62.2,1.941c-.054-.212-.121-.417-.182-.629a1.51,1.51,0,0,0-1.2-.855c-.506.15-1,.3-1.5.444a1.185,1.185,0,0,0-.31.574,4.942,4.942,0,0,0-.067.643,16.431,16.431,0,0,1,.553,2.912,1.466,1.466,0,0,1-.957,1.586,2.682,2.682,0,0,1-.506.15,10.925,10.925,0,0,1-3.061-.041,1.91,1.91,0,0,1-1.76-1.668,4.452,4.452,0,0,1-.094-.588c-.027-.308-.04-.615-.061-.93a1.1,1.1,0,0,0-.229-.328.5.5,0,0,1-.108-.034c-.081-.041-.162-.076-.249-.116h-1.585a.835.835,0,0,0-.438.315.323.323,0,0,0-.034.068.1.1,0,0,0-.02.027,9.424,9.424,0,0,1-.02,1.449A2,2,0,0,1,296,636.372a7.207,7.207,0,0,1-1.531.171,3.2,3.2,0,0,1-3.014-2.263c-.075-.239-.115-.492-.2-.724-.088-.259-.175-.513-.27-.773a1.529,1.529,0,0,0-1.234-.8q-.627.318-1.234.636a6.28,6.28,0,0,0-.465.485.678.678,0,0,0-.189.417c.075.144.141.28.209.417a5.546,5.546,0,0,1-.371,5.729,9.935,9.935,0,0,1-2.043,2.188,20.183,20.183,0,0,1-5.448,2.974,1.563,1.563,0,0,0-.2.69,3.019,3.019,0,0,0,.067.547c.2.389.384.773.573,1.155.04.048.081.1.121.137s.108.061.162.089a5.769,5.769,0,0,0,.688.109,22.178,22.178,0,0,0,6.743-3.972,9.147,9.147,0,0,0,2.92-4.321,10.928,10.928,0,0,0,1.322.67,8.078,8.078,0,0,0,3.3.376,3.738,3.738,0,0,0,3.061-1.832.276.276,0,0,1,.081-.055,4.722,4.722,0,0,0,2.475,1.538,8.92,8.92,0,0,0,5.387-.444,4.216,4.216,0,0,0,2.933-3.87,11.905,11.905,0,0,0-.371-4.17h0Zm-38.637-12.736c-.135-.109-.276-.219-.411-.328-.121-.041-.236-.076-.364-.109a.925.925,0,0,0-.546.082l-1.254,1.456a2.946,2.946,0,0,0-.04.54,1.431,1.431,0,0,0,.1.267c.141.116.27.232.4.356a17.809,17.809,0,0,1,1.531,1.586,1.122,1.122,0,0,1-.256,1.7,1.855,1.855,0,0,1-2,.144,5.952,5.952,0,0,1-1.14-.9,4.582,4.582,0,0,1-.5-.588,1.111,1.111,0,0,0-.526-.13l-1.126.779c-.061.076-.128.151-.2.233-.2.239-.317.383-.168.567a.471.471,0,0,1,.1.294,6.351,6.351,0,0,1,.762,1.641,1.3,1.3,0,0,1-.344,1.449c-.991.827-2.151,1.039-3.081-.157-.209-.267-.4-.547-.58-.827a1.025,1.025,0,0,0-.148-.109,1.2,1.2,0,0,0-.661-.021l-.8.554c-.317.287-.58.629-.506.957a.524.524,0,0,1,.007.144c.223.424.438.834.614,1.265a1.794,1.794,0,0,1-.5,2.188,5.625,5.625,0,0,1-1.025.711,2.014,2.014,0,0,1-2.488-.355,5.431,5.431,0,0,1-.843-.964q-3.449-5.107-6.878-10.242c-.061-.048-.128-.089-.189-.137a1.783,1.783,0,0,0-.823-.185.282.282,0,0,0-.094.062.638.638,0,0,1-.155.076c-.169.137-.33.273-.5.4-.243.184-.479.362-.708.54a1.671,1.671,0,0,0-.263.971c.573.855,1.126,1.7,1.719,2.516,1.578,2.194,3.183,4.375,4.788,6.549a29.985,29.985,0,0,0,2.973,3.623,3.713,3.713,0,0,0,4.14,1.032,10,10,0,0,0,2.839-1.778,3.706,3.706,0,0,0,.7-.786,3.273,3.273,0,0,0,.519-2.133,3.379,3.379,0,0,0,3.675-.437,3.679,3.679,0,0,0,1.531-3.432,3.985,3.985,0,0,0,4.592-.937,4.837,4.837,0,0,0,.425-5.49,8.872,8.872,0,0,0-2.3-2.646h0Zm13.439,18.028a.784.784,0,0,1-.843.718,3.6,3.6,0,0,1-1.955-.813,3.481,3.481,0,0,0,.877-2.8,6.418,6.418,0,0,1,1.74,1.791,1.688,1.688,0,0,1,.182,1.1Zm-5.833-1.422a1.578,1.578,0,0,1-1.558-1.5,2,2,0,0,1,1.7-1.757,1.621,1.621,0,0,1,1.4,1.736,1.383,1.383,0,0,1-1.537,1.524h0Zm-9.723.745a.966.966,0,0,1-.843-1.258,1.117,1.117,0,0,1,.552-.686,1.091,1.091,0,0,1,.871-.066,2,2,0,0,1,.775.54,2.516,2.516,0,0,1,.614,1.668c-.688-.069-1.342-.082-1.969-.2h0Zm18.071-.568a5.963,5.963,0,0,0-1.227-2.748,17.322,17.322,0,0,0-3.291-3.282,41.47,41.47,0,0,0-4.963-3.357,1.953,1.953,0,0,0-.391-.027,1.732,1.732,0,0,0-.445.28q-.6.892-1.194,1.805c-.007.076-.02.151-.02.233.027.178.067.362.081.54.506.431,1,.855,1.463,1.251a20.942,20.942,0,0,0-1.47,1.784,3.589,3.589,0,0,0-.317,3.958h-1.214c-.034-.191-.054-.369-.088-.54a6.073,6.073,0,0,0-2.151-3.917,3.272,3.272,0,0,0-4.4.048,6.008,6.008,0,0,0-1.814,4.963,2.939,2.939,0,0,0,2.5,2.906,12.282,12.282,0,0,0,1.5.205c.391.048.789.055,1.281.082-.337.5-.593.957-.917,1.354a10.479,10.479,0,0,1-3.513,2.8q-1.558.769-3.129,1.524l-.1.041a3.264,3.264,0,0,0-.088,1.094c.189.417.378.827.566,1.244a2.472,2.472,0,0,0,.593.342,1.443,1.443,0,0,0,.486.076,21.575,21.575,0,0,0,4.133-2.045,11.406,11.406,0,0,0,4.713-5.667c.088-.232.162-.472.243-.711h.391c1.8-.021.5-.021,2.3-.076a5.109,5.109,0,0,0,2.434-.649.5.5,0,0,1,.553-.007,10.567,10.567,0,0,0,3.661,1.394,3.1,3.1,0,0,0,3.216-1.489,5.253,5.253,0,0,0,.607-3.405h0Z" transform="translate(-20.141 -293.662)" fill="#ffde00" fill-rule="evenodd"/>
    </g>
  </g>
</svg>
