<svg xmlns="http://www.w3.org/2000/svg" width="148" height="77.523" viewBox="0 0 148 77.523">
  <g id="jambandi" transform="translate(-184 -112.953)">
    <g id="Rectangle_66" data-name="Rectangle 66" transform="translate(184 112.953)" fill="#fff" stroke="#2e3192" stroke-width="1" stroke-dasharray="4">
      <rect width="148" height="77.524" rx="4" stroke="none"/>
      <rect x="0.5" y="0.5" width="147" height="76.524" rx="3.5" fill="none"/>
    </g>
    <path id="jambandi2" d="M333.882,530.846a23.344,23.344,0,0,0-3.512-.523,22.014,22.014,0,0,0-5.942,1.69,21.236,21.236,0,0,1-6.726,1.69h-1.308V533.7a3.07,3.07,0,0,1-2.074-.857,9.481,9.481,0,0,1-1.476-2.011q-1.775,3.249-3.924,3.883a6.832,6.832,0,0,1-3.7-1.81,9.331,9.331,0,0,1-1.495-2.3q-1.776,3.1-2.934,3.1H287a5.9,5.9,0,0,1-4.746-2.191q-.131-.149-3.513-4.549-5.978,3.753-5.978,7.8a5.353,5.353,0,0,0,3.478,5.114h-7.415a5.911,5.911,0,0,1-.529-2.5q0-5.751,8.781-11.668a17.177,17.177,0,0,0-4.167-2.875q2.634-3.864,6.6-3.864,4.951,0,4.951,4.938-1.27.523-3.718,1.777a8.355,8.355,0,0,0,5.923,2.9h14.071v.014a2.959,2.959,0,0,0,2-1.366q.616-.807,2.261-2.929a6.545,6.545,0,0,1,3.326-2.365,5.839,5.839,0,0,1,3.812,2.359q.579.8,2.074,2.9a2.752,2.752,0,0,0,2.036,1.4h.149v-.019h2.859a33.344,33.344,0,0,0,8.39-.9q-1.85-1.011-4.522-2.83a5.8,5.8,0,0,0-2.261-1.162q-.56,0-2.036,2.557a1.258,1.258,0,0,1-.7-.187,1.282,1.282,0,0,1-.57-.467q2.9-6.273,4.671-6.273,1.158,0,3.774,2.016,4,3.062,4.951,3.659a9.583,9.583,0,0,0,5.437,1.774Zm-26.644-5.284a7.86,7.86,0,0,0-1.495,1.792,4.945,4.945,0,0,0,1.457,2.315,6.573,6.573,0,0,0,2.317,1.512,3.175,3.175,0,0,0,1.794-2.147A8.249,8.249,0,0,0,307.238,525.562Zm-47.317,8.14h-1.4a3.916,3.916,0,0,1-2.822-1.332,5.393,5.393,0,0,1-1.514-2.794,4.907,4.907,0,0,1-1.588,2.757,4.151,4.151,0,0,1-2.84,1.369h-8.016q-2.559,0-3.961-4.07a18.88,18.88,0,0,1-1.4,3.4,12.456,12.456,0,0,1-5.363,1.176q-3.065,0-4.354-1.288.261-2.091.916-5.881h1.046a1.887,1.887,0,0,0,.878,1.81,3.818,3.818,0,0,0,2.074.411,22.209,22.209,0,0,0,2.616-.28q2.653-.392,2.915-.952-1.44-5.3-3.513-7.617l2.915-3.809a9.539,9.539,0,0,1,1.85,4.263l1.289,5.2q.878,2.524,2.354,2.524h7.567a3.364,3.364,0,0,0,2.971-1.687,5.6,5.6,0,0,0,.878-3.092h1.588a5.848,5.848,0,0,0,.841,3.28,3.207,3.207,0,0,0,2.877,1.5h1.943q4.055,0,4.054-1.216,0-.841-2.111-3.7l2.877-3.928a9.778,9.778,0,0,1,2.13,5.945q-.654,3.964-1.794,5.384A7.139,7.139,0,0,1,259.921,533.7ZM222.2,520.247q-3.139,0-5.045,4.537.093.672,2.112,1.251l3.662,1.046q1.962.765,1.962,1.885a21.044,21.044,0,0,1-1.588,6.907,27.292,27.292,0,0,1-13.3,4.057v-5.087c.245.013.5.021.76.021a27.49,27.49,0,0,0,6.091-.858,20.078,20.078,0,0,0,5.792-2.11,13.67,13.67,0,0,0-4.783-1.81,5.373,5.373,0,0,1-3.438-1.81,16.942,16.942,0,0,1,.766-3.734q2.672-9.521,8.352-9.521a7.626,7.626,0,0,1,2.915.635L224.2,520.64A5.8,5.8,0,0,0,222.2,520.247Zm106.045,13.881a2.569,2.569,0,1,1-2.576,2.569,2.568,2.568,0,0,1,2.576-2.569Zm-67.833.614a2.569,2.569,0,1,1-2.577,2.569,2.568,2.568,0,0,1,2.577-2.569Zm-14.223-16.85a2.569,2.569,0,1,1-2.577,2.568A2.568,2.568,0,0,1,246.192,517.892Z" transform="translate(-15.007 -376.067)" fill="#2e3192" fill-rule="evenodd"/>
  </g>
</svg>
