<svg xmlns="http://www.w3.org/2000/svg" width="148" height="77.524" viewBox="0 0 148 77.524">
  <g id="gam_be_gam" data-name="gam be gam" transform="translate(-184 -113.148)">
    <g id="Rectangle_66" data-name="Rectangle 66" transform="translate(184 113.148)" fill="#fff" stroke="#ed1651" stroke-width="1" stroke-dasharray="4">
      <rect width="148" height="77.524" rx="4" stroke="none"/>
      <rect x="0.5" y="0.5" width="147" height="76.524" rx="3.5" fill="none"/>
    </g>
    <g id="Gam_Be_Gam_2" data-name="Gam Be Gam 2" transform="translate(44.299 -176.267)">
      <path id="Shape_5_copy" data-name="Shape 5 copy" d="M276.637,315.288c-.463.841-.869,1.428-1.312,2.1s-.916,1.285-1.358,1.869h0c-1.152,1.519-2.348,2.985-3.533,4.44a6.61,6.61,0,0,1,.93.6,6.788,6.788,0,0,1,1.73,1.985,8.7,8.7,0,0,1,.73,1.632,8.437,8.437,0,0,1,.417,2.688,11.491,11.491,0,0,1-.088,1.387,6.541,6.541,0,0,1-.24,1.11,8.545,8.545,0,0,1-.4,1.05,9.8,9.8,0,0,1-1.077,1.821h0l-.013.017-.006.008h0a12.263,12.263,0,0,1-1.4,1.6,16.5,16.5,0,0,1-6.329,3.782,11.563,11.563,0,0,1-3.453.5c-.368,0-.735-.015-1.1-.041a10.991,10.991,0,0,1-2.3-.411,10.466,10.466,0,0,1-2.159-.908,8.987,8.987,0,0,1-2.239-1.762,9.394,9.394,0,0,1-1.563-2.338,7.939,7.939,0,0,1-.437-1.009,10.776,10.776,0,0,1-.331-1.129,13.023,13.023,0,0,1-.331-2.343c-.027-.558-.04-1.057-.05-1.545-.007-.3-.012-.6-.018-.905a8.176,8.176,0,0,1-.606,1.071,8.575,8.575,0,0,1-1.83,1.96,10.246,10.246,0,0,1-1.521.988,11.679,11.679,0,0,1-2.227.905,13.646,13.646,0,0,1-2.316.458c-.677.076-1.332.122-1.959.179l-.056.005h-.154a15.18,15.18,0,0,1-2.905-.281q-.712-.138-1.406-.341c-.008.238-.016.491-.025.755-.029.973-.052,5.333-.052,6.253,0,.346,0,.665.011.937h0c0,.049,0,.1,0,.148a5.6,5.6,0,0,1-.2,1.481l0,.006c-2.264-.056-6.2-.153-7.429-.173-.009-.057-.018-.114-.026-.169-.028-.223-.041-.431-.049-.621-.009-.253-.008-.476-.012-.65h0c0-.107,0-.237,0-.388,0-.274,0-.613,0-.936s0-3.884,0-4.08v-.111c0-.03,0-.053,0-.062l.016-.169,0,.032v0a.191.191,0,0,0,0-.027c0-.05.007-.142.01-.262.007-.241.013-.6.013-1.034,0-.616-.012-1.392-.049-2.236s-.1-1.757-.194-2.644c-.042-.375-.1-.7-.169-1.054s-.154-.726-.239-1.17h0v-.005l0-.018c0-.015-.007-.034-.012-.055-.01-.041-.021-.09-.031-.126l0-.012-.039-.082-.032-.158c-.061-.3-.4-.915-.425-1.212l6.433-3.455c.225.17.32.521.518.742a4,4,0,0,1,.651.76c.132.192.416.415.551.58a8.328,8.328,0,0,1,1.195-3.806,8.6,8.6,0,0,1,3.3-3.112,9.2,9.2,0,0,1,2.1-.818,8.939,8.939,0,0,1,2.189-.27,9.7,9.7,0,0,1,1.667.147,7.011,7.011,0,0,1,2.368.856,6.8,6.8,0,0,1,1.849,1.605,8.063,8.063,0,0,1,.9,1.4q.173.337.317.682c0-.206,0-.405.006-.6v-.03l0-.03c.01-.166.013-.379.015-.608s0-.475,0-.72c0-.163.006-.326.013-.487.021-.418.054-1.105.033-1.522l7.6.217c.054.127-.041-.077-.04,3.322q0,.363-.011.734c0,.1,0,.211,0,.322,0,.394-.013.835-.026,1.264,0,.115-.007.23-.009.342l-.027.2s-.138,4.911-.109,6.618a.927.927,0,0,0,.08.366c.013.17.03.339.055.511.038.258.09.523.155.809v0a1.489,1.489,0,0,0,.118.333,1.989,1.989,0,0,0,.219.35,2.49,2.49,0,0,0,.706.616,2.563,2.563,0,0,0,.611.259,3.468,3.468,0,0,0,.928.127,3.98,3.98,0,0,0,1.028-.142,6.21,6.21,0,0,0,1.086-.411,8.461,8.461,0,0,0,1.735-1.1,8.22,8.22,0,0,0,1.406-1.495,1.3,1.3,0,0,0,.177-.315.594.594,0,0,0,.04-.21.654.654,0,0,0-.017-.143l0-.016a4.569,4.569,0,0,0-.856.1c-.328.066-.693.159-1.1.25s-.859.2-1.337.284a8.65,8.65,0,0,1-1.542.152l-.173,0a3.265,3.265,0,0,1-.528-.058l-2.682-5.693c.064-.085.563-.531.634-.61q1.246-1.4,2.553-2.749.4-.408.785-.822h-.008a7.5,7.5,0,0,1,.6-.592l-4.67-3.689c.34-.438,3.6-4.659,2.463-3.241l.162-.2.281-.352c.217-.271.481-.6.721-.907.16-.2.309-.4.425-.547.067-.087.122-.161.159-.211l.035-.049a25.746,25.746,0,0,1,1.943-2.52c1.35.884,4.888,3.906,4.888,3.906l.543-.868a4.836,4.836,0,0,1,.434-.543c.115-.107.312-.56.435-.651l5.731,4.283Zm-48.675,21.385Zm-3.33-3.264a9.993,9.993,0,0,1-1.069,1.807h0l-.008.01,0,0h0a10.149,10.149,0,0,1-2.446,2.37,11.468,11.468,0,0,1-3,1.46,4.338,4.338,0,1,1-4.253.409q-.274-.032-.55-.077a7.847,7.847,0,0,1-2.776-1.007,8.594,8.594,0,0,1-2.192-1.9,9.308,9.308,0,0,1-1.1-1.651q-.052-.1-.1-.2a39.838,39.838,0,0,1-3.583,2.79l-4.67-5.1c.119-.186.71-.9.869-1.085a5.987,5.987,0,0,1,.743-.89l.046-.039.037-.026.033-.027.121-.106c.091-.082.191-.174.242-.222l.025-.023c1.446-1.431,2.751-2.728,4.184-4.168.247-.248.5-.534.776-.853s.561-.672.872-1.051l.019-.023.02-.022a4.842,4.842,0,0,1,.59-.558l5.823,2.292v.149c0,.191.005.33.011.486s.013.332.013.551c0,.089,0,.184,0,.289q0,.082,0,.169c0,.329.022.69.047,1.08a13.045,13.045,0,0,0,.161,1.492,6.248,6.248,0,0,0,.374,1.309l0,0,0,0a.616.616,0,0,0,.054.1,1.362,1.362,0,0,0,.123.161,1.989,1.989,0,0,0,.392.337,1.664,1.664,0,0,0,.292.154.9.9,0,0,0,.3.071h.088a2.664,2.664,0,0,0,.491-.046,4.522,4.522,0,0,0,.564-.147l.008,0,.008,0a2.033,2.033,0,0,0,.463-.208,2.231,2.231,0,0,0,.408-.321,3.144,3.144,0,0,0,.662-1.009,4.594,4.594,0,0,0,.277-.915,19.613,19.613,0,0,0,.294-2.71,3.653,3.653,0,0,1,.2-1.013l0-.006c1.58.046,5.688.223,7.238.291a1.959,1.959,0,0,1,.048.209,1.761,1.761,0,0,1,.02.18h0q.035.562.035,1.138a16.8,16.8,0,0,1-.28,3.093,12.864,12.864,0,0,1-.939,3Zm-24.017-18.122c-.462.841-.868,1.428-1.311,2.1s-.916,1.285-1.358,1.869h0c-1.152,1.519-2.348,2.985-3.533,4.44a6.617,6.617,0,0,1,.93.6,6.787,6.787,0,0,1,1.73,1.985,8.687,8.687,0,0,1,.73,1.632,8.433,8.433,0,0,1,.417,2.688,11.447,11.447,0,0,1-.088,1.387,6.535,6.535,0,0,1-.24,1.11,8.632,8.632,0,0,1-.4,1.05,9.817,9.817,0,0,1-1.078,1.821h0l-.013.017-.006.008h0a12.311,12.311,0,0,1-1.4,1.6,16.509,16.509,0,0,1-6.329,3.782,11.566,11.566,0,0,1-3.453.5c-.368,0-.735-.015-1.1-.041a10.982,10.982,0,0,1-2.3-.411,10.436,10.436,0,0,1-2.159-.908,8.972,8.972,0,0,1-2.239-1.762,9.391,9.391,0,0,1-1.564-2.338,7.893,7.893,0,0,1-.437-1.009,10.815,10.815,0,0,1-.331-1.129,13.063,13.063,0,0,1-.331-2.343c-.027-.558-.04-1.057-.05-1.545-.006-.3-.011-.6-.018-.905a8.157,8.157,0,0,1-.605,1.071,8.586,8.586,0,0,1-1.829,1.96,10.28,10.28,0,0,1-1.521.988,11.687,11.687,0,0,1-2.227.905,13.643,13.643,0,0,1-2.316.458c-.678.076-1.332.122-1.959.179l-.056.005h-.154a15.175,15.175,0,0,1-2.905-.281q-.712-.138-1.406-.341c-.008.238-.016.491-.025.755-.029.973-.052,5.333-.052,6.253,0,.346,0,.664.01.937h0q0,.074,0,.148a5.544,5.544,0,0,1-.2,1.481l0,.007c-2.264-.056-6.2-.153-7.429-.173-.009-.057-.019-.114-.026-.169-.028-.223-.041-.431-.048-.621-.009-.253-.008-.476-.012-.65h0c0-.107,0-.237,0-.388,0-.274,0-.613,0-.936s0-3.884,0-4.08v-.111c0-.03,0-.053,0-.062l.016-.169,0,.031v0c0-.005,0-.015,0-.027,0-.05.006-.142.01-.262.007-.241.013-.6.013-1.034,0-.616-.012-1.392-.048-2.236s-.1-1.757-.195-2.645c-.041-.375-.1-.7-.168-1.054s-.154-.726-.239-1.17h0v-.005l0-.018-.012-.055c-.01-.041-.021-.09-.031-.126l0-.012-.039-.082-.032-.158c-.061-.3-.4-.915-.426-1.212l6.433-3.455c.225.17.32.521.517.742a4.008,4.008,0,0,1,.652.76c.131.192.416.415.55.58a8.323,8.323,0,0,1,1.2-3.806,8.6,8.6,0,0,1,3.3-3.112,9.194,9.194,0,0,1,2.1-.818,8.933,8.933,0,0,1,2.189-.27,9.7,9.7,0,0,1,1.667.147,7.011,7.011,0,0,1,2.368.856,6.8,6.8,0,0,1,1.849,1.605,8.078,8.078,0,0,1,.9,1.4q.173.337.317.682c0-.206,0-.405.005-.6v-.03l0-.03c.009-.166.013-.379.015-.608s0-.475,0-.72c0-.163.006-.326.014-.487.02-.418.054-1.105.033-1.522l7.6.217c.054.127-.041-.077-.04,3.322q0,.363-.011.734c0,.1,0,.211,0,.322,0,.394-.013.835-.025,1.264,0,.115-.007.23-.01.342l-.027.2s-.139,4.911-.109,6.619a.922.922,0,0,0,.08.366c.013.17.03.339.055.511.038.258.09.523.154.809v0a1.528,1.528,0,0,0,.118.333,2.007,2.007,0,0,0,.219.35,2.488,2.488,0,0,0,.707.616,2.547,2.547,0,0,0,.611.259,3.469,3.469,0,0,0,.928.127,3.979,3.979,0,0,0,1.028-.142,6.2,6.2,0,0,0,1.086-.411,8.467,8.467,0,0,0,1.734-1.1,8.217,8.217,0,0,0,1.406-1.5,1.3,1.3,0,0,0,.177-.315.6.6,0,0,0,.04-.21.64.64,0,0,0-.017-.143l0-.016a4.568,4.568,0,0,0-.856.1c-.329.066-.693.159-1.1.25s-.859.2-1.337.284a8.666,8.666,0,0,1-1.542.152l-.173,0a3.272,3.272,0,0,1-.528-.058l-2.682-5.693c.064-.085.563-.531.634-.61q1.245-1.4,2.552-2.749.4-.408.785-.822h-.008a7.656,7.656,0,0,1,.6-.592l-4.67-3.689c.339-.438,3.6-4.659,2.463-3.241l.162-.2.282-.352c.217-.271.48-.6.72-.907.16-.2.31-.4.426-.547.066-.087.122-.161.159-.211l.035-.049a25.719,25.719,0,0,1,1.944-2.52c1.349.884,4.887,3.906,4.887,3.906l.543-.868a4.8,4.8,0,0,1,.434-.543c.114-.107.311-.56.434-.651l5.73,4.283ZM151.94,336.673h0Z" fill="#fff" fill-rule="evenodd"/>
      <path id="Shape_6_copy" data-name="Shape 6 copy" d="M291.488,338.594c-1.443,1.9-2.97,3.74-4.474,5.6-.184.227-.165.266.114.342a5.624,5.624,0,0,1,4.013,3.951,7.875,7.875,0,0,1,.271,3.492,7.581,7.581,0,0,1-1.474,3.362,14.627,14.627,0,0,1-7.067,4.91,10.891,10.891,0,0,1-4.062.4,9.255,9.255,0,0,1-3.9-1.153,7.705,7.705,0,0,1-3.256-3.521,10.055,10.055,0,0,1-.965-3.962c-.052-1.08-.049-1.938-.082-3.016-.036-1.184.053-2.372.091-3.557.043-1.355.037-2.853.05-3.988.029-.516.01-1.2.03-1.732l4.9.081c.018.837.046,1.675.02,2.511.024.846-.068,2.347-.039,3.1-.029.868-.118,1.736-.1,2.6.016,1,0,2.2.04,3.205a9.747,9.747,0,0,0,.258,1.824,3.649,3.649,0,0,0,2.608,2.559,5.545,5.545,0,0,0,3.981-.511,9.6,9.6,0,0,0,3.644-3.018,2.06,2.06,0,0,0,.265-2.215.889.889,0,0,0-.794-.582,8.557,8.557,0,0,0-2.6.372,13.48,13.48,0,0,1-2.346.4l-1.9-4.237q1.184-1.327,2.422-2.605a60.023,60.023,0,0,0,8.016-10.036,2.89,2.89,0,0,1,.19-.271l4.128,2.774A19.526,19.526,0,0,1,291.488,338.594Zm-8.932,1.289c-.022.023-.045.044-.067.066l-3.781-3.162c.034-.049.066-.1.1-.146.438-.56,1.118-1.326,1.561-1.882.179-.223,2.127-2.726,2.392-3.117a5.248,5.248,0,0,1,.488-.662c.832.534,3,2.118,3.971,2.83a48.728,48.728,0,0,1-3.407,4.579c-.25.3-.987,1.212-1.26,1.493Zm-17.869,12.581a11.181,11.181,0,0,1-4.064,1.215c-.642.072-1.286.118-1.93.176a14.3,14.3,0,0,1-5.3-1c-.335-.129-.431-.178-.383.185-.056.978-.177,7.685-.13,9.51a4.358,4.358,0,0,1-.031.649l-5-.156c0-.186-.006-.365-.009-.532-.01-.489.013-5.286,0-5.585a43.764,43.764,0,0,0-.213-6.459c-.094-.853-.262-1.49-.424-2.333a3.442,3.442,0,0,0-.126-.47q-.046-.229-.073-.451l4.545-2.31a4.687,4.687,0,0,1,.416.621,6.333,6.333,0,0,0,3.018,2.6c.185.076.183,0,.146-.16a11.747,11.747,0,0,1-.26-1.276,7.088,7.088,0,0,1,3.758-7.09,7.728,7.728,0,0,1,5.1-.8,5.6,5.6,0,0,1,4.158,3.153,8.036,8.036,0,0,1,.625,5.879A7.3,7.3,0,0,1,264.688,352.465Zm-1.087-8.086a1.375,1.375,0,0,0-1.211-.764,3.994,3.994,0,0,0-1.148.255,2.441,2.441,0,0,0-1.395,1.583,1.431,1.431,0,0,0,.867,1.662,5.168,5.168,0,0,0,2.408.254.419.419,0,0,0,.237-.18A2.642,2.642,0,0,0,263.6,344.378ZM236.23,357.948a8.681,8.681,0,0,1-4.16.28,6.688,6.688,0,0,1-4.159-2.448,8.26,8.26,0,0,1-1.575-2.993c-.109-.37-.112-.369-.4-.1-.924.877-1.843,1.759-2.775,2.629a3.046,3.046,0,0,1-.851.56l-3.275-3.481a6.132,6.132,0,0,1,.866-.883c.129-.092.514-.451.574-.51,1.448-1.433,2.757-2.735,4.2-4.179.563-.566,1.114-1.243,1.736-2,.047-.052.094-.1.141-.148.987.432,2.731,1.219,3.956,1.774.007.188.012.381,0,.658-.011.454.019.91.047,1.365a9.685,9.685,0,0,0,.635,3.231,2.957,2.957,0,0,0,2.36,1.656,4.534,4.534,0,0,0,1.594-.255,4.266,4.266,0,0,0,2.733-3.475,20.876,20.876,0,0,0,.318-2.9c0-.056.009-.112.016-.168,1.094.069,3.454.23,4.848.326a12.285,12.285,0,0,1-2.021,7.689A9.351,9.351,0,0,1,236.23,357.948Zm-1.339,2.23a2.994,2.994,0,1,1-3,2.994,2.994,2.994,0,0,1,3-2.994Zm-19.424-21.584c-1.443,1.9-2.97,3.74-4.473,5.6-.184.227-.165.266.114.342a5.625,5.625,0,0,1,4.013,3.951,7.876,7.876,0,0,1,.27,3.492,7.565,7.565,0,0,1-1.474,3.362,14.629,14.629,0,0,1-7.066,4.91,10.891,10.891,0,0,1-4.062.4,9.255,9.255,0,0,1-3.905-1.153,7.7,7.7,0,0,1-3.255-3.521,10.036,10.036,0,0,1-.965-3.962c-.053-1.08-.049-1.938-.083-3.016-.036-1.184.054-2.372.092-3.557.043-1.355.037-2.853.05-3.988.029-.516.009-1.2.03-1.732l4.9.081c.018.837.046,1.675.019,2.511.024.846-.068,2.347-.039,3.1-.029.868-.117,1.736-.1,2.6.016,1,0,2.2.04,3.205a9.752,9.752,0,0,0,.259,1.824,3.648,3.648,0,0,0,2.607,2.559,5.545,5.545,0,0,0,3.981-.511,9.594,9.594,0,0,0,3.644-3.018,2.06,2.06,0,0,0,.265-2.215.887.887,0,0,0-.794-.582,8.562,8.562,0,0,0-2.6.372,13.478,13.478,0,0,1-2.345.4l-1.9-4.238q1.183-1.327,2.422-2.605a59.994,59.994,0,0,0,8.016-10.036,2.971,2.971,0,0,1,.19-.271l4.128,2.774A19.511,19.511,0,0,1,215.466,338.594Zm-8.932,1.289c-.022.023-.045.044-.068.066l-3.78-3.162c.034-.049.066-.1.1-.146.438-.56,1.117-1.326,1.561-1.882.179-.223,2.126-2.726,2.392-3.117a5.256,5.256,0,0,1,.488-.662c.832.534,3,2.118,3.97,2.83a48.669,48.669,0,0,1-3.407,4.579C207.544,338.693,206.808,339.6,206.535,339.883Zm-17.868,12.581a11.181,11.181,0,0,1-4.064,1.214c-.642.072-1.287.118-1.93.176a14.305,14.305,0,0,1-5.3-1c-.335-.129-.431-.178-.382.185-.056.978-.177,7.685-.13,9.51a4.35,4.35,0,0,1-.032.649l-5-.156c-.005-.186-.006-.365-.009-.532-.01-.489.013-5.286.005-5.585a43.93,43.93,0,0,0-.214-6.459c-.093-.853-.261-1.49-.424-2.333a3.415,3.415,0,0,0-.125-.47c-.031-.153-.055-.3-.074-.451l4.545-2.31a4.677,4.677,0,0,1,.416.621,6.329,6.329,0,0,0,3.017,2.6c.185.076.183,0,.146-.16a11.68,11.68,0,0,1-.26-1.276,7.089,7.089,0,0,1,3.758-7.09,7.728,7.728,0,0,1,5.1-.8,5.6,5.6,0,0,1,4.159,3.153,8.036,8.036,0,0,1,.624,5.879A7.3,7.3,0,0,1,188.666,352.465Zm-1.087-8.086a1.375,1.375,0,0,0-1.212-.764,3.991,3.991,0,0,0-1.148.255,2.443,2.443,0,0,0-1.4,1.583,1.431,1.431,0,0,0,.867,1.662,5.166,5.166,0,0,0,2.408.254.417.417,0,0,0,.237-.18A2.641,2.641,0,0,0,187.579,344.378Z" transform="translate(-18.561 -20.178)" fill="#ed1651" fill-rule="evenodd"/>
    </g>
  </g>
</svg>
