<svg width="148" height="78" viewBox="0 0 148 78" fill="none" xmlns="http://www.w3.org/2000/svg">
<g clip-path="url(#clip0_1081_2086)">
<path d="M144 0H4C1.79086 0 0 1.79086 0 4V73.524C0 75.7331 1.79086 77.524 4 77.524H144C146.209 77.524 148 75.7331 148 73.524V4C148 1.79086 146.209 0 144 0Z" fill="white"/>
<path d="M144 0.5H4C2.067 0.5 0.5 2.067 0.5 4V73.524C0.5 75.457 2.067 77.024 4 77.024H144C145.933 77.024 147.5 75.457 147.5 73.524V4C147.5 2.067 145.933 0.5 144 0.5Z" stroke="#004F84" stroke-dasharray="4 4"/>
<path d="M54.1044 48.7643C54.1846 48.5438 54.2347 48.3934 54.2848 48.243C55.2572 45.1856 57.222 42.9902 60.0288 41.5066C60.3396 41.3362 60.6604 41.1457 61.0313 41.4665C61.1516 41.5667 61.4423 41.4865 61.6628 41.4665C63.6577 41.3161 65.6526 41.1658 67.6474 41.0154C68.0384 40.9853 68.1687 40.7949 68.2088 40.4039C68.299 39.221 67.6675 38.3689 66.9758 37.5469C66.645 37.156 66.5448 36.8151 66.6851 36.3239C67.0961 34.8604 67.7778 33.6173 69.1411 32.8154C69.522 32.5848 70.0533 32.7151 70.2839 33.1562C70.4142 33.4068 70.5245 33.6775 70.5846 33.9481C70.8854 35.2914 71.2262 36.6247 71.4367 37.988C71.5971 39.0005 71.136 39.9528 70.7651 40.875C70.1636 42.3887 69.4619 43.8724 68.0384 44.7946C67.4169 45.1956 66.6851 45.4262 66.0034 45.7068C65.7127 45.8271 65.3919 45.8773 65.1012 45.9976C64.7203 46.1479 64.4095 46.178 63.9685 46.0176C63.5174 45.8572 62.946 45.9775 62.4447 46.0377C61.5325 46.1479 60.6303 46.3083 59.7181 46.4386C58.2846 46.6492 57.1318 47.411 55.8386 48.3232C56.5904 48.9247 57.242 49.446 57.8936 49.9673C58.4951 50.4585 59.1166 50.9296 59.698 51.4409C59.7983 51.5311 59.8183 51.7817 59.7983 51.9521C59.7381 52.5035 59.698 53.0748 59.5376 53.6061C59.277 54.4382 58.9662 55.2702 58.5552 56.0321C58.4349 56.2526 57.8836 56.3529 57.5528 56.3128C55.979 56.1423 54.6958 55.3003 53.4127 54.4382C52.0894 53.536 50.9066 52.5035 49.9843 51.1902C49.7036 50.7792 49.4029 50.3582 49.2325 49.8971C48.8515 48.8545 48.22 47.8822 48.2701 46.7193C48.2902 46.3183 48.4205 45.9174 48.5107 45.5164C48.5308 45.4061 48.5608 45.3059 48.5809 45.1956L48.4706 45.0853C48.3202 45.1956 48.1298 45.2858 48.0295 45.4362C47.7789 45.7971 47.4581 45.9875 47.0171 45.9875C45.4131 45.9775 43.8192 46.0076 42.2254 45.9174C41.7642 45.8973 41.243 45.6467 40.872 45.346C39.2481 44.0127 38.4361 42.2484 38.3459 40.1633C38.2757 38.419 38.2958 36.6547 38.1554 34.9205C38.0451 33.5672 37.7244 32.2239 37.5138 30.8706C37.3835 30.0185 37.3134 29.1464 37.163 28.2943C37.0427 27.5726 36.8623 26.8608 36.6718 26.1591C36.3911 25.1466 36.9525 23.4525 37.8246 22.851C38.416 22.44 39.0275 22.0691 39.6491 21.7082C39.7593 21.6381 39.9598 21.7082 40.1102 21.7283C40.1703 21.7383 40.2305 21.7684 40.2906 21.7784C40.9623 21.7884 41.0725 21.8686 41.1126 22.5002C41.1928 23.8835 41.3131 25.2669 41.3231 26.6503C41.3432 29.7579 41.273 32.8555 41.2931 35.963C41.3031 37.2662 41.4134 38.5594 41.5337 39.8626C41.5537 40.0631 41.8544 40.3337 42.075 40.4039C43.3581 40.8049 44.6914 40.9352 46.0347 40.875C46.9569 40.8349 46.9068 40.8249 46.997 39.9127C47.0973 38.9403 47.3278 37.978 47.4581 37.0056C47.6987 35.3014 48.1899 33.6574 48.8816 32.0936C49.1322 31.5222 49.5533 30.9809 50.0244 30.5598C50.6259 30.0286 51.3075 30.0887 51.7687 30.7403C52.5105 31.7828 53.2924 32.8354 53.7936 33.9982C54.3951 35.3917 54.7359 36.8953 55.177 38.3589C55.2572 38.6095 55.2472 38.8902 55.2772 39.1508C55.3474 39.7323 55.3173 40.2936 55.4978 40.8951C55.7484 41.7071 55.2472 42.4689 54.8863 43.2007C54.6557 43.6719 54.3149 44.0127 53.7535 44.0829C53.6031 44.1029 53.4428 44.2032 53.3124 44.3034C52.9816 44.544 52.711 44.7445 52.2097 44.6643C51.7085 44.5841 51.1471 44.8648 50.6158 45.0252C50.5657 45.0352 50.5457 45.3861 50.6259 45.5164C51.1772 46.3785 51.8288 47.1604 52.6909 47.7418C53.152 48.0426 53.5931 48.3934 54.1044 48.7643ZM48.9919 40.7748C50.4956 40.5743 51.889 40.4039 53.2824 40.2034C53.6332 40.1533 53.6733 39.8225 53.5229 39.5719C52.8513 38.389 52.1596 37.2161 51.4379 36.0633C51.2273 35.7325 50.6559 35.6824 50.3552 35.933C50.1046 36.1435 49.8941 36.4041 49.7136 36.6848C48.9618 37.9078 49.3026 39.3112 48.9919 40.7748ZM54.5956 49.2054C54.6657 49.2254 54.7359 49.2555 54.8061 49.2756C55.3474 48.5939 55.3173 47.7117 55.588 46.9399C55.5479 46.9298 55.5078 46.9098 55.4677 46.8998C55.177 47.6616 54.8863 48.4335 54.5956 49.2054ZM39.8796 24.495C39.9197 24.475 39.9598 24.465 40.0099 24.4449C39.9197 24.2043 39.8295 23.9637 39.7092 23.7332C39.6992 23.7131 39.3483 23.7933 39.3082 23.8936C39.2381 24.064 39.2882 24.2845 39.2882 24.485L39.4686 24.5752C39.5288 24.4249 39.5989 24.2845 39.6892 24.074C39.7894 24.3146 39.8395 24.4048 39.8796 24.495ZM55.1469 52.2328C55.0968 52.313 55.0467 52.3832 54.9965 52.4634C55.4376 52.7039 55.8787 52.9445 56.3198 53.1951C56.3499 53.145 56.3799 53.0949 56.41 53.0448C55.989 52.7641 55.5679 52.4934 55.1469 52.2328ZM69.5822 39.4816C69.5321 39.4616 69.4819 39.4516 69.4218 39.4315C69.2915 39.7724 69.1712 40.1132 69.0008 40.5543C69.6523 40.2936 69.5321 39.8525 69.5822 39.4816Z" fill="#ED1C24"/>
<path d="M103.385 21.8585C103.234 22.2394 103.104 22.6203 102.934 22.9812C102.703 23.4524 102.422 23.9035 102.172 24.3746C102.042 24.6252 101.921 24.8859 101.811 25.1365C101.36 26.179 100.608 26.7203 99.4552 26.9609C96.5782 27.5624 93.8114 28.5448 91.1148 29.7377C90.6938 29.9282 90.2628 30.0886 89.8417 30.3492C90.6738 30.2089 91.185 30.7702 91.7664 31.1411C92.5383 31.6323 93.3202 32.1135 94.0821 32.6248C95.265 33.4167 96.4779 34.1886 97.6207 35.0407C99.6657 36.5844 101.4 38.469 103.124 40.3536C103.144 40.3737 103.174 40.4038 103.184 40.4338C103.555 41.3461 104.347 41.5165 105.209 41.5967C106.944 41.7771 108.668 41.8272 110.382 41.3561C110.763 41.2558 111.174 41.2157 111.565 41.1857C111.886 41.1556 112.046 41.0153 111.986 40.7045C111.916 40.2935 111.896 39.8324 111.685 39.5116C111.254 38.85 110.703 38.2685 110.222 37.637C110.101 37.4766 109.991 37.226 110.021 37.0456C110.322 35.582 111.214 34.5394 112.457 33.7876C113.058 33.4167 113.88 33.7174 114.161 34.379C114.813 35.9328 115.144 37.5468 114.873 39.2209C114.542 41.306 113.77 43.2307 112.317 44.8246C111.775 45.416 111.104 45.7969 110.332 46.0275C109.359 46.3082 108.407 46.7693 107.425 46.9097C106.232 47.0801 104.989 47.06 103.776 46.9798C103.335 46.9498 102.914 46.5287 102.483 46.2881C102.453 46.2681 102.422 46.238 102.422 46.2079C102.503 45.4762 101.821 45.3057 101.44 44.9749C100.217 43.9324 99.0342 42.8598 98.0618 41.5766C97.5706 40.925 96.9491 40.3637 96.3677 39.7321C96.3576 39.8023 96.2875 39.9627 96.3376 40.0529C96.7887 40.8649 96.4178 41.6167 96.1672 42.3585C95.6058 44.0627 94.4831 45.1554 92.7188 45.6766C90.8742 46.218 89.0498 46.8094 87.085 46.649C83.9874 46.3884 80.8999 46.1177 77.8023 45.9473C75.6871 45.837 73.2913 43.1805 74.0231 40.5642C74.384 39.271 74.6847 37.9478 75.1258 36.6747C75.4165 35.8326 75.8876 35.0507 76.3087 34.2688C76.3889 34.1184 76.6094 34.0482 76.7598 33.948C76.8801 34.1886 77.0405 34.4091 77.1206 34.6597C77.1607 34.8001 77.0605 34.9805 77.0004 35.1409C76.3889 36.8952 76.6194 38.5693 77.4013 40.2033C77.8625 41.1656 78.7947 41.3862 79.707 41.6067C81.2507 41.9776 82.8246 41.8874 84.3984 41.7771C86.1427 41.6568 87.897 41.5065 89.6412 41.326C91.2652 41.1556 92.8892 40.925 94.5031 40.7246C94.9141 40.6744 94.9843 40.494 94.8439 40.1131C94.4029 38.87 93.8916 37.6671 92.7789 36.8751C92.1875 36.4541 91.5058 36.1534 90.8742 35.7825C89.942 35.2311 89.0297 34.6497 88.0975 34.0984C87.9772 34.0282 87.7867 34.0883 87.5361 34.0883C87.5361 33.7876 87.5261 33.4668 87.5361 33.146C87.5662 32.2338 87.5461 31.3116 87.6363 30.3993C87.7967 28.6851 88.4483 27.3218 90.0923 26.4497C92.7388 25.0463 95.5457 24.0037 98.3124 22.891C99.7359 22.3196 101.209 21.8785 102.773 21.7983C102.894 21.7883 103.004 21.7783 103.124 21.7783C103.184 21.7682 103.224 21.7983 103.385 21.8585Z" fill="#ED1C24"/>
<path d="M27.4593 53.9667C27.5094 53.5957 27.5495 53.3251 27.5896 53.0444C26.8578 53.2048 26.1461 53.3652 25.4344 53.5055C23.5397 53.8764 21.6551 53.5556 19.8207 53.1547C18.4172 52.8539 17.0138 52.4028 15.6906 51.8314C14.3573 51.25 13.5954 50.1874 13.5754 48.6136C13.5453 46.3982 13.8761 44.303 14.9387 42.3082C15.6605 40.9549 16.673 40.173 18.1967 40.1629C20.3921 40.1429 22.5974 40.1429 24.8028 40.183C27.4292 40.2331 30.0456 40.1329 32.642 39.6918C33.3236 39.5715 33.5041 39.3108 33.2134 38.6994C32.8324 37.8773 32.4014 37.0654 31.9403 36.2835C31.7197 35.9025 31.6596 35.5817 31.7598 35.1607C32.0906 33.8375 32.9527 32.9152 33.9351 32.0631C34.2258 31.8125 35.088 31.8827 35.4087 32.1534C35.94 32.5944 36.1305 33.226 36.2909 33.8575C36.9224 36.4037 36.3811 38.7495 35.1581 41.025C34.3862 42.4686 33.4941 43.7617 32.0004 44.5336C31.1183 44.9947 30.206 45.2955 29.1835 45.2854C27.8001 45.2854 26.4067 45.4659 25.0334 45.3857C23.1388 45.2754 21.2542 45.0048 19.3696 44.7942C18.4774 44.694 17.5852 44.4735 16.693 44.4534C15.4801 44.4233 15.4199 44.6038 15.8911 45.6664C16.4123 46.8493 17.3947 47.4608 18.5876 47.7815C19.4898 48.0221 20.3921 48.2527 21.3043 48.4131C22.6877 48.6637 24.0911 48.6737 25.4945 48.5434C26.3566 48.4632 27.2288 48.4732 28.0909 48.4632C28.5219 48.4632 29.0733 48.9344 29.1635 49.3855C29.4843 51.1297 28.8627 52.5833 27.73 53.8764C27.6999 53.8664 27.6197 53.8865 27.4593 53.9667Z" fill="#ED1C24"/>
<path d="M118.011 23.3126C118.802 23.2524 118.913 23.3527 118.993 24.1245C119.354 27.7233 119.294 31.3321 119.193 34.9309C119.163 36.0938 119.083 37.2666 119.013 38.4295C118.913 40.0334 119.805 41.086 120.988 41.9782C121.098 42.0584 121.268 42.1085 121.409 42.1085C122.692 42.0684 123.965 42.0183 125.248 41.9581C125.579 41.9381 125.92 41.918 126.231 41.8178C126.702 41.6674 127.153 41.4569 127.594 41.2263C127.674 41.1862 127.744 40.9356 127.704 40.8354C127.313 39.8931 126.902 38.9608 126.05 38.3192C125.649 38.0185 125.659 37.5674 125.759 37.1263C126.06 35.763 126.862 34.7405 128.015 34.0187C128.346 33.8182 128.797 33.8082 129.198 33.7481C129.288 33.738 129.428 33.8583 129.509 33.9485C130.21 34.7806 130.651 35.773 130.671 36.8256C130.732 39.4319 130.411 41.9581 128.847 44.1936C127.845 45.617 126.481 46.409 124.877 46.8902C124.276 47.0706 123.644 47.2009 123.023 47.3212C120.988 47.7322 119.163 47.3012 117.69 45.7975C116.918 45.0056 116.517 43.9831 116.346 42.9004C116.156 41.6874 115.986 40.4645 115.915 39.2415C115.795 37.1764 115.775 35.1014 115.705 33.0363C115.665 31.8534 115.725 30.6605 115.575 29.4876C115.474 28.7158 115.184 27.9338 114.803 27.2422C114.482 26.6607 114.452 26.1896 114.652 25.5681C115.063 24.305 115.986 23.5832 117.078 22.9918C117.409 22.8113 117.75 22.6509 118.161 22.4404C118.111 22.7813 118.061 23.0419 118.011 23.3126ZM116.978 34.1891C117.008 34.1891 117.048 34.1992 117.078 34.1992V31.5828H116.978V34.1891Z" fill="#ED1C24"/>
<path d="M137.428 44.2531C136.536 45.9172 135.684 47.5912 134.741 49.2252C133.809 50.8392 132.897 52.4832 131.584 53.9568C131.323 53.4054 131.403 53.0345 131.614 52.6536C132.767 50.5585 133.899 48.4333 135.092 46.3582C136.185 44.4436 137.177 42.4788 137.438 40.2633C137.809 37.1257 137.598 34.0482 136.425 31.0609C135.814 29.5171 135.072 28.0836 133.899 26.9007C133.468 26.4696 133.258 25.9584 133.528 25.3569C133.889 24.575 134.25 23.7931 134.631 23.0212C134.842 22.5902 135.263 22.4498 135.644 22.6503C136.215 22.941 136.806 23.2618 137.247 23.7029C138.611 25.0762 139.252 26.8305 139.633 28.6851C140.546 33.0958 140.014 37.3863 138.46 41.5665C138.41 41.6868 138.37 41.8171 138.32 41.9775C138.811 41.8171 138.781 42.1379 138.721 42.4086C138.531 43.2506 138.37 44.1127 138.08 44.9247C137.127 47.6113 135.674 50.0472 134.14 52.4331C133.328 53.6962 132.506 54.9492 131.674 56.2023C131.483 56.483 131.263 56.7436 131.052 57.0143C131.002 56.9942 130.952 56.9742 130.902 56.9541C130.932 56.7636 130.952 56.5632 131.002 56.3727C131.473 54.859 132.356 53.5558 133.178 52.2226C134.25 50.4883 135.323 48.7641 136.345 47.0098C136.746 46.3282 137.007 45.5563 137.318 44.8245C137.388 44.6541 137.418 44.4536 137.468 44.2731C137.468 44.2631 137.448 44.2531 137.428 44.2531Z" fill="#ED1C24"/>
<path d="M7.01938 41.3858C6.76877 34.7897 8.96413 28.9654 12.7133 23.6525C13.1443 23.051 13.7258 22.5498 14.2671 22.0285C14.3774 21.9283 14.5979 21.9483 14.7683 21.9082C14.7984 22.0686 14.8886 22.239 14.8485 22.3693C14.6981 22.8204 14.5778 23.3116 14.3172 23.7026C13.5854 24.7953 12.7935 25.8478 12.0116 26.9104C10.6482 28.7549 9.70594 30.7899 9.4854 33.0755C9.33504 34.7295 9.35509 36.4036 9.33504 38.0677C9.30496 40.0124 9.59567 41.9271 10.0568 43.8017C10.3976 45.1951 10.8588 46.5484 11.2798 47.9217C11.4602 48.5132 11.6407 49.1046 11.8211 49.6961C12.0116 50.3577 11.7509 50.9491 11.5104 51.5306C11.4001 51.7912 11.2597 52.0418 11.1194 52.2824C10.7385 52.9641 10.2272 53.1044 9.72599 52.513C9.20472 51.9115 8.74359 51.1897 8.45288 50.4479C7.5206 48.1222 7.16975 45.6562 7.03943 43.1601C6.98931 42.5887 7.01938 41.9873 7.01938 41.3858Z" fill="#ED1C24"/>
<path d="M120.747 51.4409C120.326 51.471 120.326 51.2204 120.406 50.8595C120.667 49.6265 121.449 48.8947 122.491 48.9448C122.642 48.9548 122.812 48.9649 122.922 49.045C123.424 49.3959 123.945 49.3458 124.506 49.2155C125.439 48.9949 125.689 49.1653 125.85 50.1177C126.09 51.501 125.85 52.7942 125.168 54.0172C124.777 54.7189 124.206 55.0297 123.454 55.0096C122.812 54.9896 122.1 55.1199 121.659 54.4382C121.629 54.3881 121.509 54.3981 121.429 54.3881C120.827 54.2778 120.527 53.9971 120.537 53.3756C120.537 52.7641 120.657 52.1426 120.747 51.4409Z" fill="#ED1C24"/>
<path d="M36.2608 50.1977C36.3911 48.7241 37.4136 47.6414 38.8972 47.7417C39.0877 47.7517 39.2982 47.7116 39.4887 47.6715C40.2806 47.5211 40.8119 47.8018 41.263 48.4534C42.2153 49.8468 41.7141 51.17 41.1127 52.4732C40.5212 53.7664 39.7493 54.1473 38.3359 53.997C38.2858 53.9869 38.2256 53.997 38.1855 53.9769C37.7043 53.6361 37.143 53.3554 36.752 52.9243C36.2708 52.393 36.6016 51.7114 36.6818 51.0999C36.7219 50.8092 36.8522 50.5385 36.9525 50.2077C36.6919 50.1977 36.4813 50.1977 36.2608 50.1977Z" fill="#ED1C24"/>
<path d="M108.868 31.6224C108.768 32.9356 108.237 34.0182 107.485 35.0207C107.254 35.3214 106.362 35.4116 105.981 35.2813C105.73 35.1911 105.43 35.2212 105.149 35.2212C104.117 35.2111 103.886 35.0307 103.575 34.0583C103.405 33.517 103.405 32.9556 103.325 32.4143C103.194 31.5622 103.455 30.9407 103.936 30.3392C104.026 30.2189 104.187 30.0987 104.337 30.0786C105.41 29.9182 106.482 29.7678 107.555 29.6576C107.695 29.6475 107.876 29.8581 108.006 29.9984C108.217 30.2189 108.447 30.4295 108.577 30.7001C108.718 30.9708 108.768 31.3016 108.868 31.6224Z" fill="#ED1C24"/>
<path d="M30.6271 50.0674C30.7173 49.7867 30.8276 49.506 30.9078 49.2153C31.1884 48.2228 31.9202 47.862 32.8525 47.8018C33.2535 47.7717 33.6545 47.7717 34.0555 47.7617C35.3787 47.7617 35.7496 48.0725 35.8899 49.3857C36.0403 50.729 35.5691 51.9119 34.8474 52.9945C34.7471 53.1549 34.4163 53.1549 34.1858 53.2351C33.2936 53.5559 32.3914 53.7864 31.4792 53.3053C31.0782 53.0947 30.8175 52.774 30.8075 52.3229C30.7875 51.7715 30.8476 51.2302 30.8576 50.6788C30.8576 50.4683 30.7975 50.2678 30.7674 50.0573C30.7173 50.0674 30.6772 50.0674 30.6271 50.0674Z" fill="#ED1C24"/>
<path d="M62.0638 36.2135C62.0939 35.8927 62.124 35.6421 62.144 35.4516C61.5125 35.5118 60.891 35.612 60.2795 35.612C59.4073 35.602 58.8961 35.0607 58.866 34.1885C58.856 33.8778 58.876 33.557 58.9161 33.2462C58.9462 32.9555 59.0264 32.6748 59.0966 32.334C58.8359 32.3841 58.6254 32.4142 58.4249 32.4443C58.4851 30.9105 59.3372 30.0584 60.7807 30.0284C61.1917 30.0183 61.6227 30.0484 62.0237 29.9482C62.7254 29.7677 63.4472 30.3091 63.6176 30.9807C64.0988 32.9154 63.5474 34.5895 62.3144 36.0832C62.2743 36.1233 62.2042 36.1433 62.0638 36.2135Z" fill="#ED1C24"/>
<path d="M48.9919 40.7765C49.3127 39.3129 48.9618 37.9095 49.7237 36.6865C49.8941 36.4058 50.1146 36.1452 50.3652 35.9347C50.666 35.6841 51.2374 35.7242 51.4479 36.065C52.1696 37.2178 52.8613 38.3907 53.533 39.5736C53.6733 39.8242 53.6432 40.155 53.2924 40.2051C51.889 40.4056 50.4956 40.576 48.9919 40.7765Z" fill="white"/>
<path d="M54.5956 49.206C54.8863 48.4341 55.177 47.6723 55.4677 46.9004C55.5078 46.9104 55.5479 46.9305 55.588 46.9405C55.3173 47.7124 55.3474 48.5945 54.8061 49.2762C54.7359 49.2461 54.6658 49.2261 54.5956 49.206Z" fill="white"/>
<path d="M39.8797 24.4961C39.8396 24.4059 39.7894 24.3157 39.6892 24.0851C39.599 24.2956 39.5288 24.446 39.4687 24.5864L39.2882 24.4961C39.2882 24.2957 39.2381 24.0751 39.3083 23.9047C39.3484 23.8044 39.6992 23.7243 39.7092 23.7443C39.8295 23.9648 39.9097 24.2155 40.01 24.456C39.9599 24.4661 39.9198 24.4761 39.8797 24.4961Z" fill="white"/>
<path d="M55.1469 52.2334C55.568 52.5041 55.989 52.7747 56.41 53.0454C56.38 53.0955 56.3499 53.1456 56.3198 53.1957C55.8787 52.9552 55.4377 52.7146 54.9966 52.464C55.0467 52.3838 55.0968 52.3036 55.1469 52.2334Z" fill="white"/>
<path d="M69.5822 39.4827C69.5321 39.8536 69.6524 40.2947 69.0108 40.5554C69.1712 40.1243 69.3015 39.7734 69.4318 39.4326C69.482 39.4527 69.5321 39.4727 69.5822 39.4827Z" fill="white"/>
<path d="M116.978 34.1894V31.583H117.078V34.1994C117.048 34.1994 117.018 34.1994 116.978 34.1894Z" fill="white"/>
<path d="M94.864 51.2916C94.7738 51.9733 94.6535 52.6549 94.5833 53.3466C94.5131 54.0584 94.4329 54.7801 94.473 55.4919C94.5231 56.384 95.2449 56.6848 95.9968 56.1735C96.3376 55.943 96.6784 55.6924 97.0192 55.4618C96.9992 55.4117 96.9792 55.3615 96.9491 55.3214C96.4378 55.2112 95.9366 55.0909 95.3652 54.9706C95.5156 54.2488 95.7662 53.6073 96.2373 53.0659C96.3977 52.8755 96.5882 52.7051 96.7686 52.5346C97.2197 52.0735 97.721 51.6525 97.8814 50.9808C97.9215 50.8104 98.0919 50.6701 98.2623 50.4395C98.3024 50.9207 98.3325 51.2916 98.3826 51.7928C98.6532 51.5923 98.7836 51.4921 98.9139 51.4019C99.4853 51.0109 100.047 50.62 100.638 50.2491C100.758 50.1689 101.009 50.1187 101.079 50.1789C101.189 50.2892 101.29 50.5197 101.25 50.6601C101.119 51.1112 100.929 51.5522 100.728 52.0735C99.8963 51.4219 99.365 51.7628 98.8838 52.3843C98.6633 52.665 98.4127 52.9156 98.0016 52.6549C97.9215 52.6048 97.731 52.6048 97.6608 52.665C97.1897 53.076 96.7386 53.517 96.2774 53.9481C96.3075 54.0082 96.3276 54.0684 96.3576 54.1285C96.6784 54.1686 96.9992 54.2288 97.32 54.2388C97.6809 54.2488 97.7811 54.4092 97.7611 54.74C97.7109 55.6723 96.6082 57.176 95.7261 57.4968C94.884 57.7975 93.7613 57.0356 93.7914 56.1535C93.8114 55.4618 93.9217 54.7601 93.9919 54.0684C94.032 53.6373 94.072 53.2063 94.1121 52.7752C94.1623 52.2038 94.2625 51.6625 94.6936 51.2415C94.7337 51.2615 94.8038 51.2816 94.864 51.2916Z" fill="#00A651"/>
<path d="M75.246 51.7223C75.0656 52.1333 74.9152 52.5644 74.7047 52.9553C74.5243 53.2962 74.2837 53.5969 74.0631 53.9077C73.2712 55.0204 73.3213 56.5942 74.1734 57.6268C74.5844 58.128 75.3663 58.1881 76.048 57.7671C76.2284 57.6568 76.4189 57.5365 76.5994 57.4263C77.5016 56.8849 77.7923 55.9827 77.281 55.0705C77.1407 54.8099 76.8099 54.6094 76.5191 54.4991C76.1683 54.3688 76.0881 54.2084 76.1883 53.8676C76.4189 53.1157 76.7196 52.394 77.291 51.8125C77.7822 51.3113 77.8023 51.161 77.4414 50.5495C77.2209 50.1786 76.9302 49.8177 77.0705 49.3566C77.1306 49.146 77.291 48.9756 77.4113 48.7852C77.5717 48.9155 77.7522 49.0257 77.8825 49.1761C78.4439 49.8077 78.5341 50.5194 78.1531 51.2612C77.8524 51.8326 77.5216 52.3839 77.1607 52.9253C76.9703 53.206 76.8099 53.4064 77.2309 53.627C78.1832 54.1282 78.3937 54.5693 78.1431 55.6118C77.8825 56.6845 77.3412 57.6268 76.6294 58.4588C76.0079 59.1705 75.1358 59.2106 74.3238 59.0001C73.3614 58.7595 72.8201 57.9475 72.8101 56.9852C72.79 55.682 73.201 54.4891 73.8727 53.3864C74.2436 52.7849 74.6746 52.2135 75.0856 51.6321C75.1458 51.6722 75.1959 51.6923 75.246 51.7223Z" fill="#00A651"/>
<path d="M92.6085 51.0215C92.8591 52.7056 92.6385 54.3897 91.6962 55.9134C91.4757 56.2743 91.205 56.6452 90.8843 56.9059C89.9319 57.6577 88.8593 57.4672 87.8468 57.0963C86.7642 56.7054 86.5236 55.7129 86.5737 54.7205C86.6439 53.4173 87.2654 52.3146 88.0974 51.252C88.1476 51.7733 87.9571 52.2745 87.5561 52.8159C86.8544 53.7682 87.4358 55.8433 88.5586 56.2442C88.8794 56.3545 89.2703 56.4046 89.5911 56.3244C91.0647 55.9736 92.3779 55.1415 91.9469 53.3271C91.7764 52.6354 92.1574 51.4926 92.6085 51.0215Z" fill="#00A651"/>
<path d="M80.8197 48.2842C80.6493 49.4169 80.4789 50.4595 80.3485 51.5121C80.2884 52.0534 80.2683 52.6148 80.3285 53.1561C80.4087 53.8778 80.8698 54.0382 81.4412 53.5771C81.6016 53.4568 81.772 53.3365 81.8923 53.1862C82.2833 52.7351 82.7444 52.9155 83.1855 53.0358C83.2957 53.0659 83.4361 53.3064 83.416 53.4167C83.3358 53.8077 83.1955 54.1986 83.0752 54.5796C82.9449 54.5395 82.8948 54.5395 82.8847 54.5194C82.5238 53.8077 82.4236 53.7876 81.8121 54.3089C81.7018 54.4091 81.5815 54.4994 81.4713 54.5996C81.0502 54.9605 80.3185 55.0106 79.9075 54.6598C79.7671 54.5395 79.6368 54.3289 79.6368 54.1585C79.5867 52.2238 79.7771 50.3292 80.6392 48.5548C80.6693 48.4847 80.7194 48.4245 80.8197 48.2842Z" fill="#00A651"/>
<path d="M112.016 56.6951C112.176 56.4244 112.307 56.1337 112.507 55.8931C112.848 55.4821 113.269 55.1413 113.6 54.7303C113.77 54.5298 113.85 54.2391 113.91 53.9684C113.981 53.6777 113.86 53.4371 113.52 53.387C113.149 53.3369 113.038 53.0863 113.129 52.7755C113.269 52.3344 113.409 51.8733 113.67 51.5024C113.79 51.332 114.201 51.2818 114.462 51.332C114.602 51.362 114.773 51.7029 114.773 51.8933C114.722 53.7078 114.061 55.2616 112.718 56.5146C112.567 56.655 112.377 56.7352 112.206 56.8454C112.146 56.8053 112.086 56.7452 112.016 56.6951Z" fill="#00A651"/>
<path d="M106.553 57.7774C106.773 57.3563 106.954 56.8952 107.234 56.5043C107.665 55.9028 108.177 55.3514 108.638 54.77C108.888 54.4593 109.089 54.1084 109.329 53.7876C109.57 53.4668 109.811 53.2062 110.322 53.3766C110.733 53.517 110.913 53.136 111.003 52.7651C111.094 52.3742 111.214 51.9932 111.324 51.6123C111.384 51.6223 111.455 51.6223 111.515 51.6324C111.555 51.8328 111.695 52.0634 111.635 52.2238C111.374 52.9355 111.064 53.6272 110.753 54.3189C110.713 54.4091 110.482 54.4893 110.372 54.4693C109.71 54.2888 109.319 54.6898 108.978 55.1309C108.598 55.6321 108.297 56.1935 107.916 56.7047C107.585 57.1458 107.204 57.5468 106.843 57.9678C106.743 57.8977 106.653 57.8375 106.553 57.7774Z" fill="#00A651"/>
<path d="M105.801 53.1963C105.67 53.5171 105.54 53.8479 105.4 54.1687C105.269 54.4695 105.089 54.8203 105.45 55.0108C105.64 55.111 106.001 55.0308 106.212 54.9105C106.532 54.7301 106.553 54.4093 106.352 54.0885C106.162 53.7778 105.991 53.4369 106.342 53.1462C106.462 53.046 106.763 53.0259 106.913 53.1061C107.294 53.2966 107.304 53.6775 107.194 54.0184C107.024 54.5196 106.843 55.0308 106.593 55.492C106.182 56.2438 105.47 56.4142 104.728 55.9631C104.608 55.8929 104.487 55.6523 104.518 55.512C104.658 54.6098 105.079 53.8379 105.66 53.1462C105.7 53.1562 105.751 53.1763 105.801 53.1963Z" fill="#00A651"/>
<path d="M103.315 48.3348C103.305 48.6255 103.295 48.9162 103.275 49.2069C103.224 50.1392 103.224 51.0714 103.104 51.9937C103.034 52.525 102.763 53.0162 102.493 53.5074C102.673 51.7631 102.182 49.9287 103.154 48.3047C103.214 48.3247 103.265 48.3348 103.315 48.3348Z" fill="#00A651"/>
<path d="M81.0503 58.3892C80.6192 57.4469 80.3786 57.3968 79.7371 58.0584C79.0253 57.7577 78.8449 57.477 79.0654 57.056C79.286 56.6249 79.3962 56.6349 80.3285 57.1261C80.5089 56.6149 80.8698 56.4946 81.3109 56.7953C81.4412 56.8855 81.5715 57.1261 81.5314 57.2564C81.4212 57.6273 81.2307 57.9782 81.0503 58.3892Z" fill="#00A651"/>
<path d="M110.061 51.5625C109.349 51.0312 109.349 51.0412 108.928 51.793C108.858 51.9234 108.608 52.1138 108.567 52.0938C108.377 51.9635 108.116 51.793 108.076 51.5926C107.976 51.0813 108.287 50.8708 108.818 50.9109C108.999 50.9209 109.249 50.6803 109.389 50.4899C109.55 50.2793 109.6 49.9485 109.961 50.139C110.272 50.3094 110.602 50.4899 110.342 50.941C110.242 51.1314 110.161 51.3319 110.061 51.5625Z" fill="#00A651"/>
<path d="M85.5513 51.1113C84.7493 52.5148 83.9574 53.9282 83.1053 55.4219C83.1253 54.3392 84.7493 51.402 85.5513 51.1113Z" fill="#00A651"/>
<path d="M110.582 57.8581C110.302 57.6275 110.111 57.4571 109.891 57.2667C109.7 57.5874 109.55 57.8481 109.399 58.0987C108.768 57.798 108.718 57.7077 108.918 57.2366C109.209 56.565 109.61 57.1363 109.981 57.1063C110.121 56.8857 110.282 56.6552 110.462 56.3945C110.663 56.4948 110.833 56.585 111.074 56.7053C110.913 57.0862 110.753 57.4571 110.582 57.8581Z" fill="#00A651"/>
<path d="M90.0923 54.0282C89.8718 53.8277 89.6412 53.6472 89.4407 53.4367C89.1099 53.1059 89.3705 52.8152 89.541 52.5446C89.7214 52.2538 89.9119 52.4844 90.0823 52.5947C90.6838 53.0057 90.6938 53.2964 90.0923 54.0282Z" fill="#00A651"/>
<path d="M97.7511 48.8153C96.9591 48.2238 96.8589 47.9432 97.1696 47.4319C97.32 47.1813 97.4603 47.1612 97.6909 47.3216C98.2924 47.7427 98.3124 47.9632 97.7511 48.8153Z" fill="#00A651"/>
<path d="M83.9273 50.6102C83.7869 50.1991 83.3358 49.8583 83.6165 49.3471C83.7068 49.1867 83.8972 48.9561 84.0175 48.9661C84.3383 49.0163 84.5689 49.2568 84.4887 49.6077C84.3984 49.9686 84.218 50.2994 84.0777 50.6503C84.0275 50.6302 83.9774 50.6202 83.9273 50.6102Z" fill="#00A651"/>
<path d="M109.46 48.6448C109.189 48.9857 109.049 49.3365 108.808 49.4167C108.638 49.4668 108.357 49.1561 108.116 49.0157C108.287 48.7752 108.407 48.4343 108.638 48.3241C108.798 48.2539 109.109 48.4945 109.46 48.6448Z" fill="#00A651"/>
<path d="M96.1471 48.996C95.4454 48.585 95.3953 48.4647 95.716 47.9735C95.9266 47.6427 96.1972 47.7229 96.4478 47.8832C96.6884 48.0436 96.5481 48.5348 96.1471 48.996Z" fill="#00A651"/>
<path d="M65.0211 26.2102C64.9208 25.729 64.8306 25.298 64.7504 24.8669C64.4898 23.3933 64.9509 22.2305 66.204 21.3583C67.3167 20.5764 68.4795 20.0752 69.8629 20.0752C70.8654 20.0752 71.6473 20.4561 72.2588 21.208C72.9504 22.06 73.4717 23.0023 73.5519 24.1351C73.6822 25.9094 72.9003 27.2427 71.537 28.2552C70.5245 29.017 68.5297 29.0772 67.6274 28.4757C66.6551 27.8241 66.1639 26.551 66.4245 25.3882C66.615 24.5561 67.7979 23.4935 68.7101 23.3332C69.5221 23.2028 69.893 23.3933 70.0734 24.1953C70.1937 24.7266 70.1937 25.2879 70.1937 25.8293C70.1937 26.0197 70.0433 26.2302 69.913 26.3906C69.6925 26.6613 69.1512 26.7415 68.9707 26.561C68.7602 26.3605 68.8605 25.9796 69.2314 25.6388C69.2715 25.7491 69.2915 25.8693 69.3617 25.9395C69.4118 25.9997 69.5321 26.0598 69.6123 26.0498C69.6825 26.0297 69.7727 25.9195 69.7727 25.8393C69.7927 25.2378 69.7526 24.6363 69.3817 24.1151C69.3216 24.0248 69.2113 23.9446 69.1111 23.9045C68.249 23.5838 66.8856 24.5361 66.8455 25.4583C66.8054 26.4608 67.1763 27.2427 67.9482 27.8542C68.0384 27.9244 68.1287 28.0146 68.2389 28.0447C70.3641 28.7464 72.9905 27.9344 73.1108 25.1175C73.181 23.4334 72.4292 22.1202 71.1561 21.0877C70.314 20.406 69.3116 20.5864 68.3592 20.7669C67.2265 20.9774 66.2741 21.5688 65.4922 22.4009C65.3318 22.5713 65.2015 22.842 65.2015 23.0625C65.2316 23.8444 65.3018 24.6263 65.412 25.3982C65.4622 25.739 65.4321 25.9696 65.0211 26.2102Z" fill="#004F84"/>
<path d="M20.5424 27.9347C20.5424 27.5237 20.5524 27.1127 20.5424 26.7017C20.5424 26.4009 20.4021 26.2305 20.0713 26.2706C19.7605 26.3107 19.4498 26.3408 19.4898 26.7818C19.5099 26.9623 19.5099 27.1528 19.54 27.3332C19.6703 28.075 20.0312 28.3557 20.783 28.3056C21.8055 28.2454 22.1463 27.8946 22.1062 26.8921C22.0862 26.5012 22.026 26.1002 21.9258 25.7092C21.5749 24.2757 20.3018 23.995 19.1791 24.6266C17.6353 25.5087 17.0639 26.8821 17.3647 28.6063C17.4749 29.2178 17.6453 29.8393 17.8859 30.4107C18.0864 30.8919 18.5275 31.0824 19.0688 31.0824C19.981 31.0924 20.8231 30.8819 21.585 30.3706C21.6652 30.3205 21.7554 30.2603 21.8356 30.2102C21.8556 30.2002 21.8957 30.2102 22.0561 30.2102C21.8657 30.4308 21.7554 30.6212 21.585 30.7515C20.6627 31.4533 19.6202 31.7239 18.4774 31.6237C17.916 31.5736 17.525 31.2427 17.3346 30.7616C16.2519 27.9046 16.7632 25.599 19.5099 24.0351C21.0136 23.1831 22.2466 23.9549 22.5072 25.9097C22.5473 26.1904 22.4972 26.4811 22.5473 26.7618C22.7578 28.0149 21.2241 29.1075 19.8106 28.8268C19.7505 28.8168 19.6803 28.7867 19.6302 28.7567C19.149 28.476 18.8483 27.4134 19.0387 26.6515C19.1791 26.1002 19.7705 25.6992 20.4121 25.6892C20.7329 25.6792 20.9234 25.7994 20.9334 26.1403C20.9434 26.5112 20.9935 26.8821 20.9434 27.233C20.9033 27.4936 20.7128 27.7342 20.5825 27.9848C20.5925 27.9647 20.5625 27.9447 20.5424 27.9347Z" fill="#004F84"/>
<path d="M138.28 52.4544C138.19 52.8554 137.929 52.9857 137.568 52.8955C136.395 52.6248 136.075 52.1737 136.125 51.2114C136.185 50.0586 136.756 48.6752 137.508 48.1539C137.428 48.3143 137.348 48.4747 137.248 48.6351C136.796 49.3769 136.526 50.1789 136.576 51.051C136.586 51.2916 136.696 51.5322 136.806 51.9031C137.047 51.6023 137.187 51.4419 137.298 51.2715C138.892 48.8957 139.864 46.3094 140.415 43.4925C140.916 40.8962 141.297 38.2998 141.478 35.6734C141.578 34.0996 141.538 32.5358 140.866 31.0622C140.706 30.7213 140.686 30.3805 141.137 30.1299C141.498 31.1123 141.929 32.0546 141.929 33.1072C141.929 34.0695 141.859 35.0419 141.839 36.0042C141.779 39.2522 141.017 42.3798 140.295 45.5175C139.804 47.6727 138.681 49.5674 137.498 51.4018C137.378 51.5823 137.248 51.7527 137.057 52.0434C137.488 52.1938 137.869 52.3241 138.28 52.4544Z" fill="#004F84"/>
<path d="M77.6319 21.6385C77.3913 21.849 77.2309 21.9994 77.0505 22.1297C76.9302 22.2099 76.7197 22.1999 76.6495 22.2901C76.1082 23.0319 75.7974 23.9041 76.0781 24.7862C76.3287 25.5882 77.0405 26.0493 77.8926 26.1896C78.5943 26.3099 79.2459 26.1696 79.7972 25.6583C80.108 25.3676 80.4689 25.117 80.8197 24.8564C81.4513 24.3953 82.153 24.1547 82.8848 24.4855C83.7368 24.8664 84.1178 25.6283 84.198 26.5305C84.2381 27.0317 84.2481 27.5329 84.208 28.0342C84.1378 28.8762 83.6266 29.4877 82.9048 29.7985C82.2733 30.0691 81.5715 30.1593 80.8899 30.2796C80.3786 30.3699 80.128 30.0391 79.9877 29.598C79.8173 29.0767 79.8774 28.8662 80.3085 28.5254C80.3285 28.5454 80.3786 28.5554 80.3786 28.5755C80.4388 29.588 80.6794 29.8085 81.6818 29.6982C82.0226 29.6581 82.3735 29.5679 82.7043 29.4576C83.6165 29.1469 83.797 28.8862 83.7769 27.9239C83.7669 27.4427 83.7669 26.9515 83.6667 26.4904C83.3258 25.0168 81.9926 24.4955 80.7395 25.3376C80.2383 25.6684 79.7872 26.0694 79.296 26.4202C78.2334 27.2021 76.3688 26.741 75.6571 25.3777C75.597 25.2674 75.5769 25.117 75.5769 24.9867C75.5368 23.894 75.8776 22.9116 76.5393 22.0596C76.7498 21.7388 77.0405 21.4781 77.6319 21.6385Z" fill="#004F84"/>
<path d="M133.498 36.9059C133.468 36.4949 133.438 36.0839 133.408 35.6829C132.787 35.713 132.636 35.8634 132.616 36.3846C132.586 37.2768 132.757 38.1189 133.308 38.8406C133.769 39.4421 134.31 39.382 134.681 38.7203C135.253 37.6878 135.193 36.555 135.022 35.4925C134.802 34.1492 134.371 32.846 133.949 31.5428C133.749 30.9213 133.398 30.3499 132.606 30.3098C132.807 29.7484 133.268 29.5981 133.679 30.0091C133.99 30.3198 134.27 30.7108 134.431 31.1117C135.152 32.9863 135.694 34.911 135.523 36.9661C135.443 37.8883 135.102 38.7203 134.491 39.412C133.96 40.0135 133.328 39.9634 132.847 39.3118C132.195 38.4196 132.055 37.3971 132.215 36.3546C132.315 35.703 132.837 35.312 133.448 35.0915C133.549 35.0514 133.739 35.0814 133.799 35.1516C134.1 35.4724 133.889 36.6352 133.498 36.9059Z" fill="#004F84"/>
<path d="M27.3791 32.4352C27.5195 32.6357 27.6097 32.8863 27.7801 32.9665C28.0307 33.0868 28.3415 33.1169 28.6222 33.1069C28.6823 33.1069 28.7926 32.736 28.7725 32.5455C28.6823 31.9942 28.6322 31.4127 28.3916 30.9215C28.0408 30.1998 27.2889 30.0193 26.5972 30.4404C25.7752 30.9416 25.1838 31.6132 25.2539 32.6658C25.3041 33.3074 25.264 33.979 25.4344 34.6005C25.9356 36.5252 27.4694 37.0264 29.1434 36.0039C29.1936 35.9739 29.2537 35.9438 29.4041 35.9939C29.2738 36.1543 29.1635 36.3548 29.0031 36.4851C27.74 37.5678 25.8253 37.1969 25.2038 35.6631C24.3818 33.6181 24.5823 31.513 26.4469 30.1296C27.6598 29.2274 28.963 29.7487 29.1835 31.2523C29.2537 31.7235 29.2537 32.2247 29.2036 32.6959C29.1234 33.5279 28.2713 33.989 27.5295 33.6281C26.9381 33.3475 26.8779 32.8763 27.3791 32.4352Z" fill="#004F84"/>
<path d="M30.7674 28.3154C30.587 28.5159 30.4166 28.8667 30.2161 28.8868C29.9955 28.9068 29.6447 28.6763 29.5344 28.4557C29.1735 27.7741 29.2838 27.0222 29.4442 26.3105C29.6146 25.5787 30.0757 24.9973 30.6672 24.5361C31.1283 24.1753 31.6696 24.2354 32.1608 24.3357C32.642 24.4359 33.1031 24.6665 33.5342 24.897C33.9352 25.1075 34.0755 25.4885 34.0755 25.9496C34.0755 27.5034 33.7247 28.9569 32.8225 30.2501C32.1608 31.1924 30.4867 31.3428 29.6246 30.5809C29.2638 30.2601 29.3339 29.7389 29.7249 29.408C29.8853 29.6587 29.9955 29.9794 30.2261 30.1499C30.4667 30.3303 30.7975 30.4105 31.1083 30.4606C32.2912 30.631 32.5518 30.4706 33.043 29.388C33.4841 28.4156 33.6445 27.3831 33.6144 26.3205C33.6144 26.1902 33.5843 26.0498 33.5342 25.9296C33.2736 25.278 32.0305 24.7868 30.9779 24.897C30.3965 24.9572 29.8652 25.5185 29.8051 26.2704C29.765 26.8217 29.8151 27.4032 29.9354 27.9445C30.0256 28.3354 30.2161 28.3655 30.607 28.2252C30.6672 28.2352 30.7173 28.2753 30.7674 28.3154Z" fill="#004F84"/>
<path d="M13.7157 31.5233C13.5153 31.2526 13.395 30.8717 13.1544 30.7715C12.6932 30.581 12.3825 30.9118 12.162 31.3128C12.0918 31.4431 11.9915 31.5634 11.9414 31.7037C11.6707 32.4255 11.6507 33.1573 12.0717 33.8189C12.7835 34.9517 14.8786 34.8514 15.6705 33.6685C16.3622 32.626 16.4324 31.5233 15.9612 30.3805C15.7908 29.9795 15.6104 29.5886 15.4299 29.1976C15.2094 28.7365 14.9889 28.2854 14.3673 28.3155C14.5378 27.7541 14.9387 27.6137 15.3397 27.9245C15.4299 27.9947 15.5202 28.0849 15.5803 28.1851C16.2219 29.338 16.8935 30.5008 16.673 31.8942C16.4424 33.3277 15.3297 35.3326 13.1443 35.1822C12.3524 35.1321 11.761 34.7512 11.4602 33.9993C11.0292 32.9167 11.761 30.8416 12.7835 30.2702C13.1443 30.0697 13.7057 30.1399 13.8761 30.4106C14.1368 30.8116 14.0566 31.2326 13.7157 31.5233Z" fill="#004F84"/>
<path d="M82.604 36.0739C82.4537 36.3747 82.3334 36.6152 82.183 36.916C81.9524 36.3747 82.163 35.7932 82.6441 35.5526C83.3659 35.1918 84.5688 35.7932 84.4987 36.6052C84.3984 37.8082 83.7669 38.6703 82.8346 39.3118C82.574 39.4923 82.1229 39.4622 81.772 39.4121C80.9099 39.3118 79.7872 37.9485 79.8072 37.0764C79.8273 36.094 80.0478 35.2319 80.6493 34.47C81.1104 33.8786 81.6116 33.3172 82.1229 32.7658C82.5539 32.2947 83.1253 32.2746 83.7067 32.415C83.817 32.4451 83.8872 32.6255 83.9774 32.7358C83.8471 32.836 83.7168 32.9563 83.5664 33.0365C83.5163 33.0666 83.416 32.9964 83.3258 32.9764C82.7544 32.8561 82.2231 32.9062 81.8221 33.3974C81.4212 33.8886 80.9701 34.3497 80.6593 34.891C79.9175 36.1541 80.1581 37.728 81.5414 38.6001C82.0627 38.9309 82.8246 38.961 83.2055 38.6803C83.807 38.2392 84.1679 37.3671 84.0175 36.7456C83.8872 36.2644 83.2757 35.9837 82.604 36.0739Z" fill="#004F84"/>
<path d="M45.6738 31.7541C45.6538 32.4858 45.4332 33.0171 44.9721 33.4482C44.6714 33.7189 44.2203 33.6487 44.0599 33.2377C43.8093 32.6162 43.5186 31.9545 43.4885 31.303C43.3682 29.2179 43.5486 27.1428 43.8795 25.0777C44.0098 24.2658 43.9697 23.4037 43.8795 22.5816C43.7491 21.4188 43.3983 21.2684 42.3858 21.7797C42.4961 21.2384 42.8369 20.9677 43.4283 20.9477C43.9296 20.9376 44.2303 21.1181 44.2704 21.7296C44.3406 22.8523 44.4107 24.0051 44.2604 25.1078C43.9897 27.0325 43.8394 28.9572 43.9396 30.892C43.9697 31.5034 44.2604 32.1049 44.4809 32.6863C44.531 32.8267 44.7817 32.8868 44.942 32.9871C45.0323 32.8267 45.2027 32.6563 45.2027 32.4959C45.1826 32.1751 45.2628 31.9445 45.6738 31.7541Z" fill="#004F84"/>
<path d="M101.159 28.4456C101.059 28.8265 100.889 28.9468 100.498 28.8867C99.9765 28.8165 99.4351 28.8165 98.9038 28.8466C98.3726 28.8766 97.9916 29.1774 97.8312 29.6886C97.4202 31.0219 97.9716 31.9742 99.3449 32.2248C99.8963 32.3251 100.478 32.3451 100.979 31.9742C101.24 31.7837 101.43 31.6133 101.32 31.2324C101.209 30.8715 101.009 30.6409 100.628 30.6109C100.237 30.5908 99.8361 30.6008 99.4351 30.6008C99.4251 30.5808 99.395 30.5407 99.4051 30.5206C99.6356 30.0595 100.207 29.8991 101.039 30.0495C101.53 30.1397 101.851 30.4906 101.771 30.9116C101.671 31.3828 101.39 31.8639 101.069 32.2248C100.157 33.2674 97.9014 32.9466 97.3901 31.6634C97.1897 31.1622 97.2398 30.4405 97.4302 29.9192C98.0317 28.3353 99.2447 27.8441 101.159 28.4456Z" fill="#004F84"/>
<path d="M52.1998 21.2979C52.3902 21.1375 52.5607 20.8869 52.7712 20.8368C53.5932 20.6664 54.3951 20.6864 55.0066 21.4282C55.9489 22.5911 56.4802 23.9343 56.7008 25.3879C56.9514 27.0018 56.6607 28.5456 55.7484 29.939C55.6181 30.1395 55.4577 30.3199 55.2171 30.4402C55.2773 30.3099 55.3174 30.1696 55.3976 30.0593C57.1719 27.5031 56.1193 23.9444 54.6257 22.0096C54.0042 21.1977 53.1621 21.2678 52.3 21.4282C52.2699 21.3781 52.2399 21.338 52.1998 21.2979Z" fill="#004F84"/>
<path d="M47.0372 20.0045C46.9871 20.3253 46.8166 20.4757 46.4959 20.5458C46.3054 20.5859 46.0648 20.7363 45.9846 20.9067C45.6037 21.6987 45.5937 22.5608 45.754 23.4028C45.8142 23.7036 46.0849 24.0444 46.3555 24.2248C46.977 24.6358 47.6888 24.6358 48.3704 24.3752C48.9218 24.1647 49.1122 23.7236 48.9719 23.1021C48.8516 22.5908 48.4206 22.5507 48.0096 22.5106C47.8592 22.7512 47.7188 22.9818 47.5284 23.3126C47.3379 22.7613 47.4181 22.3903 47.7188 22.0896C48.0697 21.7287 48.4707 21.9192 48.8416 22.0295C49.2125 22.1498 49.413 22.4004 49.4431 22.8414C49.5533 24.2248 48.0497 25.6784 46.2051 24.9265C45.5937 24.6759 45.2528 24.1747 45.2328 23.483C45.1927 22.4505 45.2929 21.448 45.8743 20.5559C46.135 20.1348 46.4558 19.8241 47.0372 20.0045Z" fill="#004F84"/>
<path d="M47.8592 31.162C47.8491 31.0718 47.8291 30.9716 47.8391 30.8813C47.9795 29.3777 47.2577 28.3351 46.0848 27.5231C45.9144 27.4028 45.5535 27.3327 45.7941 26.9718C46.0147 26.641 46.2653 26.8014 46.4758 26.9718C46.967 27.3828 47.4381 27.8339 47.8892 28.2449C47.9995 27.6134 47.1274 26.5006 46.2151 26.1698C46.3455 25.6786 46.5961 25.5583 47.0271 25.7789C47.8391 26.1999 48.7413 27.7136 48.4707 28.5557C48.2501 29.2173 48.3704 29.8488 48.2802 30.4904C48.2501 30.731 48.1198 30.9615 48.0296 31.2021C47.9694 31.1821 47.9193 31.1721 47.8592 31.162Z" fill="#004F84"/>
<path d="M122.311 34.9609C123.163 35.9534 123.283 38.1688 121.92 39.1712C121.75 39.3015 121.559 39.4218 121.359 39.492C120.597 39.7526 120.076 39.492 119.895 38.7001C119.815 38.3191 119.785 37.8881 119.855 37.5172C119.905 37.2666 120.136 36.9759 120.366 36.8455C120.647 36.6952 120.998 36.7653 121.188 37.0962C121.389 37.447 121.198 37.6876 120.958 37.8981C120.777 37.7076 120.617 37.5172 120.366 37.2465C120.206 37.9482 120.256 38.4896 120.677 38.8204C120.908 38.9908 121.379 38.9808 121.69 38.8805C122.171 38.7201 122.441 38.3191 122.461 37.7678C122.481 37.026 122.441 36.3042 122.02 35.6526C121.85 35.3619 121.89 35.3018 122.311 34.9609Z" fill="#004F84"/>
<path d="M47.2577 47.0713C47.8291 48.595 46.0347 50.5698 44.4809 50.2691C44.3306 50.239 44.1702 50.1388 44.0699 50.0185C43.5486 49.3468 43.7592 48.0336 44.4609 47.5525C44.912 47.2417 45.3731 47.362 45.6237 47.8532C45.9545 48.5048 45.8844 49.0862 45.4433 49.4371C45.343 49.0561 45.2929 48.6451 45.1225 48.2943C45.0423 48.1339 44.7315 48.0136 44.5311 48.0136C44.4308 48.0136 44.2704 48.3544 44.2704 48.5449C44.2804 49.7077 44.8819 50.0686 45.9345 49.5473C46.5259 49.2566 46.977 48.8657 46.8668 48.0737C46.8267 47.7229 46.8267 47.2918 47.2577 47.0713Z" fill="#004F84"/>
<path d="M63.0162 47.6025C63.0563 47.7429 63.0663 47.7629 63.0663 47.783C63.0363 48.5549 62.906 49.3368 63.5275 50.0084C64.3194 50.8605 65.2316 51.4419 66.3945 51.5823C66.8255 51.6324 67.2566 51.6324 67.6977 51.6524C67.6776 52.0033 67.4972 52.1637 67.1864 52.1837C65.4722 52.294 64.0387 51.7326 62.9661 50.3693C62.4047 49.6576 62.525 48.8356 62.7255 48.0336C62.7456 47.8832 62.8759 47.783 63.0162 47.6025Z" fill="#004F84"/>
<path d="M11.9816 18.3008C12.0818 19.1027 12.172 19.8145 12.2723 20.5864C13.1845 19.9648 13.9864 19.4235 14.7784 18.8822C14.8285 18.9423 14.8786 19.0025 14.9288 19.0727C14.7383 19.2431 14.5679 19.4636 14.3574 19.5939C12.8637 20.446 11.5906 21.5587 10.528 22.912C10.0368 23.5336 9.68594 24.2253 9.5857 25.0272C9.55563 25.2478 9.41528 25.4583 9.31504 25.6788C9.25489 25.6588 9.18472 25.6387 9.12457 25.6287C9.19474 25.2778 9.23484 24.9169 9.35514 24.5761C9.77616 23.3431 10.5781 22.3707 11.4803 21.4685C11.7911 21.1578 11.9214 20.9172 11.751 20.446C11.5906 20.0049 11.6507 19.4636 11.6808 18.9724C11.6808 18.7519 11.8613 18.5414 11.9816 18.3008Z" fill="#004F84"/>
<path d="M18.1566 18.5814C18.0865 18.6917 18.0364 18.822 17.9461 18.9022C17.4549 19.3232 17.485 19.8746 17.5552 20.4259C17.6153 20.8871 17.9562 21.1778 18.4474 21.2078C19.54 21.278 20.6126 21.1577 21.6351 20.7367C21.7855 20.6766 21.9459 20.6164 22.0963 20.5563C22.1364 20.5964 22.1765 20.6365 22.2166 20.6665C22.0361 20.8369 21.8858 21.0575 21.6752 21.1577C20.5625 21.669 19.3897 21.8795 18.1667 21.7993C17.495 21.7592 17.1341 21.3482 17.074 20.6665C16.9938 19.7443 17.3346 19.0325 18.0464 18.4912C18.0865 18.5213 18.1165 18.5514 18.1566 18.5814Z" fill="#004F84"/>
<path d="M124.727 38.8907C123.815 37.4471 123.965 36.0237 124.747 34.6904C125.318 33.718 126.04 32.8459 126.742 31.9537C127.133 31.4525 127.684 31.4725 128.266 31.6831C128.185 32.0439 128.035 32.2444 127.644 32.1442C127.173 32.0339 126.782 32.1642 126.501 32.5652C125.98 33.317 125.379 34.0288 124.968 34.8307C124.446 35.8432 124.346 36.9359 124.957 37.9885C125.178 38.3493 125.088 38.63 124.727 38.8907Z" fill="#004F84"/>
<path d="M64.139 48.9152C64.2292 48.4841 64.5099 48.414 64.8607 48.424C66.4647 48.4741 67.8681 47.9328 69.1713 47.0306C69.9131 46.5093 70.5146 45.8778 70.9256 45.0758C71.0358 44.8653 71.1862 44.6748 71.3466 44.4844C70.8955 46.6898 67.2065 49.4365 64.139 48.9152Z" fill="#004F84"/>
<path d="M44.7717 29.979C44.9722 29.3675 45.3932 29.2772 45.8643 29.2371C46.3054 29.197 46.6162 29.3675 46.7665 29.7785C47.2778 31.1418 47.4582 32.5152 46.6863 33.8284C46.2753 34.5401 45.744 35.1917 45.2729 35.8633C45.2228 35.8333 45.1626 35.8032 45.1125 35.7731C45.1726 35.6428 45.2228 35.5125 45.303 35.3922C45.5035 35.1215 45.7039 34.8609 45.9245 34.6002C46.947 33.3672 46.8969 31.9939 46.4458 30.5804C46.1851 29.7684 45.9044 29.6582 45.0824 29.8687C45.0022 29.8988 44.9321 29.9288 44.7717 29.979Z" fill="#004F84"/>
<path d="M84.0977 22.4104C84.2982 21.839 84.4085 21.7888 84.8195 22.0996C85.6315 22.7011 86.1628 23.483 86.2129 24.5255C86.243 25.2373 86.253 25.959 86.2029 26.6708C86.1728 27.0216 85.9823 27.3625 85.7518 27.6632C85.7518 26.6808 85.8219 25.6984 85.7317 24.726C85.6315 23.6734 84.9398 22.9517 84.0977 22.4104Z" fill="#004F84"/>
<path d="M13.3749 42.3999C11.791 41.1168 11.3299 37.2874 12.5429 36.4053C12.4827 37.1671 12.4025 37.9691 12.3624 38.7811C12.3123 39.8737 12.7734 40.796 13.4752 41.598C13.7859 41.9388 13.7458 42.1593 13.3749 42.3999Z" fill="#004F84"/>
<path d="M68.9006 30.0794C68.7703 30.5406 68.5197 30.701 68.1488 30.721C66.8957 30.7812 65.9935 30.0995 65.2216 29.2474C64.8407 28.8264 64.971 28.0946 65.4722 27.6836C65.3118 28.686 65.9534 29.1271 66.605 29.5782C67.2766 30.0293 67.9984 30.2699 68.9006 30.0794Z" fill="#004F84"/>
<path d="M24.051 23.233C23.8906 22.2506 24.3317 21.5288 25.0936 20.9674C26.096 20.2457 27.2188 19.8547 28.4618 19.8748C28.6523 19.8748 28.9831 19.965 29.0131 20.0652C29.0532 20.2457 28.9129 20.4662 28.8628 20.6166C28.5119 20.5464 28.2613 20.4361 28.0107 20.4462C26.9281 20.4562 25.9557 20.807 25.0535 21.3885C24.6525 21.6491 24.4821 21.9899 24.4721 22.4711C24.4721 22.7518 24.3317 23.0224 24.2515 23.2931C24.1713 23.2831 24.1112 23.263 24.051 23.233Z" fill="#004F84"/>
<path d="M65.803 49.938C66.0336 49.7776 66.2541 49.5671 66.5148 49.4768C67.5673 49.1059 68.65 48.8353 69.6725 48.4042C70.4945 48.0634 71.2363 47.5321 72.0784 47.1211C71.908 47.3116 71.7676 47.5321 71.5771 47.6925C70.3441 48.6649 68.9307 49.2864 67.427 49.7074C66.9258 49.8478 66.4145 49.9781 65.9033 50.1184C65.8632 50.0583 65.8331 49.9981 65.803 49.938Z" fill="#004F84"/>
<path d="M86.283 21.0674C87.8769 22.13 88.6087 24.5659 87.5862 25.408C87.5661 25.3879 87.5361 25.3579 87.5361 25.3378C87.7566 23.9043 87.2353 22.7515 86.1828 21.8192C85.7918 21.4784 85.9622 21.2879 86.283 21.0674Z" fill="#004F84"/>
<path d="M131.303 43.4727C131.363 44.3548 132.035 44.3849 132.636 44.5052C132.466 45.1467 132.315 45.1668 131.203 44.7758C131.042 45.3172 131.092 45.3573 132.135 45.6279C132.095 45.9287 131.935 46.1692 131.634 46.1091C131.303 46.0389 130.902 45.8986 130.702 45.658C130.451 45.3272 130.912 43.7834 131.303 43.4727Z" fill="#004F84"/>
<path d="M23.1488 32.2344C22.5373 33.1566 22.6676 34.1791 22.6275 35.1816C22.6075 35.6928 22.828 36.0337 23.219 36.3143C23.66 36.6251 23.66 36.6852 23.2089 37.0662C22.5072 36.7554 22.0862 36.2742 22.1764 35.4522C22.2666 34.7104 22.2967 33.9586 22.407 33.2268C22.4771 32.7957 22.6776 32.4048 23.1488 32.2344Z" fill="#004F84"/>
<path d="M32.3012 23.4433C32.5017 22.0599 31.9704 20.8269 31.5694 19.5638C31.4992 19.3533 31.6596 19.0726 31.8 18.832C32.3914 20.1553 32.9227 21.4584 32.7523 22.912C32.7322 23.1025 32.5618 23.2829 32.4516 23.4734C32.4115 23.4633 32.3513 23.4533 32.3012 23.4433Z" fill="#004F84"/>
<path d="M55.8688 31.1826C55.2573 33.4281 55.558 34.4105 57.0416 34.7714C56.9514 35.2425 56.7609 35.3729 56.3399 35.2425C55.7585 35.0721 55.167 34.4205 55.1771 33.809C55.1871 33.1374 55.2873 32.4557 55.4177 31.7941C55.4577 31.5736 55.7084 31.3831 55.8688 31.1826Z" fill="#004F84"/>
<path d="M30.6571 18.9727C31.5794 20.356 31.6395 22.792 30.7674 23.5137C30.8175 23.1228 30.8877 22.7519 30.9178 22.371C30.9879 21.4688 30.7875 20.6167 30.4166 19.8047C30.2762 19.4639 30.2963 19.1932 30.6571 18.9727Z" fill="#004F84"/>
<path d="M33.2234 24.1447C33.875 22.6411 33.6244 21.2878 33.2034 19.9345C33.0931 19.5836 33.1933 19.3631 33.474 19.1826C34.3361 20.556 34.2559 23.2526 33.2234 24.1447Z" fill="#004F84"/>
<path d="M43.8794 34.6504C43.8794 35.5125 43.8594 36.2844 43.8895 37.0563C43.9195 37.8683 44.1802 38.189 44.922 38.4096C44.7616 38.9509 44.3506 39.1313 43.9897 38.7404C43.7291 38.4597 43.5186 38.0387 43.4684 37.6577C43.3882 37.0061 43.3983 36.3245 43.4684 35.6629C43.4985 35.3321 43.7291 35.0113 43.8794 34.6504Z" fill="#004F84"/>
<path d="M17.896 32.9466C18.6879 33.5682 19.8307 33.4479 21.8256 32.7061C21.6652 32.8865 21.5248 33.107 21.3344 33.2374C20.362 33.8689 19.2793 33.9691 18.1566 33.8689C17.9862 33.8589 17.7356 33.6985 17.7055 33.5581C17.6554 33.4078 17.8158 33.1973 17.896 32.9466Z" fill="#004F84"/>
<path d="M51.8188 27.2129C53.0719 27.9848 53.7536 29.7591 53.0118 30.5611C52.9616 30.4207 52.9015 30.3205 52.9015 30.2102C52.8413 29.298 52.4103 28.5762 51.7587 27.9647C51.3477 27.6038 51.3477 27.5437 51.8188 27.2129Z" fill="#004F84"/>
<path d="M50.4755 23.0723C51.2675 25.1775 50.235 27.2525 48.5909 27.463C48.7614 27.3127 48.9017 27.0921 49.1022 27.0119C49.854 26.7012 50.2851 26.1599 50.265 25.3479C50.255 24.8166 50.1548 24.2953 50.1447 23.764C50.1347 23.5234 50.245 23.2728 50.2951 23.0322C50.3553 23.0523 50.4154 23.0623 50.4755 23.0723Z" fill="#004F84"/>
<path d="M14.5478 40.3949C13.826 39.6029 13.6656 36.5455 14.3373 35.8438C14.3573 35.9841 14.3974 36.0743 14.3974 36.1645C14.3974 36.8963 14.3573 37.6381 14.4074 38.3599C14.4375 38.7809 14.5578 39.212 14.7483 39.5829C14.9387 39.9538 14.8886 40.1643 14.5478 40.3949Z" fill="#004F84"/>
<path d="M51.8589 26.4302C52.0494 26.0292 52.4003 25.9189 52.7411 26.3399C53.1922 26.9013 53.5531 27.5429 53.8839 28.1844C53.9741 28.3549 53.7937 28.6556 53.7335 28.9062C53.6834 28.8962 53.6333 28.8862 53.5832 28.8761C53.3526 28.4451 53.1621 27.984 52.8814 27.583C52.6108 27.182 52.2499 26.8512 51.8589 26.4302Z" fill="#004F84"/>
<path d="M43.4584 39.4829C43.2279 40.0744 43.0374 40.1546 42.6665 39.7837C42.466 39.5832 42.2755 39.2524 42.2755 38.9817C42.2555 38.2499 42.3156 37.5181 42.3758 36.7864C42.3958 36.5658 42.5562 36.3553 42.6464 36.1348C42.6865 36.1448 42.7367 36.1548 42.7768 36.1648C42.7768 36.3954 42.7868 36.636 42.7768 36.8666C42.7567 37.2976 42.7367 37.7287 42.6966 38.1597C42.6264 38.7712 42.8269 39.2323 43.4584 39.4829Z" fill="#004F84"/>
<path d="M132.646 40.1641C132.516 40.6954 132.295 41.2868 132.235 41.8883C132.165 42.6201 132.416 42.8206 133.418 43.0712C133.348 43.3919 133.178 43.5724 132.837 43.5523C132.356 43.5323 131.995 43.3017 131.824 42.8606C131.483 42.0186 131.975 40.6152 132.646 40.1641Z" fill="#004F84"/>
<path d="M122.341 31.8633C122.842 32.4848 123.334 33.0863 123.825 33.6978C124.105 34.0486 124.025 34.3193 123.674 34.5599C123.173 33.9484 122.682 33.367 122.201 32.7655C121.93 32.4247 121.92 32.1139 122.341 31.8633Z" fill="#004F84"/>
<path d="M24.5422 23.6543C24.9833 22.4914 26.9982 21.6193 28.5119 21.8198C28.5019 22.1406 28.3415 22.321 28.0308 22.321C26.7576 22.3411 25.6149 22.712 24.5422 23.6543Z" fill="#004F84"/>
<path d="M73.1409 28.6855C73.7023 30.4198 73.6622 32.2442 72.4993 32.8858C72.4893 32.8557 72.4693 32.8156 72.4793 32.8056C73.3113 31.8232 73.0707 30.7205 72.8402 29.6178C72.76 29.2569 72.7099 28.9261 73.1409 28.6855Z" fill="#004F84"/>
<path d="M15.7909 35.0914V36.8657C15.7909 37.4872 16.0114 37.9684 16.5928 38.229C16.3623 38.8004 16.0816 38.8506 15.6906 38.4095C15.1894 37.8481 15.1794 35.743 15.6706 35.1816C15.7407 35.1215 15.8109 35.0814 15.7909 35.0914Z" fill="#004F84"/>
<path d="M129.278 46.8105C129.479 47.7128 130.113 48.2608 131.183 48.4546C131.012 48.5949 130.852 48.8255 130.661 48.8656C129.99 49.026 129.178 48.6651 128.977 48.1739C128.757 47.6727 128.887 47.1013 129.278 46.8105Z" fill="#004F84"/>
<path d="M17.3346 35.4731C17.495 35.3427 17.6654 35.1022 17.8258 35.1022C18.9385 35.0921 20.0011 34.8616 21.0036 34.3604C21.0336 34.3904 21.0637 34.4205 21.0938 34.4606C20.9735 34.611 20.8833 34.8215 20.7329 34.9017C19.7004 35.453 18.6077 35.7237 17.4449 35.6335C17.4048 35.5833 17.3647 35.5232 17.3346 35.4731Z" fill="#004F84"/>
<path d="M68.8304 51.2517C68.9106 50.8707 69.1311 50.7404 69.4719 50.7304C69.8328 50.7204 70.1235 50.7905 70.2739 51.1715C70.6348 52.0837 70.1636 53.2967 69.1111 53.8279C69.2815 53.5773 69.3517 53.4069 69.482 53.3067C69.9431 52.9458 69.9732 52.4646 69.903 51.9534C69.8529 51.5524 69.6624 51.2617 69.1913 51.2918C69.081 51.3018 68.9707 51.2717 68.8304 51.2517Z" fill="#004F84"/>
<path d="M104.898 22.2801C104.337 24.2249 103.645 26.0995 102.463 27.7635C103.224 25.909 103.976 24.0645 104.738 22.21C104.788 22.24 104.848 22.2601 104.898 22.2801Z" fill="#004F84"/>
<path d="M126.14 30.952C125.9 31.5033 125.78 31.5534 125.369 31.1825C125.018 30.8617 124.677 30.5109 124.396 30.1199C124.085 29.6989 124.196 29.2478 124.647 28.917C124.697 29.9194 125.499 30.3505 126.14 30.952Z" fill="#004F84"/>
<path d="M63.768 21.2578C63.5475 21.8593 63.2768 22.4507 63.1365 23.0722C62.9761 23.784 62.946 24.5158 62.8357 25.2375C62.7956 25.4982 62.6653 25.7488 62.4849 25.9693C62.4147 24.2551 62.6453 22.6312 63.768 21.2578Z" fill="#004F84"/>
<path d="M17.4449 36.916C17.5351 36.5751 17.6354 36.4047 18.0664 36.4649C19.0989 36.6253 20.0212 36.3646 20.6928 35.5025C20.753 35.4323 20.8332 35.3722 20.9234 35.292C20.8933 36.4348 18.6979 37.4573 17.4449 36.916Z" fill="#004F84"/>
<path d="M21.3544 36.5752C21.1339 37.4574 19.3295 38.139 17.7757 37.9586C17.7757 37.6378 17.9461 37.4473 18.2368 37.4473C19.3395 37.4273 20.3821 37.2168 21.3544 36.5752Z" fill="#004F84"/>
<path d="M47.789 49.6172C47.789 50.8702 45.3731 52.7448 44.0699 52.5844C44.0499 52.2436 44.2103 52.1133 44.5411 52.0531C45.8142 51.8326 46.8266 51.2211 47.4482 50.0482C47.5284 49.9179 47.6487 49.8077 47.789 49.6172Z" fill="#004F84"/>
<path d="M74.5143 28.7262C75.0155 30.3702 75.0456 32.0443 74.0732 32.6056C74.5143 31.8237 74.4341 31.0819 74.3338 30.3401C74.2937 30.0293 74.1734 29.7186 74.1734 29.4078C74.1734 29.1672 74.2837 28.9166 74.3438 28.666C74.404 28.6961 74.4541 28.7061 74.5143 28.7262Z" fill="#004F84"/>
<path d="M123.454 30.1201C123.855 30.7517 124.226 31.3531 124.607 31.9446C124.817 32.2854 124.787 32.5661 124.406 32.7967C123.995 32.1751 123.564 31.5737 123.193 30.9421C123.023 30.6414 123.163 30.3407 123.454 30.1201Z" fill="#004F84"/>
<path d="M53.7035 25.9294C53.1521 25.4181 52.6309 24.957 52.1397 24.4658C52.0494 24.3756 52.0194 24.145 52.0695 24.0247C52.1597 23.8142 52.3402 23.7641 52.5406 23.9546C52.9617 24.3555 53.3927 24.7365 53.8037 25.1375C54.1245 25.4482 54.0042 25.7189 53.7035 25.9294Z" fill="#004F84"/>
<path d="M57.4927 29.0068C57.3925 29.889 57.2822 30.6108 57.2521 31.3325C57.2421 31.6533 57.4426 31.9741 57.4927 32.3049C57.5128 32.4653 57.4226 32.6457 57.3424 32.7961C57.3223 32.8262 57.0917 32.756 56.9815 32.6958C56.9113 32.6557 56.8512 32.5355 56.8411 32.4452C56.7309 31.3726 56.7208 30.32 57.2822 29.3376C57.3424 29.2574 57.3925 29.1773 57.4927 29.0068Z" fill="#004F84"/>
<path d="M65.0311 20.3255C64.5098 19.7641 64.0086 19.2228 63.4272 18.6113C63.4873 18.2304 63.6778 18.1101 64.0788 18.4309C64.4898 18.7617 64.8807 19.1627 65.1915 19.6038C65.4221 19.9245 65.3118 20.135 65.0311 20.3255Z" fill="#004F84"/>
<path d="M40.8421 20.0851C40.6215 20.2556 40.411 20.446 40.1704 20.5864C39.4787 20.9773 38.7369 21.2981 38.0753 21.7292C37.6442 22.0098 37.3034 22.4309 36.9125 22.7917C36.8824 21.8895 39.2682 20.3458 40.7418 19.9648C40.7719 19.9949 40.802 20.045 40.8421 20.0851Z" fill="#004F84"/>
<path d="M48.6211 51.2812C48.2702 52.2937 45.724 54.1583 44.5311 54.2284C44.7316 54.0079 44.8318 53.7974 45.0022 53.7272C46.3455 53.1959 47.5083 52.414 48.4807 51.3514C48.5008 51.3213 48.5409 51.3213 48.6211 51.2812Z" fill="#004F84"/>
<path d="M104.748 36.6961C104.778 37.879 105.39 39.102 104.397 40.2047C104.909 39.0518 103.986 37.8188 104.508 36.666C104.578 36.676 104.668 36.6861 104.748 36.6961Z" fill="#004F84"/>
<path d="M88.6989 21.0069C89.4808 22.2098 89.6513 23.4829 89.14 23.904C88.8894 23.1622 88.6087 22.4103 88.3882 21.6384C88.328 21.4379 88.4583 21.1873 88.5085 20.9668C88.5786 20.9768 88.6388 20.9969 88.6989 21.0069Z" fill="#004F84"/>
<path d="M136.887 53.2457C136.676 53.3459 136.476 53.5264 136.255 53.5364C135.814 53.5564 135.203 53.1053 135.122 52.6943C135.032 52.2532 134.952 51.762 135.523 51.3711C135.403 52.4136 135.904 52.9149 136.847 53.0552C136.857 53.1154 136.867 53.1855 136.887 53.2457Z" fill="#004F84"/>
<path d="M79.2158 30.9613C78.905 31.5327 78.5642 31.5929 78.3537 31.0816C78.1732 30.6205 78.1732 30.0591 78.1833 29.5379C78.1933 29.187 78.3737 28.8462 78.5642 28.5254C78.7146 29.3674 78.1732 30.3498 79.2158 30.9613Z" fill="#004F84"/>
<path d="M65.5323 18C66.8756 19.0927 67.1262 19.7443 66.605 20.2054C66.214 19.6841 65.793 19.1829 65.4521 18.6416C65.3619 18.5012 65.5023 18.2205 65.5323 18Z" fill="#004F84"/>
<path d="M105.751 36.4746C106.462 37.5773 106.472 39.0409 105.941 39.4318C105.801 38.7101 105.64 37.9482 105.52 37.1763C105.49 37.0059 105.64 36.7954 105.751 36.4746Z" fill="#004F84"/>
<path d="M13.3148 32.6759C13.5755 33.2173 13.9063 33.3977 14.3975 33.107C14.7283 32.9065 14.9288 32.4755 15.2495 32.0645C15.3097 32.7662 14.9689 33.1571 14.5478 33.4779C14.1569 33.7887 13.6857 33.8588 13.2246 33.6884C12.8437 33.5481 12.8838 33.0469 13.3148 32.6759Z" fill="#004F84"/>
<path d="M71.6272 29.0972C72.1786 30.0896 71.9079 31.7136 71.1461 32.3251C71.2363 31.7838 71.3465 31.1923 71.4167 30.5908C71.4468 30.3503 71.3365 30.0996 71.3365 29.8591C71.3365 29.5984 71.3967 29.3378 71.4368 29.0771C71.4969 29.0771 71.5571 29.0872 71.6272 29.0972Z" fill="#004F84"/>
<path d="M10.6282 18.7422C10.6282 19.6344 10.6382 20.5065 10.6182 21.3786C10.6081 21.5992 10.4879 21.8197 10.3676 22.0102C9.84628 21.118 10.0568 19.2033 10.6282 18.7422Z" fill="#004F84"/>
<path d="M77.2811 29.2979C77.2209 29.6186 77.1608 29.8793 77.1407 30.1399C77.0906 30.6411 77.261 31.0622 77.652 31.3829C77.8825 31.5634 77.9527 31.7839 77.7021 31.9443C77.5918 32.0145 77.3011 31.9543 77.1808 31.8541C76.4691 31.2025 76.5092 29.9194 77.2811 29.2979Z" fill="#004F84"/>
<path d="M79.0955 25.3683C79.8473 24.3859 79.1055 23.0927 79.727 21.96C80.1881 23.1128 79.8774 24.7468 79.0955 25.3683Z" fill="#004F84"/>
<path d="M24.5021 29.769C24.0911 28.5961 24.8229 26.6414 25.8654 25.9697C25.7852 26.1201 25.7151 26.2705 25.6148 26.4108C25.0334 27.2228 24.6625 28.0849 24.7327 29.1074C24.7527 29.3179 24.5823 29.5485 24.5021 29.769Z" fill="#004F84"/>
<path d="M70.715 50.1591C71.0358 49.5978 71.2563 49.5877 71.5471 50.0589C71.9781 50.7706 71.928 51.8031 71.3967 52.3044C71.3666 51.5124 71.4468 50.7004 70.715 50.1591Z" fill="#004F84"/>
<path d="M92.9894 23.0726C92.9593 22.6916 92.9794 22.3709 92.9092 22.0801C92.829 21.7393 92.6485 21.4085 92.5684 21.0677C92.5383 20.9173 92.6185 20.7168 92.6987 20.5765C92.7187 20.5364 92.9794 20.5765 93.0596 20.6466C93.4004 20.9775 93.5207 22.4511 93.25 22.842C93.2099 22.9122 93.1197 22.9623 92.9894 23.0726Z" fill="#004F84"/>
<path d="M121.319 30.7809V30.0091C121.319 29.2372 121.138 29.0968 120.356 29.2672C120.517 28.8462 120.727 28.5455 121.218 28.6156C121.679 28.6858 121.79 29.0166 121.78 29.4176C121.76 29.8787 121.87 30.38 121.319 30.7809Z" fill="#004F84"/>
<path d="M61.2018 24.2152C61.1817 22.8218 61.6629 21.5988 62.4849 20.4961C62.525 20.5161 62.5751 20.5262 62.6152 20.5462C62.5551 20.6866 62.505 20.8369 62.4248 20.9672C61.9636 21.7692 61.693 22.6313 61.6429 23.5636C61.6328 23.8042 61.4624 24.0347 61.3722 24.2753C61.312 24.2553 61.2519 24.2352 61.2018 24.2152Z" fill="#004F84"/>
<path d="M90.363 20.6865C91.3454 21.699 91.4957 22.6212 90.9645 23.0423C90.7038 22.511 90.4131 21.9697 90.1926 21.4083C90.1324 21.2479 90.2828 21.0073 90.363 20.6865Z" fill="#004F84"/>
<path d="M107.354 36.6357C107.886 37.8487 107.876 38.8512 107.395 39.2421C107.284 38.6106 107.144 37.989 107.074 37.3575C107.044 37.157 107.224 36.9365 107.354 36.6357Z" fill="#004F84"/>
<path d="M131.514 32.3147C131.253 32.014 131.002 31.7132 130.732 31.4326C130.361 31.0717 130.361 30.9815 130.812 30.6406C131.894 31.4225 132.095 31.9238 131.514 32.3147Z" fill="#004F84"/>
<path d="M35.5591 22.1002C35.8699 21.2782 37.4036 19.995 38.6768 19.5439C38.5565 19.6943 38.4662 19.8848 38.3159 19.995C37.8548 20.3259 37.3636 20.6065 36.9124 20.9474C36.4613 21.2882 36.0503 21.6792 35.5591 22.1002Z" fill="#004F84"/>
<path d="M78.8148 21.8799C78.6845 22.9425 78.8449 24.0853 78.073 24.9875C78.4138 23.965 78.1632 22.8222 78.8148 21.8799Z" fill="#004F84"/>
<path d="M25.7351 29.0772C25.6048 27.7339 26.2965 26.3305 27.2889 25.8994C26.928 26.4207 26.5872 26.8918 26.2865 27.383C25.9958 27.8843 26.3767 28.606 25.7351 29.0772Z" fill="#004F84"/>
<path d="M84.2079 39.463C84.8395 38.4505 86.1427 38.3101 86.8544 37.418C86.3532 38.5808 85.1603 38.8615 84.2079 39.463Z" fill="#004F84"/>
<path d="M47.2978 54.3987C47.4782 54.2383 47.6386 54.0478 47.8391 53.9175C48.0997 53.7371 48.4205 53.6368 48.6511 53.4363C48.8115 53.296 48.8616 53.0454 48.9619 52.8449C49.0421 52.6645 49.1222 52.484 49.2325 52.2334C49.5734 52.6745 49.4531 52.9852 49.2325 53.2659C48.7614 53.8774 48.1298 54.2583 47.4281 54.539C47.388 54.4889 47.3379 54.4388 47.2978 54.3987Z" fill="#004F84"/>
<path d="M96.2674 31.8135C95.5055 31.1218 95.4554 30.0592 95.9867 29.6582C96.1571 30.1594 96.3676 30.6707 96.498 31.212C96.5381 31.3724 96.3576 31.5829 96.2674 31.8135Z" fill="#004F84"/>
<path d="M13.3448 55.5922C13.8862 54.5396 15.039 54.0685 15.7207 53.1562C15.2595 54.279 14.1669 54.8103 13.3448 55.5922Z" fill="#004F84"/>
<path d="M59.8384 24.626C59.3773 25.5081 58.5252 26.1697 57.5629 26.7712C57.5929 26.4705 57.603 26.4705 58.6756 25.5984C59.1066 25.2475 59.5176 24.8866 59.8384 24.626Z" fill="#004F84"/>
<path d="M13.6256 51.8926C13.1845 53.0354 12.4527 53.9576 11.4603 54.6794C12.182 53.7471 12.9038 52.8148 13.6256 51.8926Z" fill="#004F84"/>
<path d="M65.0111 52.5742C64.5399 53.4664 63.768 53.9776 62.8257 54.2684C63.3771 53.4864 64.4196 53.316 65.0111 52.5742Z" fill="#004F84"/>
<path d="M26.908 29.117C26.6473 28.1546 27.3591 27.1522 28.3415 27.1622C28.1009 27.3927 27.9706 27.6434 27.8002 27.6734C27.339 27.7436 27.2789 28.0544 27.1887 28.4052C27.1185 28.6458 26.9982 28.8764 26.908 29.117Z" fill="#004F84"/>
<path d="M61.9035 53.2758C62.525 52.7044 63.337 52.4137 64.0487 51.9727C63.5275 52.6844 62.8157 53.1154 62.0539 53.4663C62.0037 53.4062 61.9536 53.346 61.9035 53.2758Z" fill="#004F84"/>
<path d="M56.3599 23.3028C57.0516 22.5209 57.7433 21.7389 58.425 20.957C57.9839 21.9495 57.3724 22.8015 56.4702 23.403C56.4301 23.3629 56.4 23.3328 56.3599 23.3028Z" fill="#004F84"/>
<path d="M72.2889 50.921C72.1585 50.6102 71.9781 50.2994 71.9079 49.9686C71.8678 49.7681 71.9781 49.5276 72.0382 49.2168C72.76 49.9285 72.8001 50.51 72.2889 50.921Z" fill="#004F84"/>
<path d="M94.8339 29.6182C94.5933 30.2096 94.3928 30.6808 94.7237 31.202C94.7738 31.2822 94.5833 31.5228 94.4931 31.6932C93.8716 31.2722 94.0219 30.2798 94.8339 29.6182Z" fill="#004F84"/>
<path d="M107.705 24.6865C107.856 24.0349 109.029 22.7117 109.8 22.3809C109.099 23.1427 108.397 23.9146 107.705 24.6865Z" fill="#004F84"/>
<path d="M106.152 23.7842C106.021 24.3957 106.563 25.0874 105.931 25.6588C105.59 24.9169 105.67 24.135 106.152 23.7842Z" fill="#004F84"/>
<path d="M84.5688 36.9262C85.0701 36.1443 86.0124 36.1142 86.4935 35.4727C86.3833 36.0942 85.451 36.8059 84.5688 36.9262Z" fill="#004F84"/>
<path d="M57.3123 24.7862C57.9638 24.1948 58.6154 23.6033 59.267 23.0219C59.2269 22.9818 59.1768 22.9317 59.1367 22.8916C59.0565 23.453 58.0942 24.5055 57.3123 24.7862Z" fill="#004F84"/>
<path d="M135.503 54.6299C135.393 54.7201 135.233 54.9707 135.102 54.9507C134.912 54.9206 134.671 54.7502 134.581 54.5798C134.411 54.259 134.571 53.9883 134.812 53.7979C135.042 54.0685 135.243 54.3091 135.503 54.6299Z" fill="#004F84"/>
<path d="M129.228 49.026C128.987 49.5272 128.336 49.6274 128.045 49.2465C127.995 49.1763 127.995 48.9959 128.045 48.9458C128.155 48.8455 128.326 48.7353 128.446 48.7553C128.697 48.7954 128.937 48.9257 129.228 49.026Z" fill="#004F84"/>
<path d="M48.4807 21.0771C48.8616 20.3252 49.2325 19.5734 49.6134 18.8115C49.6736 18.8416 49.7437 18.8817 49.8039 18.9118C49.433 19.6736 49.0621 20.4355 48.7012 21.1974C48.631 21.1573 48.5608 21.1172 48.4807 21.0771Z" fill="#004F84"/>
<path d="M84.4586 35.7237C84.9397 35.0019 85.3908 34.3504 85.8419 33.6787C85.9422 34.3403 85.2906 35.3428 84.4586 35.7237Z" fill="#004F84"/>
<path d="M79.6569 33.7084C79.3561 34.2998 79.1456 34.3901 78.7547 34.1395C78.6344 34.0593 78.504 33.7886 78.5542 33.7084C78.9351 33.0869 79.2258 33.8287 79.6569 33.7084Z" fill="#004F84"/>
<path d="M61.3121 52.7852C61.5827 52.0734 62.1942 51.8228 62.8558 51.6123C62.6052 52.3441 61.7532 52.304 61.3121 52.7852Z" fill="#004F84"/>
<path d="M57.9238 28.3753C58.4551 27.9643 58.9864 27.5633 59.5177 27.1523C59.5578 27.2025 59.5979 27.2626 59.648 27.3127C59.3172 27.9543 58.5553 28.0946 58.0942 28.5858C58.034 28.5157 57.9839 28.4455 57.9238 28.3753Z" fill="#004F84"/>
<path d="M50.8766 20.145C50.4455 20.7966 50.0145 21.4381 49.5834 22.0897C49.5233 22.0496 49.4631 22.0095 49.403 21.9694C49.834 21.3178 50.2651 20.6662 50.6961 20.0146C50.7563 20.0547 50.8164 20.0948 50.8766 20.145Z" fill="#004F84"/>
<path d="M60.7507 19.7646C60.3697 20.4062 59.9988 21.0478 59.6179 21.6893C59.5778 21.6693 59.5377 21.6392 59.5076 21.6192C59.6279 20.8272 60.0991 20.2358 60.7507 19.7646Z" fill="#004F84"/>
<path d="M50.5958 54.7298C50.1347 55.1107 49.6736 55.4816 49.2024 55.8626C49.1523 55.8024 49.1022 55.7423 49.0421 55.6821C49.4932 55.3012 49.9543 54.9102 50.4054 54.5293C50.4756 54.5894 50.5357 54.6596 50.5958 54.7298Z" fill="#004F84"/>
</g>
<defs>
<clipPath id="clip0_1081_2086">
<rect width="148" height="77.523" fill="white"/>
</clipPath>
</defs>
</svg>
