<svg width="148" height="78" viewBox="0 0 148 78" fill="none" xmlns="http://www.w3.org/2000/svg">
<g clip-path="url(#clip0_8225_286)">
<path d="M142.913 0.869629H5.08691C2.87777 0.869629 1.08691 2.66049 1.08691 4.86963V72.6545C1.08691 74.8636 2.87777 76.6545 5.08691 76.6545H142.913C145.122 76.6545 146.913 74.8636 146.913 72.6545V4.86963C146.913 2.66049 145.122 0.869629 142.913 0.869629Z" fill="white" stroke="#EC008C" stroke-dasharray="4 4"/>
<mask id="mask0_8225_286" style="mask-type:luminance" maskUnits="userSpaceOnUse" x="35" y="7" width="77" height="64">
<path d="M112 7H35.55V70.9687H112V7Z" fill="white"/>
</mask>
<g mask="url(#mask0_8225_286)">
<path fill-rule="evenodd" clip-rule="evenodd" d="M110.498 31.5613C109.097 29.3075 106.801 27.9928 104.189 27.9416C103.728 27.933 103.25 27.9672 102.771 28.0355C101.849 28.1721 100.996 28.5306 100.244 28.966C99.8774 28.7953 99.4847 28.7099 99.0834 28.7014C98.7846 28.6929 98.4858 28.7355 98.1956 28.8209C96.6589 29.2819 95.1222 29.8795 93.6111 30.6052C94.0721 29.9393 94.6783 29.1709 95.4722 28.2916C97.6663 25.8585 100.074 23.9718 100.099 23.9547C101.252 23.0583 101.559 21.4363 100.825 20.1813C99.6469 18.1836 98.1443 16.3482 96.215 14.5724C96.1125 14.47 95.993 14.3846 95.882 14.3078C95.8479 14.2224 95.8052 14.1285 95.7625 14.0431C94.6185 11.7381 92.9196 9.73188 90.9988 8.39155C90.5121 8.05007 89.9487 7.87932 89.3938 7.87079C89.0096 7.86225 88.6254 7.93055 88.2669 8.07568C86.9266 7.73419 84.5532 7.16221 82.3336 7.05976C79.0126 6.75242 72.1061 7.34149 69.6815 14.8798C69.6815 14.8798 69.1437 10.338 68.2815 8.64767C68.0936 8.28057 67.5046 7.6659 66.1813 7.69151C65.413 7.70004 63.7141 7.83664 62.1859 8.28911C59.0614 9.21112 57.1234 10.799 56.8673 11.021C56.6453 11.2088 56.4575 11.4308 56.3039 11.6698C55.7916 11.7381 55.2965 11.9515 54.8867 12.2759C54.3659 12.6943 49.7815 16.4677 48.0655 21.4278C47.8606 22.0254 47.6984 22.5888 47.5875 23.1266C45.9995 21.8205 44.3775 20.8131 42.2517 19.985C41.9273 19.8569 41.5858 19.7972 41.2529 19.7886C40.1943 19.7715 39.1698 20.3265 38.6405 21.3082C38.4186 21.7095 33.2621 31.3223 36.8136 38.9972C38.4783 42.5913 41.5517 45.0415 45.2995 45.861C43.9336 46.5269 42.6274 47.3465 41.4322 48.2856C40.4589 49.0539 37.4966 51.3845 37.5478 54.9275C37.5819 57.7191 39.2637 59.6741 40.5272 60.912C43.7031 64.0195 48.1851 65.7781 53.1537 65.8721C53.4951 65.8806 53.8281 65.8806 54.1696 65.8635C58.2589 65.744 62.3482 64.8135 65.6947 63.2426C66.1984 64.2073 66.9924 65.1464 68.2729 65.7952C69.0669 66.1965 69.8779 66.4014 70.6975 66.4184C71.9695 66.444 73.1305 66.0343 74.1721 65.1891C74.616 65.4964 75.1026 65.7611 75.6234 65.966C76.3149 66.2391 77.0491 66.3843 77.7833 66.4014C79.0468 66.427 80.242 66.0684 81.2494 65.3854C81.6762 65.4708 82.1031 65.5135 82.5385 65.522H82.5812C82.9397 65.5306 83.2897 65.505 83.6398 65.4623C83.5971 66.1538 83.6824 66.8624 83.93 67.5539C84.6471 69.5601 86.5595 70.9346 88.6937 70.9773C89.3255 70.9858 89.9402 70.8919 90.5292 70.6785C90.8878 70.5504 91.2293 70.3797 91.5366 70.1833C92.1598 70.465 92.8428 70.6272 93.5428 70.6358C94.166 70.6443 94.7893 70.5419 95.3783 70.3284C96.8979 69.7821 98.0077 68.5954 98.5029 67.1782C99.4335 68.5356 100.979 69.4064 102.669 69.432C103.292 69.4406 103.915 69.3381 104.505 69.1332C107.185 68.1685 108.585 65.2062 107.621 62.5255C107.458 62.073 107.236 61.6547 106.963 61.2705C108.449 59.7082 109.234 57.4971 109.243 54.8677C109.251 52.7163 108.782 50.7613 108.329 48.8746C108.235 48.4648 108.133 48.0551 108.047 47.6453C107.885 46.9367 107.475 46.3391 106.921 45.9293C109.328 44.4951 111.018 42.2071 111.684 39.4923C112.367 36.7604 111.932 33.8664 110.498 31.5613Z" fill="#FFF200"/>
</g>
<mask id="mask1_8225_286" style="mask-type:luminance" maskUnits="userSpaceOnUse" x="35" y="7" width="77" height="64">
<path d="M112 7H35.55V70.9687H112V7Z" fill="white"/>
</mask>
<g mask="url(#mask1_8225_286)">
<path fill-rule="evenodd" clip-rule="evenodd" d="M85.5775 25.4913C89.6753 17.4921 93.0219 15.9383 93.0219 15.9383C91.9633 13.8211 90.5034 12.2844 89.2058 11.388L88.7106 11.8661C88.7106 11.8661 79.4905 8.82686 75.6744 12.5064C72.3279 15.7334 74.3512 24.2022 74.3512 24.2022L78.0904 23.0924C78.0904 23.0924 77.1428 19.4727 79.2685 17.3725C81.3943 15.2724 84.8262 17.9274 84.8262 17.9274C84.8262 17.9274 82.7517 26.6097 79.5076 28.3086C74.6414 30.8527 72.2596 24.612 72.2596 24.612L68.5203 25.7816C70.0655 36.1713 62.9968 41.3789 62.9968 41.3789C64.3969 42.8046 67.658 44.6145 69.1777 44.6487C74.3341 39.791 72.5413 30.3575 72.5413 30.3575C77.2111 34.2931 81.6675 33.115 85.5775 25.4913ZM66.4287 32.4918C67.53 22.2131 64.9176 11.2429 64.9176 11.2429C61.0845 11.7295 58.6172 13.8296 58.6172 13.8296C63.0651 22.8107 63.5431 36.897 63.5431 36.897C64.6957 36.1371 65.9335 34.0541 66.4287 32.4918ZM59.8722 26.4134C58.1306 25.8414 54.8267 27.6598 54.0499 26.2938C52.7949 24.0742 59.3343 22.4863 59.3343 22.4863C58.8563 20.0276 58.0196 17.475 56.5683 15.1443C56.5683 15.1443 52.1717 18.6616 50.6777 22.9729C49.4227 26.6097 50.3191 28.3342 52.6583 29.3074C55.2024 30.366 59.3856 28.8806 57.5672 32.1845C55.7914 35.3944 52.1632 38.6129 48.7654 38.3397C41.3551 37.7251 47.7238 27.8903 47.7238 27.8903C45.6322 25.867 43.848 24.373 41.0563 23.2888C41.0563 23.2888 36.3353 31.9198 39.3148 38.3568C43.4126 47.2098 57.0549 45.1267 60.8454 33.6358C61.904 30.4173 62.1345 27.1561 59.8722 26.4134ZM107.902 33.7041C107.339 32.7991 105.887 31.1088 103.079 31.5186C101.32 31.7747 99.5698 33.7297 99.1259 34.0882C99.1259 34.0882 99.032 33.0296 98.9125 32.2101C96.9063 32.8077 95.0196 33.6358 93.3463 34.5492L94.2939 37.2214C94.2939 37.2214 92.8084 38.297 91.5193 38.0153C90.1961 37.7336 89.5131 36.6067 89.2228 35.403C87.9935 30.1868 98.1868 22.2472 98.1868 22.2472C97.0855 20.3776 95.694 18.7555 94.1146 17.3042C94.1146 17.3042 82.2651 27.5573 84.9713 37.0848C85.7738 39.9191 87.874 42.0705 90.9217 42.1644C92.595 42.2156 94.1658 41.6436 95.6086 40.8496C97.8283 44.3669 102.336 45.8183 105.324 44.0425C109.225 41.7204 109.84 36.8201 107.902 33.7041ZM103.096 41.0545C101.986 41.157 101.158 40.252 100.628 39.3642C100.278 38.7837 99.9967 38.1434 99.826 37.486C99.826 37.5031 101.593 35.753 102.063 35.4798C102.387 35.292 102.754 35.1468 103.13 35.1554C104.103 35.1639 104.743 36.4274 104.965 37.2299C105.213 38.1775 105.486 40.8326 103.096 41.0545ZM81.4114 35.5652C79.4393 34.1992 76.7416 34.6688 75.3841 36.6238C74.0182 38.5788 74.5134 41.2765 76.4769 42.651C78.4404 44.0255 81.1467 43.5474 82.5041 41.5924C83.8701 39.6374 83.3834 36.9396 81.4114 35.5652Z" fill="#EC008C"/>
</g>
<mask id="mask2_8225_286" style="mask-type:luminance" maskUnits="userSpaceOnUse" x="35" y="7" width="77" height="64">
<path d="M112 7H35.55V70.9687H112V7Z" fill="white"/>
</mask>
<g mask="url(#mask2_8225_286)">
<path fill-rule="evenodd" clip-rule="evenodd" d="M104.701 59.913C105.836 58.7434 106.212 57.0531 106.22 55.4652C106.229 53.2199 105.58 51.06 105.093 48.8916C103.531 48.994 102.046 49.3953 100.646 50.0953C101.218 51.2564 101.551 52.4942 101.866 53.7663C102.208 55.1664 102.566 57.0275 101.593 58.2568C100.97 59.0508 100.296 59.0081 99.4248 58.7007C97.8198 58.1288 97.2563 56.6177 97.0258 55.0639C96.9661 54.6371 96.4965 51.4869 96.3258 50.2575C95.4806 50.0099 91.9377 51.0344 91.8438 51.3844C91.8438 51.393 91.8438 51.4015 91.8353 51.41C91.767 51.854 92.1255 52.5455 92.245 52.9894C92.5097 53.9626 92.7402 54.9529 92.817 55.9603C92.9707 58.0092 92.2707 59.9216 89.94 59.9728C88.1814 60.0069 87.8826 57.4543 87.8655 56.1567C87.8484 55.0981 87.8996 54.0395 88.0192 52.9809C88.0875 52.4003 88.1643 51.8113 88.1728 51.2308C87.9167 50.8637 85.2104 50.8978 84.1177 51.282C84.1775 52.5284 84.1092 53.8004 84.1689 55.0554C84.2201 56.0969 84.3567 57.2409 84.075 58.2568C83.9896 58.5471 83.9043 58.8459 83.725 59.0934C82.7518 60.4082 81.9493 58.6666 81.7956 57.8983C81.548 56.6689 81.9151 55.4566 82.1968 54.27C82.2566 54.0309 83.0591 51.2734 82.8969 51.1881C82.5469 50.7868 78.7478 51.0942 78.7308 51.2137C78.4576 53.126 78.671 55.2176 78.7137 57.147C78.7308 57.9751 78.6881 60.7326 77.1941 60.2033C76.4684 59.9472 76.4172 58.9056 76.3916 58.2653C76.3318 56.464 76.8014 54.7139 77.1172 52.9638C77.2368 52.315 77.3904 51.6832 77.5612 51.0515C77.1429 50.5051 73.3268 50.7527 73.3438 51.2137C73.3694 52.3747 73.4463 53.5699 73.4121 54.7395C73.3694 56.4982 73.4121 58.7861 71.9694 60.0667C71.3632 60.6045 70.612 60.2118 70.4668 59.4776C70.3046 58.6068 70.7144 57.3689 70.8595 56.4982C71.1754 54.6456 71.5681 52.8016 72.0206 50.9746C70.6973 50.3514 69.2119 49.8733 67.4959 49.7794C67.8459 52.6138 65.9763 55.6274 63.8591 57.3263C61.665 59.0934 58.8392 59.8362 56.0988 60.2203C54.067 60.5106 51.9156 60.5789 49.9094 60.1008C48.5862 59.785 45.0945 58.4276 45.7945 56.5579C46.0677 55.8408 46.7592 55.3713 47.4336 55.0127C48.9703 54.2017 50.6607 53.6809 52.3852 53.4931C52.5986 52.9126 50.8656 47.6366 50.5924 47.6281L50.5582 47.6366C47.8434 48.2342 45.2652 49.455 43.0797 51.1795C41.7565 52.2211 40.2795 53.7065 40.3051 55.4993C40.3307 57.1043 41.304 58.3593 42.4053 59.4349C45.436 62.4059 49.7472 63.6779 53.9219 63.5584C57.9855 63.4474 62.4931 62.4144 66.0019 60.3143C66.5312 59.9984 67.0349 59.6484 67.5044 59.2642C67.5215 59.5971 67.5386 59.9216 67.5642 60.2545C67.6837 61.6887 68.0337 63.0974 69.4253 63.7974C71.5169 64.856 72.9767 63.0547 73.95 61.1253C74.4622 62.3376 75.2562 63.362 76.5367 63.8657C77.86 64.3865 79.3198 64.0194 80.1906 62.8839C80.2504 62.8071 80.3016 62.7217 80.3528 62.6449C80.9931 63.012 81.7358 63.2083 82.47 63.2169C84.0238 63.234 85.3641 62.551 86.3203 61.4838C86.4483 61.6375 86.5764 61.7912 86.7215 61.9278C88.2667 63.3449 90.6486 63.4986 92.4414 62.4229C93.5939 61.7314 94.4476 60.707 95.0623 59.5374C95.9245 60.6728 97.0941 61.5095 98.665 61.7826C100.449 62.09 102.455 61.6887 103.915 60.5874C104.231 60.3655 104.487 60.1435 104.701 59.913ZM101.901 62.7559C100.731 63.1742 100.125 64.4633 100.543 65.6329C100.961 66.8025 102.251 67.4086 103.42 66.9903C104.59 66.572 105.196 65.2829 104.778 64.1133C104.351 62.9437 103.062 62.3376 101.901 62.7559ZM92.7658 63.9596C91.5962 64.3779 90.9901 65.667 91.4084 66.8366C91.8267 68.0062 93.1158 68.6123 94.2854 68.194C95.455 67.7757 96.0611 66.4866 95.6428 65.317C95.2245 64.1474 93.9354 63.5413 92.7658 63.9596ZM87.8996 64.3011C86.7301 64.7194 86.1239 66.0085 86.5422 67.1781C86.9606 68.3477 88.2497 68.9538 89.4193 68.5355C90.5888 68.1172 91.195 66.8281 90.7767 65.6585C90.3583 64.4889 89.0692 63.8828 87.8996 64.3011ZM61.5882 51.9906C62.8176 51.8283 63.6883 50.7014 63.5261 49.4721C63.3639 48.2428 62.237 47.372 61.0077 47.5256C59.7783 47.6878 58.9075 48.8147 59.0698 50.0441C59.232 51.282 60.3589 52.1528 61.5882 51.9906ZM56.4232 52.1698C57.6526 52.0076 58.5234 50.8807 58.3612 49.6514C58.199 48.422 57.0721 47.5512 55.8427 47.7049C54.6134 47.8671 53.7426 48.994 53.9048 50.2234C54.0585 51.4613 55.1854 52.332 56.4232 52.1698Z" fill="#00AEEF"/>
</g>
</g>
<defs>
<clipPath id="clip0_8225_286">
<rect width="148" height="77.523" fill="white"/>
</clipPath>
</defs>
</svg>
