<svg xmlns="http://www.w3.org/2000/svg" width="148" height="77.523" viewBox="0 0 148 77.523">
  <g id="nardebam" transform="translate(-184 -113)">
    <g id="Rectangle_66" data-name="Rectangle 66" transform="translate(184 113)" fill="#fff" stroke="#8660a9" stroke-width="1" stroke-dasharray="4 4">
      <rect width="148" height="77.524" rx="4" stroke="none"/>
      <rect x="0.5" y="0.5" width="147" height="76.524" rx="3.5" fill="none"/>
    </g>
    <g id="nardebam-2" data-name="nardebam" transform="translate(199 120)">
      <path id="Path_16011" data-name="Path 16011" d="M205.063,387.146a16.794,16.794,0,0,1-9.025,3.162c-3.445.159-8.281-.451-11.181-2.558l-.517-.376a15.649,15.649,0,0,1-3.759,2.047,15.224,15.224,0,0,1-3.826.906,15.658,15.658,0,0,1-12.282-4.047,7.717,7.717,0,0,1-13.107,2.673l-9.9,5.955-2.136-2.646c-4.611-5.712-7.615-12.927-7.291-20.354.268-6.136,2.9-12.231,8.166-15.671a15.693,15.693,0,0,1,6.449-2.405,18.982,18.982,0,0,1,3.926-.146l-2.763-1.17a9.276,9.276,0,0,0-4.6-.242c-4.984.994-10.33-1.326-11.123-6.766a8.037,8.037,0,0,1,2.211-6.734c3.512-3.631,9.446-3.331,13.981-1.781q.175-.452.365-.894l1.1-2.55,11.824.854-2.165,3.488,7.489-1.783-.116,2.835a7.727,7.727,0,0,1,1.107.517l-.028-.226,4.537-.152a20.659,20.659,0,0,1,1.062-3.022l1.188-2.684,5.473.745a5.377,5.377,0,0,1,4.418-.244l.53-.181a45.625,45.625,0,0,1,10.831-2.5l3.287-.194,1.1,4.721a8.521,8.521,0,0,1,8.311.807,7.6,7.6,0,0,1,7.306.73l10.383-3.315.131,1.747a8.64,8.64,0,0,1,4.456-.662,21.253,21.253,0,0,1,3.807.966,3.494,3.494,0,0,0,1.915-.183l4.823-1.354.082,3.081a8.412,8.412,0,0,1,2.715.28,7.306,7.306,0,0,1,2.864,12.578,7.616,7.616,0,0,1-8.605.755,9.347,9.347,0,0,1-1.446.571,7.719,7.719,0,0,1,6.063,7.536c0,.191-.007.38-.021.568l4.094-1.311,1.25,3.6c2.76,7.946.64,16.746-6.827,21.222a16.458,16.458,0,0,1-16.364.282,24.763,24.763,0,0,1-7.459,6.766,25.764,25.764,0,0,1-6.346,2.781l-3.111.8-3.251-6.818h0Zm6.056-9.926a8.889,8.889,0,0,0,3.637-6.809,15.959,15.959,0,0,0-1.163-6.76l-1.8-3.994L224.5,355.6a5.542,5.542,0,0,1-2-3.587,7.65,7.65,0,0,1-5.449-.493,8.818,8.818,0,0,1-2.643.445,14.456,14.456,0,0,1-8.747,3l-2.542-.051-1.57-3.757a13.863,13.863,0,0,1-2.365-.473l-.717,2.649-7.718-1.229a8.779,8.779,0,0,1-3.646.695,10.888,10.888,0,0,1-2.875-.457,8.561,8.561,0,0,1-3.482.817l-2.942,3.912c-2.75,3.657-5.427,9.243-5.214,13.96a5.568,5.568,0,0,0,1.375,3.62,2.17,2.17,0,0,0,1.5.756.584.584,0,0,0,.208-.065c.635-.334.658-.568.537-1.267a6.911,6.911,0,0,0-.9-2.262l-2.175-3.292,12.864-8.23,2.037,3.561q.13.227.254.458l5.195-10.306,3.415,1.558c8.846,4.033,15.734,12.846,14.225,21.654Zm23.275-10.309a7.7,7.7,0,0,1-4.7-2.434c.161.725.322,1.441.472,2.132l.012.057.011.058c.248,1.337.876,3.376,2.214,4.047a1.936,1.936,0,0,0,1.913-.106c1.222-.773.863-2.245.3-3.329l-.223-.426h0Zm-71.8-13.311q-.308-.049-.614-.125a7.458,7.458,0,0,1-4.975-.361,6.5,6.5,0,0,1-1.3.2l-1.444.07-.231-.179a8.167,8.167,0,0,1-1.646-.432l-.267,1.092a14.228,14.228,0,0,1,6.1,2.492,13.266,13.266,0,0,1,2.257,2.069q.087-.234.177-.466a46.5,46.5,0,0,1,1.948-4.359h0Zm27.587,15.538a19.779,19.779,0,0,1,.638,5.2,16.522,16.522,0,0,0,4.04.955c.377.036,1.318-.077,1.56-.414a.071.071,0,0,1,0-.009c.137-1.3-1.314-2.665-2.284-3.3-1.3-.844-2.619-1.652-3.955-2.433Zm-39.568,10.611a13.447,13.447,0,0,1-2.632-.461,17.46,17.46,0,0,0,1.724,2.529,7.668,7.668,0,0,1,.909-2.068h0Z" transform="translate(-132.018 -331)" fill="#f2f2f3" fill-rule="evenodd"/>
      <path id="Path_16012" data-name="Path 16012" d="M211.481,369.514a1.453,1.453,0,1,0-1.459-1.453,1.453,1.453,0,0,0,1.459,1.453Zm9.626-2.143a30.98,30.98,0,0,1,4.477-.638l-.571-2.454c-3.751.223-9.8,2.3-9.8,2.3l.532,2.389a50.716,50.716,0,0,1,5.359-1.595h0ZM210,372.266a1.453,1.453,0,1,0-1.459-1.453A1.453,1.453,0,0,0,210,372.266Zm-21.3,4.5a1.286,1.286,0,1,1,1.292-1.286,1.287,1.287,0,0,1-1.292,1.286Zm4.108-2.855a1.286,1.286,0,1,1-1.292,1.286,1.286,1.286,0,0,1,1.292-1.286Zm-1.393,4.849a3.8,3.8,0,0,0,4.408-1.442,4.806,4.806,0,0,0,3.741,1,5.526,5.526,0,0,0,1.04-.232c3.664-1.194,3.059-5.986,3.059-5.986l-2.511.084s.228,1.851-.633,2.709a2.027,2.027,0,0,1-.924.493,3.11,3.11,0,0,1-3.174-1.711,7.731,7.731,0,0,0-.492-.71,3.418,3.418,0,0,0-3.331-1.311,2.089,2.089,0,0,0-.4.126,2.279,2.279,0,0,1-.527-1.491l-2.294.546a3.751,3.751,0,0,0,.192,1.222,2.871,2.871,0,0,0-.69-.1,3.537,3.537,0,0,0-1.237.222,4.566,4.566,0,0,0-1.7,1.339,3.523,3.523,0,0,0-.4.8l-.011-.006s0,.03-.014.08c-.034.1-.064.209-.088.317a1.351,1.351,0,0,1-1.034.974c-.937.025-1.942-.577-2.061-2.534a11.346,11.346,0,0,1,1.408-6.133l-2.616-.189a14.991,14.991,0,0,0-1.344,7.646,4.489,4.489,0,0,0,4.6,4.112l.021.017a3.052,3.052,0,0,0,1.819-.786,3.543,3.543,0,0,0,4.631.616,5.358,5.358,0,0,0,.537.312l.034.017h0Zm-20.076-1.128a12.717,12.717,0,0,1,6.85.463l.613-2.506a12.117,12.117,0,0,0-7.51-.525c-5.677,1.376-5.8-6.287,4.624-2.442l.909-2.406s-7.45-3.035-10.828.458c-2.8,2.9-.539,8.131,5.343,6.958Zm35.552.129a4.778,4.778,0,0,0,5.854-.716c.519.676,5.677,2.72,7.712-1.833,1.2-2.694-.7-7.282-.7-7.282l-2.452.709c1.405,3.108,1.72,6.7-.988,7s-2.534-3.241-2.534-3.241l-2.216.044a4.3,4.3,0,0,1-.506,2.2,2.188,2.188,0,0,1-3.9-1.188,11.6,11.6,0,0,1,1.26-6.28l-2.51-.342c-1.058,2.391-2.873,8.688.98,10.932h0Zm-5.263,1.527a1.459,1.459,0,1,0,1.459-1.453,1.459,1.459,0,0,0-1.459,1.453Zm22.828-6.218c-2.48.9-2.968,4.574-2.968,4.574l2.992.476c1.229-4.54,3.55-1.619,6.963-1.62a7.943,7.943,0,0,0,4.762-1.739l-1.46-2.025a3.319,3.319,0,0,1-2.393.69c-1.258-.368-1.835-2.159.1-2.763,1.169-.366,2.441.881,2.441.881l1.436-1.715c-1.051-1.131-3.74-2.772-6.246-.953a3.337,3.337,0,0,0-1.053,4.645,5.144,5.144,0,0,0-4.571-.453Zm14.683-.457a1.292,1.292,0,1,1,1.116,1.441,1.292,1.292,0,0,1-1.116-1.441Zm10.229-.115a1.286,1.286,0,1,1-1.292,1.286,1.286,1.286,0,0,1,1.292-1.286Zm-10.1,3.646c-1.829,1.595-5.673,1.694-5.673,1.694l1.01,2.417a10.666,10.666,0,0,0,7.335-3.134,4.294,4.294,0,0,0,4.079-.93c4.034,3.3,6.365-.286,6.365-.286,2.731,2.377,5.241,1.447,6.988.739.291-.158.558-.308.806-.453,2.674,2.064,5.647,1.289,7.689-1.167,1.244-1.494,2.772-2.684,4-1.835a1.161,1.161,0,0,1-.552,2.087.749.749,0,0,1-.28.033,1.077,1.077,0,0,1-.374-.077,3.172,3.172,0,0,1-1.427-1.376c-.64.582-1.579,1.62-1.579,1.62.83,1.321,3.593,3,5.768,1.143a3.4,3.4,0,0,0-1.318-5.836c-2.661-.7-4.429,1.021-6.509,2.931-1.337,1.227-2.406,1.254-3.2.928.714-.621,1.192-1.2,1.9-1.929a3.89,3.89,0,0,1,2.3-1.286l-.072-2.668c-3.861,1.084-4.14-.286-7.251-.667a5.083,5.083,0,0,0-4.738,2.358l1.675,1.93a3.69,3.69,0,0,1,5.049-.429c-.574,1.071-3.365,3.585-6.127,2.549-3.108-1.167-3.494-6.146-3.494-6.146l-2.537.81.287.977a4.639,4.639,0,0,0-3.255,2.406,3.274,3.274,0,0,1-2.458,1.923,3.686,3.686,0,1,0-4.412,1.675h0Zm15.954,4.344a1.655,1.655,0,1,0,1.655-1.648,1.655,1.655,0,0,0-1.655,1.648Z" transform="translate(-160.765 -360.182)" fill="#83c442" fill-rule="evenodd"/>
      <path id="Shape_2_copy" data-name="Shape 2 copy" d="M175.494,517.134l-1.955,5.406a11.24,11.24,0,0,0,6.582,2.67,8.183,8.183,0,0,0,7.3-3.973c3.682-6.318-.779-15.664-11.34-14.2-11.271,1.564-16.163,18.062-4.823,32.11l6.062-3.647c-4.024-3.763-7.285-10.271-5.735-16.023,2.665-9.891,12.367-6.214,11.34-2.02-.564,2.3-4.126,3.315-7.43-.326h0Zm10.541,12.243a3.81,3.81,0,1,0,3.812,3.811,3.81,3.81,0,0,0-3.812-3.811Zm38.123-20.919-3.3,6.548c1.173.683,2.722,1.613,4.29,2.634,2.269,1.477,4.344,4.039,4.035,6.975-.295,2.8-3.269,4.142-5.811,3.9a21.227,21.227,0,0,1-5.407-1.331l-1.932,6.747s2.879,2.085,8.706,1.816a12.589,12.589,0,0,0,7.9-3.266c8.276-8.788,1.116-19.646-8.486-24.024h0Zm40.1-3.667a3.81,3.81,0,1,0,3.812,3.811,3.81,3.81,0,0,0-3.812-3.811Zm-56.807,14.229s4.192,6.347-1.082,9.122c-3.543,1.864-8.525-1.441-8.8-7.589-.143-3.162.845-9.634,5.993-16.481l-6.587-2.764s-8.262,11.744-5.448,23.708c2.1,8.936,10.191,12.508,16.554,10.1,7.24-2.745,10.143-11.76,5.444-19.976l-6.071,3.884Zm66.158-6.283-6.657,2.13c4.754,9.085-9.369,14.6-11.719,1.907-1.382-6.391-1.568-7.826-1.568-7.826l-7.638,2.436s7.158,15.828-9.6,21.246l2.906,6.094s9.591-2.459,13.489-11.35c10.81,9.443,25.707-.468,20.786-14.638h0Z" transform="translate(-160.772 -480.336)" fill="#8660a9" fill-rule="evenodd"/>
    </g>
  </g>
</svg>
