<svg xmlns="http://www.w3.org/2000/svg" width="148" height="77.523" viewBox="0 0 148 77.523">
  <g id="chandkonkoor" transform="translate(-184 -113)">
    <g id="Rectangle_66" data-name="Rectangle 66" transform="translate(184 113)" fill="#fff" stroke="#ec008c" stroke-width="1" stroke-dasharray="4">
      <rect width="148" height="77.524" rx="4" stroke="none"/>
      <rect x="0.5" y="0.5" width="147" height="76.524" rx="3.5" fill="none"/>
    </g>
    <path id="Rounded_Rectangle_1_copy_7" data-name="Rounded Rectangle 1 copy 7" d="M164.957,479.605a23.426,23.426,0,0,0-3.541-.528,22.166,22.166,0,0,0-5.988,1.706,21.379,21.379,0,0,1-6.78,1.706H147.33v-5.164h2.882a33.541,33.541,0,0,0,8.455-.908q-1.864-1.021-4.558-2.857a5.843,5.843,0,0,0-2.278-1.173q-.565,0-2.053,2.582a1.268,1.268,0,0,1-.706-.188,1.305,1.305,0,0,1-.574-.471q2.919-6.332,4.709-6.333,1.166,0,3.8,2.036,4.03,3.091,4.991,3.694a9.644,9.644,0,0,0,5.48,1.79Zm-23.454,1.54a5.442,5.442,0,0,1-1.525-2.821,4.966,4.966,0,0,1-1.6,2.783,4.178,4.178,0,0,1-2.862,1.382H134.2v-5.164h1.13a3.389,3.389,0,0,0,2.994-1.7,5.663,5.663,0,0,0,.885-3.122h1.6a5.913,5.913,0,0,0,.848,3.311,3.23,3.23,0,0,0,2.9,1.514h1.13v5.164h-1.337A3.943,3.943,0,0,1,141.5,481.145Zm-14.6-2.765c-1.141,3.732-3.514,4.062-6.817,4.062l-2.57,0v-4.99c.924,0,3.061,0,3.135,0-.329.007,3.994.091,5.574-.688q-1.45-5.353-3.54-7.69l2.938-3.845a9.638,9.638,0,0,1,1.864,4.3l1.3,5.248q.885,2.548,2.373,2.548h1.393v5.164h-1.657q-2.58,0-3.993-4.109Zm-22.87-11.923c.087.028.171.059.257.088l-.1.011s5.476,2.031,6.44,5.785a21.134,21.134,0,0,0,.74,2.391,4.72,4.72,0,0,0,.412.907,2.588,2.588,0,0,0,2.087,1.586,4.093,4.093,0,0,0,.92.1h1.13v5.164h-1.337a3.943,3.943,0,0,1-2.843-1.344,5.607,5.607,0,0,1-1.336-2.116c-.008.028-.016.056-.024.084a10.3,10.3,0,0,1-8.116,3.376h-1.526v-5.164h1.619a34.457,34.457,0,0,0,3.635-.113,6.7,6.7,0,0,0,3.258-1.377q-1.658-3.773-7.326-6.055a52.526,52.526,0,0,1,.64-6.7,76.292,76.292,0,0,1,7.288-3.509,37.527,37.527,0,0,1,7.42-2.547l-2.147,5.036A74.651,74.651,0,0,0,104.029,466.457ZM95.3,481.145a5.442,5.442,0,0,1-1.525-2.821,4.966,4.966,0,0,1-1.6,2.783,4.178,4.178,0,0,1-2.862,1.382H87.995v-5.165h1.13a3.389,3.389,0,0,0,2.994-1.7A5.663,5.663,0,0,0,93,472.5h1.6a5.913,5.913,0,0,0,.847,3.311,3.23,3.23,0,0,0,2.9,1.514h1.13v5.164H98.145A3.943,3.943,0,0,1,95.3,481.145Zm-14.039-.13a17.858,17.858,0,0,1-2.684-2.928,18.188,18.188,0,0,0-2.627-2.891,2.949,2.949,0,0,1,.037.51,14.639,14.639,0,0,1-.414,2.873,7.969,7.969,0,0,1-3.6,2.966,11.236,11.236,0,0,1-4.614.945H62.236v-5.164H67.93q4.746,0,6.365-1.547a15.935,15.935,0,0,0-7.419-6.131,43.286,43.286,0,0,1,.6-6.433,56.435,56.435,0,0,1,15.649-6.225l-2.26,4.867a48.922,48.922,0,0,0-6.817,2.358q-3.239,1.339-4.821,2.169a27.752,27.752,0,0,1,6.78,4.075,35.4,35.4,0,0,1,3.54,3.264,28.681,28.681,0,0,0,2.731,2.565,5.024,5.024,0,0,0,2.994,1.038h1.092v5.164H85.217A6.326,6.326,0,0,1,81.263,481.015ZM62.6,475.7q-.791,5.286-5.518,10.818A12.572,12.572,0,0,1,53.3,485.8a13.824,13.824,0,0,1-3.5-1.6A26.091,26.091,0,0,0,56.65,480.4a15.423,15.423,0,0,0,3.691-4.712q-6.214,0-8.116-1.772a13.352,13.352,0,0,1,1.827-7.181,7.844,7.844,0,0,1,2.806-2.827,4.746,4.746,0,0,1,3.39,1.493,8.781,8.781,0,0,1,2.354,5.141,21.044,21.044,0,0,1,.168,2.47A25.013,25.013,0,0,1,62.6,475.7Zm-4.03-6.578a3,3,0,0,0-2.109-1.15q-.527,0-1.149.943a4.188,4.188,0,0,0-.659,1.432q.207.622,1.488.98a6.879,6.879,0,0,0,1.864.264,4.277,4.277,0,0,0,1.958-.4A7.719,7.719,0,0,0,58.571,469.125ZM44.617,486.692a9.78,9.78,0,0,1-3.484-.9,10.042,10.042,0,0,1-3.126-1.828,30.955,30.955,0,0,0,6.083-3.638q3.144-2.43,3.729-4.391a8.553,8.553,0,0,0-3.484-4.128l2.6-5.032a10.252,10.252,0,0,1,2.476,3.656,10.909,10.909,0,0,1,1.083,4.316,15.045,15.045,0,0,1-1.976,6.182A22.554,22.554,0,0,1,44.617,486.692Zm108.124-3.2h2.868a.71.71,0,0,1,.71.71v2.851a.71.71,0,0,1-.71.71h-2.868a.71.71,0,0,1-.71-.71V484.2A.71.71,0,0,1,152.741,483.49Zm4.915,0h2.871a.71.71,0,0,1,.71.71v2.851a.71.71,0,0,1-.71.71h-2.871a.71.71,0,0,1-.71-.71V484.2A.71.71,0,0,1,157.656,483.49Zm4.919,0h2.868a.71.71,0,0,1,.71.71v2.851a.71.71,0,0,1-.71.71h-2.868a.71.71,0,0,1-.71-.71V484.2A.71.71,0,0,1,162.574,483.49Zm-27.046-15.921H138.4a.71.71,0,0,1,.71.71v2.848a.71.71,0,0,1-.71.71h-2.868a.71.71,0,0,1-.71-.71v-2.848A.71.71,0,0,1,135.528,467.569Zm-46.136,0H92.26a.71.71,0,0,1,.71.71v2.848a.71.71,0,0,1-.71.71H89.393a.71.71,0,0,1-.71-.71v-2.848a.71.71,0,0,1,.71-.71Z" transform="translate(154.993 -320.989)" fill="#ec008c" fill-rule="evenodd"/>
  </g>
</svg>
