<svg xmlns="http://www.w3.org/2000/svg" width="148" height="77.381" viewBox="0 0 148 77.381">
  <g id="faslazmoon" transform="translate(-184 -113)">
    <g id="Rectangle_66" data-name="Rectangle 66" transform="translate(184 113)" fill="#fff" stroke="#399ed8" stroke-width="1" stroke-dasharray="4">
      <rect width="148" height="77.381" rx="4" stroke="none"/>
      <rect x="0.5" y="0.5" width="147" height="76.381" rx="3.5" fill="none"/>
    </g>
    <g id="fasle_azmun" data-name="fasle azmun" transform="translate(194 126)">
      <path id="Shape_1_copy_13" data-name="Shape 1 copy 13" d="M197.994,529.389a2.505,2.505,0,1,1-2.5-2.478A2.5,2.5,0,0,1,197.994,529.389Zm7.9,1.875a5.154,5.154,0,0,0-4.867-2.974,6.828,6.828,0,0,0-2.557,2.666,13.807,13.807,0,0,0-1.546,6.914,7.025,7.025,0,0,0,4.58,1.333,8.387,8.387,0,0,0,3.225-.591v1.954q-2.233,1.265-7.958,1.265h-2.481a9.241,9.241,0,0,1-3.626-.438,13.909,13.909,0,0,0,1.546-1.833,4.057,4.057,0,0,0,.668-1.107,4.488,4.488,0,0,0-1.469-3.131,5.309,5.309,0,0,0-3.951-1.719q-3.054,0-6.546,3.009a41.853,41.853,0,0,0-4.809,5.219q-3.951,0-3.951-4.591h-1.622a5.671,5.671,0,0,1-.783,3.137,3.052,3.052,0,0,1-2.691,1.451v-.016h-3.687v.019a1.91,1.91,0,0,1-1.947-1.411,8.776,8.776,0,0,1-.286-2.65v-6.379q0-5.4-1.241-6.919l-3.55,3.714c1.107,2.5,1.66,3.521,1.66,8.408V547.5a14.812,14.812,0,0,1-7.481,2.209q-3.931,0-3.931-3.732a10.343,10.343,0,0,1,.84-4.379,2.09,2.09,0,0,0-1.336-.5,20.615,20.615,0,0,0-2.271,8.361q0,5.293,5.439,5.294a14.269,14.269,0,0,0,6.851-1.734,10.2,10.2,0,0,0,3.149-2.38,17.3,17.3,0,0,0,1.45-5.573,2.814,2.814,0,0,0,2.653,1.981h3.687q2.9,0,4.37-3.657a5.189,5.189,0,0,0,1.279,2.393,5.956,5.956,0,0,0,4.18,1.264,19.232,19.232,0,0,0,10.725-3.028,15.524,15.524,0,0,0,2.252,1.936,7.665,7.665,0,0,0,4.1,1.09v0h2.1a25.89,25.89,0,0,0,5.382-.61,14.215,14.215,0,0,0,5-1.869,55.578,55.578,0,0,0,.649-7.341A12.825,12.825,0,0,0,205.9,531.264ZM202.4,535.47q-3.092,0-3.092-1.1a2.658,2.658,0,0,1,.438-1.371q.5-.8,1.088-.8a3.278,3.278,0,0,1,1.718.571,5.221,5.221,0,0,1,1.947,2.323A4.063,4.063,0,0,1,202.4,535.47Zm-23.875,6.552q3.625-4.914,6.794-4.914a3.385,3.385,0,0,1,2.223.762,2.506,2.506,0,0,1,.926,2.038Q186.125,542.022,178.529,542.022Zm-43.094-12.954a2.484,2.484,0,1,1-2.484-2.478A2.484,2.484,0,0,1,135.435,529.068ZM93.953,541a2.484,2.484,0,1,1-2.484-2.476A2.484,2.484,0,0,1,93.953,541Zm7.062-3.975a16.591,16.591,0,0,0-2.717-4.6l-2.133,5.281a12.92,12.92,0,0,1,3.577,7.132,8.359,8.359,0,0,1-3.8,2.418,16.823,16.823,0,0,1-6.036,1.132,8.587,8.587,0,0,1-4.677-.978,3.973,3.973,0,0,1-1.909-3.6,11.883,11.883,0,0,1,2.184-5.83.878.878,0,0,0-.568-.635,1.434,1.434,0,0,0-.808-.12Q80,543.1,80,546.713a6.184,6.184,0,0,0,2.511,5.4,10.552,10.552,0,0,0,6.175,1.526,17.654,17.654,0,0,0,7.274-1.509,12.762,12.762,0,0,0,4.952-3.617A22.454,22.454,0,0,0,102.219,542a13.3,13.3,0,0,0-1.2-4.972Zm27.716-5.161q-1.7-1.766-5.52-1.766a21.108,21.108,0,0,0-2.872,4.184q-1.737,3.051-2.425,3.052h-3.1a9.258,9.258,0,0,0-2.287-5.126,4.966,4.966,0,0,0-3.629-1.663,7.8,7.8,0,0,0-2.889,2.915,13.608,13.608,0,0,0-1.892,7.372q2.064,1.817,8.358,1.817a15.318,15.318,0,0,1-4.23,5.195,28.61,28.61,0,0,1-6.6,3.515,12.82,12.82,0,0,0,3.68,1.68,13.657,13.657,0,0,0,3.818.686q4.919-5.693,5.675-11.076h2.58q1.754,0,3.131-2.537,3.267,3.155,6.4,3.155,1.787-1.405,3.508-5.521,0-4.115-1.7-5.88Zm-19.794,6.412q-2-.257-2.3-1.148a4.4,4.4,0,0,1,.843-1.595q.635-.8,1.014-.806a3.353,3.353,0,0,1,1.857.857,6.57,6.57,0,0,1,1.754,2.3,5.122,5.122,0,0,1-3.163.395Zm18.573,1.08q-3.921-.891-5.4-2.983a3.717,3.717,0,0,1,1.513-2.263q3.955.926,3.955,4.492a3.23,3.23,0,0,0-.068.754Zm6.561-5.761-2.649,5.178a9.184,9.184,0,0,1,3.611,4.218,10.257,10.257,0,0,1-3.594,4.338,39.529,39.529,0,0,1-6.517,3.926,10.511,10.511,0,0,0,3.216,1.852,10.114,10.114,0,0,0,3.56.925,23.012,23.012,0,0,0,4.093-6.087q1.961-3.961,1.96-6.052a11.406,11.406,0,0,0-1.1-4.578,10.055,10.055,0,0,0-2.577-3.719Zm4.126-2.636q1.719,5.28,1.72,15.465v7.269l1.995-2.915a107.938,107.938,0,0,0,1.376-16.665,37,37,0,0,0-.516-7.1Zm1.548-6.858a5.752,5.752,0,0,1-.843-.069q-.464-.069-.876-.172-1.031.1-1.032,3.155.069.275.894.274.413-.891.723-1.576a9.03,9.03,0,0,0,1.927,0,7.1,7.1,0,0,0,2.15-.618q1.152-.514,1.152-.96a5.174,5.174,0,0,0-.069-1.132,9.312,9.312,0,0,1-4.026,1.1Z" transform="translate(-80 -504.174)" fill="#399ed8" fill-rule="evenodd"/>
      <path id="Path_16006" data-name="Path 16006" d="M761.763,574.6a1.224,1.224,0,1,1-.867.356A1.222,1.222,0,0,1,761.763,574.6Zm-51.788-4.217a1.224,1.224,0,1,1-1.225,1.224A1.224,1.224,0,0,1,709.975,570.386Zm0-2.663a1.224,1.224,0,1,1-1.225,1.224A1.224,1.224,0,0,1,709.975,567.723ZM701.2,579.49a1.224,1.224,0,1,1-1.226,1.224A1.224,1.224,0,0,1,701.2,579.49ZM694.4,568.919a2.77,2.77,0,0,1,1.036.2l1.155-2.553a4.4,4.4,0,0,0-1.494-.321q-2.92.068-4.3,4.87a8.558,8.558,0,0,0-.39,1.91,3.066,3.066,0,0,0,1.91.955,6.885,6.885,0,0,1,2.318.888,9.461,9.461,0,0,1-2.912,1.057,15.036,15.036,0,0,1-3.183.465q-3.022-.034-3.022-2.3a6.094,6.094,0,0,1,.747-2.824.716.716,0,0,0-.713-.355,14.718,14.718,0,0,0-1.019,2.325,7.561,7.561,0,0,0-.493,2.477,2.965,2.965,0,0,0,1.019,2.469,4.23,4.23,0,0,0,2.716.811,14.111,14.111,0,0,0,7.182-2.1,10.85,10.85,0,0,0,.832-3.517q0-.591-1.019-.981-1.155-.3-2.029-.575t-.909-.591Q692.772,568.919,694.4,568.919Zm8.133,5.216a4.728,4.728,0,0,1,1.086,1.911q0,.609-2.071.609h-.815a1.268,1.268,0,0,1-1.307-1.015,6.207,6.207,0,0,1-.187-1.826q.017-4.65-.034-5.072a4.677,4.677,0,0,0-.56-2.114l-1.732,1.826a9.346,9.346,0,0,1,.543,1.835,35.864,35.864,0,0,1,.229,3.618,13.84,13.84,0,0,0,.484,3.846,2.263,2.263,0,0,0,2.36,1.522h.645a3.621,3.621,0,0,0,3.022-1.336,6.9,6.9,0,0,0,.917-2.773,4.873,4.873,0,0,0-1.1-3.01Zm12.207-4.895a26.661,26.661,0,0,0-.323,3.365,6.5,6.5,0,0,1,3.735,3.077,3.336,3.336,0,0,1-1.647.71q-.39.051-1.85.051h-.628a1.648,1.648,0,0,1-1.494-.778,3.048,3.048,0,0,1-.407-1.657H711.3a3.091,3.091,0,0,1-.492,1.632,1.606,1.606,0,0,1-1.46.8h-.407a1.268,1.268,0,0,1-1.307-1.015,6.225,6.225,0,0,1-.187-1.826q.017-4.65-.034-5.072a4.68,4.68,0,0,0-.56-2.114l-1.732,1.826a9.332,9.332,0,0,1,.543,1.835,35.859,35.859,0,0,1,.229,3.618,13.849,13.849,0,0,0,.484,3.847,2.263,2.263,0,0,0,2.36,1.522h.7a2.106,2.106,0,0,0,1.434-.693,2.486,2.486,0,0,0,.823-1.4,2.969,2.969,0,0,0,.824,1.428,1.975,1.975,0,0,0,1.316.664v0h.781a5.291,5.291,0,0,0,4.126-1.708,12.706,12.706,0,0,0,.39-3.652,6.273,6.273,0,0,0-3.633-2.773,36.773,36.773,0,0,1,5.654-2.2l1.07-2.553a18.543,18.543,0,0,0-3.583,1.209A40.3,40.3,0,0,0,714.742,569.24Zm18.043,3.931a3.111,3.111,0,0,1-2.139-2.688,4.534,4.534,0,0,1,2.8-.794,3.8,3.8,0,0,1,1.375.2.573.573,0,0,0,.255.068q.119,0-.034-.3a3.1,3.1,0,0,0-2.682-1.775,3.808,3.808,0,0,0-2.4,1.209,3.445,3.445,0,0,0-1.332,2.527,2.145,2.145,0,0,0,1.137,1.978q-.9.1-1.069.1h-1.46q-.849,0-1.223-1.268-.254-1.454-.425-2.688a6.933,6.933,0,0,0-.764-2.519l-1.138,1.691a4.769,4.769,0,0,1,.307,1.048,11.007,11.007,0,0,0-3.362,1.843q-.442,1.4-.662,2.282.933,1.353,3.99,1.353a7.342,7.342,0,0,0,.866-1.893q.611,2.772,2.276,2.773h.8a12.008,12.008,0,0,0,2.411-.473q3.293-.845,5.009-1.2l1.086-2.4Zm-8.9.034a3.051,3.051,0,0,1-2.343-.676,5.949,5.949,0,0,1,1.248-.854,7.031,7.031,0,0,1,1.52-.635l.407,2.13a7.085,7.085,0,0,1-.832.035Zm18.765-2.164a4.562,4.562,0,0,0-1.129-2.528,2.451,2.451,0,0,0-1.791-.82,3.851,3.851,0,0,0-1.426,1.437,6.707,6.707,0,0,0-.934,3.635q1.019.9,4.126.9a7.558,7.558,0,0,1-2.088,2.562,14.167,14.167,0,0,1-3.26,1.733,6.333,6.333,0,0,0,1.817.828,6.75,6.75,0,0,0,1.885.338,10.861,10.861,0,0,0,2.8-5.461V571.04Zm-2.9.465q-.985-.127-1.137-.566a2.164,2.164,0,0,1,.416-.786q.314-.4.5-.4a1.654,1.654,0,0,1,.917.423,3.236,3.236,0,0,1,.866,1.133A2.531,2.531,0,0,1,739.75,571.505Zm33-.473a3.656,3.656,0,0,0-2.724-.871,10.346,10.346,0,0,0-1.419,2.063q-.857,1.5-1.2,1.505h-1.885a2.251,2.251,0,0,1-2.225-1.2q.493-.1,2.054-.3l1.036-2.3a21.272,21.272,0,0,1-3.53.457,8.811,8.811,0,0,1-3.287-1,10.822,10.822,0,0,0-2.606-1c-.4.011-.78.352-1.145,1.023a18.218,18.218,0,0,0-1.1,2.494.5.5,0,0,0,.7.186,6.819,6.819,0,0,1,.655-.972.854.854,0,0,1,.712-.263,28.36,28.36,0,0,1,4.068,1.42,18.1,18.1,0,0,1-2.676,1.15,8.987,8.987,0,0,1-2.435.3h-1.835q-.526,0-1.12-.837t-.968-1.344a3.156,3.156,0,0,0-1.971-1.2,3.566,3.566,0,0,0-1.732,1.234l-1.231,1.53a1.375,1.375,0,0,1-.959.617H742.7c-.02.873-.044,1.747-.044,2.621H746q.611,0,1.511-1.589a4.54,4.54,0,0,0,.764,1.184,3.341,3.341,0,0,0,1.886.913,2.337,2.337,0,0,0,1.3-.938q.535-.736.723-1.04.851,1.445,1.816,1.467v0h1.342a6.936,6.936,0,0,0,3.479-.981q.46-.27,3.668-2.485a6.243,6.243,0,0,0,1.443,2.621,3.412,3.412,0,0,0,2.461.845h.764q.867,0,1.546-1.251a4.661,4.661,0,0,0,3.157,1.555,6.864,6.864,0,0,0,1.732-2.722A4.1,4.1,0,0,0,772.75,571.032Zm-22.283,4.033a4.254,4.254,0,0,1-1.24-.82,2.06,2.06,0,0,1-.7-1.124,3.863,3.863,0,0,1,.764-.93,4.394,4.394,0,0,1,2.106,1.775A1.727,1.727,0,0,1,750.467,575.064Zm21.681-.338a4.281,4.281,0,0,1-2.665-1.471,1.828,1.828,0,0,1,.747-1.117,2.161,2.161,0,0,1,1.951,2.215A1.653,1.653,0,0,0,772.148,574.726Z" transform="translate(-665.224 -566.18)" fill="#a154a1" fill-rule="evenodd"/>
    </g>
  </g>
</svg>
