<svg xmlns="http://www.w3.org/2000/svg" width="148" height="77.523" viewBox="0 0 148 77.523">
  <g id="gb" transform="translate(-184 -113)">
    <g id="Rectangle_66" data-name="Rectangle 66" transform="translate(184 113)" fill="#fff" stroke="#ffd400" stroke-width="1" stroke-dasharray="4">
      <rect width="148" height="77.524" rx="4" stroke="none"/>
      <rect x="0.5" y="0.5" width="147" height="76.524" rx="3.5" fill="none"/>
    </g>
    <g id="GB-2" data-name="GB" transform="translate(196 125)">
      <path id="Shape_8_copy" data-name="Shape 8 copy" d="M452.793,524.8a5.114,5.114,0,0,1-.088.951,5.205,5.205,0,0,1-.243.878,3.306,3.306,0,0,1-.867,1.271,3.115,3.115,0,0,1-1.227.694,2.526,2.526,0,0,1-.436.086,4.429,4.429,0,0,1-.453.022,4.187,4.187,0,0,1-.878-.1,6.233,6.233,0,0,1-.913-.27c-.123-.054-.261-.118-.414-.194s-.314-.158-.483-.248-.335-.183-.5-.279-.318-.189-.46-.279a9.258,9.258,0,0,1-.735.6,4.539,4.539,0,0,1-.77.46,4.26,4.26,0,0,1-.864.293,4.541,4.541,0,0,1-.921.1c-.015,0-.029,0-.043,0h-.129a8.51,8.51,0,0,1-1.657-.154,6.315,6.315,0,0,1-1.414-.446,4.92,4.92,0,0,1-1.134-.712,3.829,3.829,0,0,1-.816-.951q-.911.433-1.892.843a20.478,20.478,0,0,1-2.038.725,18.571,18.571,0,0,1-2.19.509,13.97,13.97,0,0,1-2.355.194l-1.681-.009-.017,0a3.525,3.525,0,0,1-.9-.115,4.267,4.267,0,0,1-.8-.3,3.925,3.925,0,0,1-.666-.419,6.5,6.5,0,0,1-.546-.477,3.809,3.809,0,0,1-.6.63,2.789,2.789,0,0,1-.835.486,2.589,2.589,0,0,1-.909.145,4.257,4.257,0,0,1-.914-.1,7.621,7.621,0,0,1-.968-.284q-.193-.072-.441-.18t-.514-.239q-.267-.13-.528-.275t-.482-.288a6.643,6.643,0,0,1-.583.6,3.231,3.231,0,0,1-.62.441,2.962,2.962,0,0,1-.725.275,4.224,4.224,0,0,1-.9.1h-2.358v-2.847h2.257a1.735,1.735,0,0,0,.927-.248,3.038,3.038,0,0,0,.735-.64,5.433,5.433,0,0,0,.6-.883q.271-.491.519-.978t.473-.91a5.894,5.894,0,0,1,.5-.766,4.114,4.114,0,0,1,.519-.509,3.351,3.351,0,0,1,.6-.392,3.079,3.079,0,0,1,.661-.248,2.4,2.4,0,0,1,.7-.068,3.729,3.729,0,0,1,1.506.405,3.448,3.448,0,0,1,1.019.838,5.074,5.074,0,0,1,.7,1.135q.285.63.551,1.3a6.907,6.907,0,0,0,.307.662,4.331,4.331,0,0,0,.367.581,2.33,2.33,0,0,0,.422.437,1.263,1.263,0,0,0,.482.239,1.583,1.583,0,0,0,.229.036c.074.006.154.009.239.009h1.672a11.875,11.875,0,0,0,1.418-.09q.748-.09,1.528-.243t1.571-.365q.791-.212,1.539-.455t1.431-.514q.685-.27,1.264-.541a13.081,13.081,0,0,1-1.268-.379q-.7-.243-1.414-.478t-1.391-.4a4.74,4.74,0,0,0-1.207-.158,1.835,1.835,0,0,0-.656.14,2.914,2.914,0,0,0-.588.324,3.664,3.664,0,0,0-.487.415q-.215.221-.371.415t-.331.455l-2.176-1.225a8.14,8.14,0,0,1,.881-1.284,7.32,7.32,0,0,1,1.12-1.091,5.554,5.554,0,0,1,1.272-.753,3.314,3.314,0,0,1,1.336-.27,4.994,4.994,0,0,1,.987.117,9.538,9.538,0,0,1,.987.275q.5.167,1,.388t1.019.455q.523.252,1.162.5c.426.162.869.307,1.331.433a13.787,13.787,0,0,0,1.414.306,8.76,8.76,0,0,0,1.41.117l-.477,2.658c-.141.06-.3.131-.473.212s-.329.155-.464.221l-.238.117a1.5,1.5,0,0,0,.536.387,3.156,3.156,0,0,0,.672.212,4.77,4.77,0,0,0,.656.086c.208.012.375.018.5.018h.083a2.3,2.3,0,0,0,1.07-.234,2.893,2.893,0,0,0,.8-.613,4.99,4.99,0,0,0,.624-.847c.183-.312.358-.625.523-.938v.009c.16-.324.329-.646.51-.964a6.857,6.857,0,0,1,.592-.883,3.67,3.67,0,0,1,1.111-.879,2.867,2.867,0,0,1,1.313-.311,3.338,3.338,0,0,1,1.506.333,4.041,4.041,0,0,1,1.221.955,4.113,4.113,0,0,1,.67,1.113,5.01,5.01,0,0,1,.34,1.329V524A5.194,5.194,0,0,1,452.793,524.8Zm-29.907-.216a3.581,3.581,0,0,0-.317-.577,2.613,2.613,0,0,0-.432-.5,2.043,2.043,0,0,0-.542-.347,1.576,1.576,0,0,0-.638-.131.279.279,0,0,0-.188.131,2.56,2.56,0,0,0-.215.32q-.111.189-.215.405t-.188.379l.009-.009-.395.775q.3.2.707.41t.8.378a7.365,7.365,0,0,0,.721.266,1.14,1.14,0,0,0,.473.072.465.465,0,0,0,.252-.18,1.169,1.169,0,0,0,.2-.378,1.675,1.675,0,0,0,.078-.491A1.285,1.285,0,0,0,422.886,524.588Zm27.758.405a1.505,1.505,0,0,0-.164-.635,2.792,2.792,0,0,0-.432-.649,2.5,2.5,0,0,0-.61-.5,1.373,1.373,0,0,0-.7-.2c-.086,0-.2.12-.331.36s-.331.6-.589,1.072v-.009l-.284.577a5.171,5.171,0,0,0,.675.351q.392.171.776.306c.257.09.495.164.712.221a2.126,2.126,0,0,0,.492.086.673.673,0,0,0,.077,0c.028,0,.057-.008.088-.013a.43.43,0,0,0,.217-.275A1.546,1.546,0,0,0,450.644,524.993Zm-53.222.189a3.794,3.794,0,0,0,.941.324,4.1,4.1,0,0,0,1,.09q.523-.045,1.088-.126t1.061-.171q.285-.045.569-.1c.19-.036.379-.075.57-.117l.376,2.8q-.615.163-1.377.32t-1.726.289q-.964.131-2.158.207t-2.663.077l-1.991.018H391.9q-.189,0-.42-.013-.252-.014-.5-.054a4.871,4.871,0,0,1-.542-.118,3.627,3.627,0,0,1-.556-.2,3.413,3.413,0,0,1-.675-.41,3.22,3.22,0,0,1-.555-.581q-.468.063-.9.09t-.849.027a6.445,6.445,0,0,1-2.249-.347,3.58,3.58,0,0,1-1.478-.978,2.615,2.615,0,0,1-.464-.879,3.142,3.142,0,0,1-.142-.906,3.341,3.341,0,0,1,.064-.685,2.839,2.839,0,0,1,.156-.523,5.232,5.232,0,0,1,.9-1.325,7.852,7.852,0,0,1,1.12-.987,7.99,7.99,0,0,1,1.157-.7q.574-.279,1.024-.46-.018-.207-.032-.423t-.032-.415l-.046-.568,2.865-.6.041.379q.032.3.074.707t.092.874q.051.464.092.87t.074.7q.032.3.042.36.137,1.109.234,1.82t.165,1.131q.069.419.115.6a1.881,1.881,0,0,0,.074.248.772.772,0,0,0,.418.4,2.047,2.047,0,0,0,.748.113h1.12c.021,0,.041-.008.061-.009l1.433-.018a3.405,3.405,0,0,1-.459-1.045,4.646,4.646,0,0,1-.119-1.163,3.78,3.78,0,0,1,.363-1.559,4.768,4.768,0,0,1,.964-1.379,5.348,5.348,0,0,1,1.428-1.018,4.72,4.72,0,0,1,1.754-.478,5.3,5.3,0,0,1,.9,0,5.654,5.654,0,0,1,.817.135,6.021,6.021,0,0,1,.725.225,5.9,5.9,0,0,1,.615.275q.321.171.615.365a5.076,5.076,0,0,1,.551.419l-1.139,2.136q-.239-.126-.482-.231t-.5-.194a6.642,6.642,0,0,0-.983-.252,3.87,3.87,0,0,0-1.12-.036,2.554,2.554,0,0,0-.758.207,2.648,2.648,0,0,0-.643.4,1.948,1.948,0,0,0-.446.536,1.231,1.231,0,0,0-.166.6,1.149,1.149,0,0,0,.276.761,2.183,2.183,0,0,0,.7.546Zm-9.878-1.207q-.051-.379-.1-.811l-.092-.829q-.349.171-.781.41a9.248,9.248,0,0,0-.813.5,4.015,4.015,0,0,0-.638.541.784.784,0,0,0-.257.509q0,.117.207.194a2.76,2.76,0,0,0,.509.126,5.888,5.888,0,0,0,.643.067q.339.018.615.018c.128,0,.261,0,.4-.014s.271-.019.4-.031Q387.594,524.353,387.544,523.975Zm-11.228-5.055a11.71,11.71,0,0,1,.927.924,11.482,11.482,0,0,1,.845,1.059,8.882,8.882,0,0,1,.689,1.144,6.8,6.8,0,0,1,.464,1.18,4.009,4.009,0,0,1,.161,1.162,4.586,4.586,0,0,1-.184,1.257,5.182,5.182,0,0,1-.432,1.041,4.2,4.2,0,0,1-3.15,2.045l.009-.009q-.248.044-.468.063c-.147.012-.291.018-.431.018l-2.967-.009c-.014,0-.026,0-.039,0s-.022,0-.034,0a3.868,3.868,0,0,1-1.511-.266,3.6,3.6,0,0,1-1.079-.689,4.106,4.106,0,0,1-.95.45,8.5,8.5,0,0,1-1.143.293,11.969,11.969,0,0,1-1.249.162q-.643.049-1.267.049h-.7c-.015,0-.028,0-.043,0a5.917,5.917,0,0,1-1.817-.271,3.7,3.7,0,0,1-1.391-.843,2.841,2.841,0,0,1-.565-.757,3.482,3.482,0,0,1-.285-.78,3.99,3.99,0,0,1-.1-.725q-.014-.342-.014-.586V524.7q.009-.333.023-.96t.014-1.473q0-.847-.009-1.86t-.05-2.032q-.042-1.018-.12-1.955a14.83,14.83,0,0,0-.215-1.631l2.746-.82a14.15,14.15,0,0,1,.2,1.4q.078.806.124,1.69t.069,1.775q.023.892.032,1.658a12.761,12.761,0,0,1-.051,1.325q-.06.649-.1,1.261a9.14,9.14,0,0,0,0,1.194,3.9,3.9,0,0,0,.253,1.131.8.8,0,0,0,.207.315.764.764,0,0,0,.289.158,1.49,1.49,0,0,0,.363.059q.2.009.436.009h.083c.031,0,.059.007.089.009h.526q.661,0,1.272-.054a4.1,4.1,0,0,0,1.079-.231,1.894,1.894,0,0,0,.757-.5,1.292,1.292,0,0,0,.307-.852q.009-.2,0-.329a1.586,1.586,0,0,0-.051-.315q-.046-.184-.133-.487t-.243-.852l2.672-.739a6.871,6.871,0,0,1,.321,1.144,13.628,13.628,0,0,1,.22,1.559q.018.27.064.559a2.193,2.193,0,0,0,.151.532,1.088,1.088,0,0,0,.289.4.706.706,0,0,0,.477.158c.013,0,.026,0,.039,0s.029,0,.044,0h.964q.5,0,1.092-.014a10.066,10.066,0,0,0,1.153-.09,5.294,5.294,0,0,0,1-.23,1.314,1.314,0,0,0,.647-.423,1.669,1.669,0,0,0,.275-.946,2.138,2.138,0,0,0-.032-.365q-.033-.184-.078-.383a2.1,2.1,0,0,0-.275-.545,8.372,8.372,0,0,0-.528-.7q-.317-.383-.73-.807t-.882-.869q-.469-.446-.982-.892t-1.028-.861l.285-2.451,7.713-3.37,1.111,2.415-6.1,2.775a9.3,9.3,0,0,1,.927.729Zm-8.328-.207-1.726,1.694-1.781-1.739,1.763-1.739,1.745,1.712,1.726-1.694,1.782,1.739-1.763,1.739Zm-14.2,9.866a5.138,5.138,0,0,1-1.056.184q-.505.031-.946.031h-1.341c-.015,0-.028,0-.043,0a5.919,5.919,0,0,1-1.817-.271,3.7,3.7,0,0,1-1.391-.843,2.846,2.846,0,0,1-.565-.757,3.479,3.479,0,0,1-.285-.779,4,4,0,0,1-.1-.725q-.014-.342-.014-.586v-.135q.009-.333.023-.96t.014-1.473q0-.847-.009-1.86t-.051-2.032q-.041-1.018-.119-1.956a14.824,14.824,0,0,0-.215-1.631l2.746-.82q.119.6.2,1.4t.124,1.69q.046.883.069,1.775t.032,1.658a12.668,12.668,0,0,1-.05,1.325q-.06.649-.1,1.261a9.128,9.128,0,0,0,0,1.194,3.908,3.908,0,0,0,.253,1.131.8.8,0,0,0,.207.315.766.766,0,0,0,.289.158,1.5,1.5,0,0,0,.363.059q.2.009.436.009h.083c.031,0,.059.007.089.009H351.8q.34,0,.707-.027a4.239,4.239,0,0,0,.7-.108,2.249,2.249,0,0,0,.583-.225.842.842,0,0,0,.363-.387,1.36,1.36,0,0,0,.074-.487,2.533,2.533,0,0,0-.129-.649q-.129-.433-.34-.96t-.477-1.1q-.267-.577-.542-1.09l2.626-1.279q.257.568.51,1.207t.454,1.3a12.223,12.223,0,0,1,.326,1.311,6.721,6.721,0,0,1,.124,1.248,4.119,4.119,0,0,1-.331,1.667A3.944,3.944,0,0,1,353.788,528.579ZM342.52,517.7a2.945,2.945,0,0,0-.744-.1,3.134,3.134,0,0,0-.542.054,2.208,2.208,0,0,0-.633.167,4.166,4.166,0,0,0-.675.356,4.935,4.935,0,0,0-.647.5,4.656,4.656,0,0,0-.556.6,3.406,3.406,0,0,0-.4.653,1.809,1.809,0,0,0-.175.653.488.488,0,0,0,.147.41,1.394,1.394,0,0,0,.441.27,4.407,4.407,0,0,0,.624.2q.349.086.707.194l.266.063q.588.135,1.171.306a3.848,3.848,0,0,1,1.051.482,2.389,2.389,0,0,1,.758.815,2.611,2.611,0,0,1,.289,1.307q0,.162-.014.338a3.259,3.259,0,0,1-.051.365,3.479,3.479,0,0,1-.33.95,4.481,4.481,0,0,1-.6.883,5.758,5.758,0,0,1-.836.784,6.716,6.716,0,0,1-1.033.653,10.349,10.349,0,0,1-2.406.8,14.236,14.236,0,0,1-2.929.285,9.463,9.463,0,0,1-3.315-.531,5.984,5.984,0,0,1-2.369-1.568,5.613,5.613,0,0,1-1.051-1.843,6.49,6.49,0,0,1-.335-2.086q0-.234.018-.468t.037-.442a11.24,11.24,0,0,1,.261-1.883q.207-.9.441-1.6t.432-1.145l.225-.5,2.3.946q-.231.532-.436,1.041t-.367,1.045a10.043,10.043,0,0,0-.266,1.131,9.609,9.609,0,0,0-.133,1.3c-.006.066-.012.138-.018.216s-.009.147-.009.208a3.583,3.583,0,0,0,.179,1.117,2.626,2.626,0,0,0,.592.991,2.289,2.289,0,0,0,.647.492,4.846,4.846,0,0,0,.9.36,7.176,7.176,0,0,0,1.083.226,9.035,9.035,0,0,0,1.175.077,14.229,14.229,0,0,0,2.181-.158,11.129,11.129,0,0,0,1.786-.415,4.689,4.689,0,0,0,1.244-.595,1.222,1.222,0,0,0,.546-.689.9.9,0,0,1-.11-.018q-.092-.018-.234-.049l-.321-.072c-.12-.026-.243-.056-.372-.086l-.5-.108a15.392,15.392,0,0,1-1.538-.455,4.542,4.542,0,0,1-1.263-.676,2.951,2.951,0,0,1-.854-1.059,3.648,3.648,0,0,1-.312-1.605,6.1,6.1,0,0,1,.441-2.018,6.736,6.736,0,0,1,2.631-3.176,5.727,5.727,0,0,1,1.942-.789h-.009a3.528,3.528,0,0,1,.56-.1q.285-.027.56-.027a4.91,4.91,0,0,1,1.272.175,6.572,6.572,0,0,1,1.318.518l-1.019,2.64A5.989,5.989,0,0,0,342.52,517.7Zm12.7,13.9-2.039,2-2.039-2,2.039-2Zm81.2-.117-2.038,2-2.038-2,2.038-2Zm-23.192-5.99a7.2,7.2,0,0,1-1.143,2.4,8.723,8.723,0,0,1-1.873,1.875,10.507,10.507,0,0,1-2.424,1.324,13.158,13.158,0,0,1-2.8.748l-.679-2.767a15.18,15.18,0,0,0,2.346-.64,11.419,11.419,0,0,0,1.846-.856,6.171,6.171,0,0,0,1.309-1,3.4,3.4,0,0,0,.734-1.081q-.395,0-.8-.014t-.689-.031a6.331,6.331,0,0,1-1.956-.459,3.508,3.508,0,0,1-1.4-1.018,3,3,0,0,1-.547-1.054,4.383,4.383,0,0,1-.16-1.2,5.259,5.259,0,0,1,.092-.978,6.087,6.087,0,0,1,.257-.951,6.5,6.5,0,0,1,.39-.879,5.952,5.952,0,0,1,.482-.762,3.287,3.287,0,0,1,2.59-1.37,3.763,3.763,0,0,1,2.8,1.334,6.049,6.049,0,0,1,.7.938,7.851,7.851,0,0,1,.551,1.095,8.257,8.257,0,0,1,.39,1.212,8.6,8.6,0,0,1,.207,1.289s0,.943-.063,1.756a8.541,8.541,0,0,1-.167,1.091Zm-2.6-3.672a4.9,4.9,0,0,0-.679-1.32,5.322,5.322,0,0,0-.381-.469,1.891,1.891,0,0,0-.358-.266.8.8,0,0,0-.395-.131.784.784,0,0,0-.446.176,2.259,2.259,0,0,0-.454.446,2.7,2.7,0,0,0-.353.6,1.65,1.65,0,0,0-.142.649.736.736,0,0,0,.174.5,1.285,1.285,0,0,0,.446.32,2.572,2.572,0,0,0,.592.18q.322.059.625.085.165.018.363.023t.409,0c.141,0,.28,0,.418,0s.265.008.381.014A4.753,4.753,0,0,0,410.625,521.819Z" transform="translate(-328.333 -513)" fill="#bfbfbf" fill-rule="evenodd"/>
      <path id="Rectangle_1_copy" data-name="Rectangle 1 copy" d="M128.1,533.781l-2.35,1.1q-1.441.682-2.863,1.4t-2.9,1.4q-1.473.674-3.045,1.283a29.782,29.782,0,0,1-3.293,1.056c1.992-.517-5.834,2.026-12.214-.686-2.751-1.17-5.421-.12-5.18,2.977.493,5.657,11.58,5.658,11.58,5.658s3.827-.375,5.485-.6c1.292-.172,2.737-.427,3.352-.539v5.206a27.8,27.8,0,0,1-7.618.991c-13.634-.26-17.831-5.724-17.675-11.315.211-7.508,7-9.295,10.666-7.444,6.067,3.063,13.979.155,12.977.43a33.512,33.512,0,0,0,3.7-1.242q1.745-.706,3.435-1.468a20.789,20.789,0,0,1-2.259-.763q-1.134-.455-2.267-.877t-2.259-.723a8.642,8.642,0,0,0-2.234-.3,3.074,3.074,0,0,0-1.5.406,7.575,7.575,0,0,0-1.332.926,8.06,8.06,0,0,0-.993,1.015,6.3,6.3,0,0,0-.5.674L105,529.933a15.525,15.525,0,0,1,1.489-2.128,12.088,12.088,0,0,1,1.895-1.843,9.339,9.339,0,0,1,2.234-1.291,6.646,6.646,0,0,1,2.524-.487,9.569,9.569,0,0,1,1.953.2,17,17,0,0,1,1.945.528q.97.325,1.912.739t1.87.836q.877.406,1.771.8t1.837.731a15.23,15.23,0,0,0,1.953.544,11.2,11.2,0,0,0,2.135.227Zm-40.35,2.246c-3.374,7.126-14.785,4.432-17.7,3.312-2.792-1.075-5.42-.12-5.18,2.977.271,3.116,3.754,4.516,6.829,5.144,4.754.972,13.746-.983,11.759-.621v5.206a47.619,47.619,0,0,1-10.662.63c-9.781-1.334-12.939-6.095-12.8-10.954.211-7.508,7-9.295,10.666-7.444-.241-.121,10.19,3.953,12.951-.344a2.453,2.453,0,0,0,.132-.877,4.566,4.566,0,0,0-.232-1.169q-.232-.779-.612-1.729t-.86-1.99q-.48-1.039-.977-1.965L85.8,523.9q.464,1.023.919,2.176t.819,2.339a22.078,22.078,0,0,1,.587,2.362,12.066,12.066,0,0,1,.224,2.249A7.219,7.219,0,0,1,87.754,536.027ZM118.2,549.016l3.507-3.427,3.507,3.427-3.507,3.427Zm-33.825,0,3.507-3.427,3.507,3.427-3.507,3.427Z" transform="translate(-31.754 -499.829)" fill="#ffd400" fill-rule="evenodd"/>
    </g>
  </g>
</svg>
