<svg width="25" height="24" viewBox="0 0 25 24" fill="none" xmlns="http://www.w3.org/2000/svg">
<path d="M6.32901 0.0706197C6.05455 0.159896 5.78714 0.269537 5.529 0.398623C4.83556 0.752679 4.26762 1.31121 3.90201 1.99863C3.57296 2.86192 3.30562 3.74747 3.102 4.64862C3.073 4.75762 3.28601 4.57363 3.88401 3.98163C4.94605 2.88116 6.2297 2.0188 7.65001 1.45163C8.45096 1.14348 9.2784 0.909162 10.122 0.751619C10.289 0.728619 10.415 0.699631 10.398 0.688631C10.381 0.677631 9.846 0.52163 9.198 0.34363C8.59876 0.141022 7.97319 0.0268331 7.34101 0.00464065C7.00228 -0.0245644 6.66108 -0.00233315 6.32901 0.0706197Z" fill="black"/>
<path d="M10.987 1.59787C9.77922 1.71893 8.60151 2.04815 7.50601 2.57089C5.96825 3.29317 4.63303 4.38459 3.61932 5.74796C2.60561 7.11132 1.94488 8.70428 1.696 10.3849C1.58725 11.3702 1.58725 12.3645 1.696 13.3499C1.94488 15.0305 2.60561 16.6234 3.61932 17.9868C4.63303 19.3502 5.96825 20.4416 7.50601 21.1639C9.14591 21.9473 10.962 22.2886 12.7745 22.1541C14.5869 22.0196 16.3327 21.4138 17.839 20.3969C18.9853 19.6313 19.9668 18.6442 20.7257 17.4935C21.4846 16.3428 22.0056 15.052 22.258 13.6969C22.4069 12.4801 22.4069 11.2497 22.258 10.0329C22.0056 8.67778 21.4846 7.38693 20.7257 6.23627C19.9668 5.08561 18.9853 4.09843 17.839 3.33289C15.8235 1.98153 13.4028 1.36855 10.987 1.59787ZM9.639 4.40289C10.0234 4.48577 10.3874 4.64456 10.7096 4.87C11.0318 5.09543 11.3057 5.38295 11.5153 5.71567C11.7248 6.04839 11.8659 6.41963 11.93 6.80759C11.9942 7.19554 11.9803 7.5924 11.889 7.97489C11.7561 8.47699 11.4934 8.93525 11.1272 9.30359C10.761 9.67193 10.3043 9.93736 9.80297 10.0732C9.30165 10.209 8.77341 10.2104 8.27137 10.0773C7.76932 9.94419 7.31118 9.68124 6.943 9.31488C6.66859 9.04884 6.45072 8.73012 6.30246 8.37784C6.15419 8.02556 6.07859 7.64698 6.08017 7.26477C6.08176 6.88257 6.16051 6.5046 6.3117 6.15357C6.46288 5.80253 6.68339 5.48565 6.96 5.22189C7.29965 4.86826 7.7241 4.60737 8.193 4.46402C8.66191 4.32067 9.15968 4.29963 9.639 4.40289ZM17.201 5.85687C17.8317 6.00581 18.3935 6.36337 18.7956 6.87158C19.1976 7.3798 19.4162 8.00889 19.416 8.65689C19.4341 9.04081 19.3693 9.4241 19.2261 9.78076C19.0829 10.1374 18.8646 10.4591 18.586 10.7239C18.1992 11.115 17.712 11.3919 17.178 11.5239C16.4908 11.6992 15.7628 11.6092 15.139 11.2719C14.579 10.9936 14.1247 10.5406 13.8449 9.98135C13.5651 9.42209 13.4749 8.78693 13.588 8.17188C13.6871 7.59135 13.9725 7.05886 14.401 6.65488C14.6637 6.3722 14.983 6.1481 15.3381 5.99716C15.6932 5.84622 16.0762 5.77182 16.462 5.77887C16.7095 5.77656 16.9565 5.80273 17.198 5.85687H17.201ZM12.53 10.8029C12.737 10.9035 12.9121 11.0596 13.0357 11.2538C13.1592 11.448 13.2265 11.6727 13.23 11.9029C13.2366 12.1249 13.1853 12.3448 13.0809 12.5408C12.9766 12.7369 12.823 12.9024 12.6352 13.0209C12.4474 13.1394 12.2319 13.207 12.01 13.2168C11.7881 13.2266 11.5675 13.1784 11.37 13.0769C11.2301 13.0285 11.1033 12.9486 10.9992 12.8433C10.8952 12.7381 10.8168 12.6103 10.77 12.4699C10.6595 12.2274 10.6275 11.9564 10.6783 11.6948C10.7292 11.4332 10.8605 11.194 11.0538 11.0106C11.2471 10.8272 11.4929 10.7087 11.7568 10.6716C12.0207 10.6345 12.2896 10.6808 12.526 10.8039L12.53 10.8029ZM8.08801 12.1829C8.35591 12.2479 8.61532 12.3438 8.861 12.4689C9.42104 12.7471 9.87529 13.2001 10.1551 13.7594C10.4349 14.3187 10.5251 14.9538 10.412 15.5689C10.3129 16.1494 10.0275 16.6819 9.599 17.0859C9.16263 17.5421 8.58851 17.8425 7.96486 17.9408C7.34121 18.039 6.70255 17.9298 6.14701 17.6299C5.7818 17.4391 5.46105 17.1733 5.20583 16.8499C4.95061 16.5264 4.76668 16.1527 4.6661 15.7531C4.56553 15.3536 4.55059 14.9373 4.62227 14.5315C4.69395 14.1258 4.85062 13.7398 5.082 13.3989C5.41467 12.9314 5.87391 12.5686 6.40571 12.3532C6.93751 12.1378 7.51977 12.0787 8.084 12.1829H8.08801ZM15.719 13.6489C16.4446 13.8363 17.0712 14.2941 17.4703 14.9284C17.8695 15.5627 18.011 16.3256 17.866 17.0609C17.7588 17.4826 17.567 17.8781 17.3023 18.2235C17.0375 18.5688 16.7054 18.8568 16.326 19.0699C15.7731 19.3519 15.1454 19.4527 14.5319 19.3582C13.9185 19.2636 13.3503 18.9783 12.908 18.5429C12.6322 18.275 12.4127 17.9548 12.2623 17.601C12.1118 17.2472 12.0335 16.8669 12.0319 16.4825C12.0303 16.098 12.1055 15.7171 12.253 15.3621C12.4005 15.007 12.6174 14.685 12.891 14.4149C13.2572 14.0568 13.7089 13.7983 14.2033 13.6642C14.6976 13.5302 15.2181 13.5249 15.715 13.6489H15.719Z" fill="black"/>
<path d="M18.883 2.96295C18.9553 3.0541 19.043 3.13191 19.142 3.19293C20.0128 3.92219 20.7772 4.76975 21.413 5.71094C22.2848 7.03627 22.8722 8.52804 23.138 10.0919C23.1495 10.2298 23.1832 10.3649 23.238 10.4919C23.249 10.4749 23.428 9.83695 23.638 9.06595C23.8528 8.44708 23.9767 7.80035 24.006 7.14593C24.0119 6.6576 23.918 6.17321 23.7303 5.72238C23.5425 5.27155 23.2648 4.86378 22.914 4.52395C22.2701 3.91656 21.4575 3.51811 20.583 3.38095C20.077 3.24895 19.491 3.09395 19.278 3.03595C19.1523 2.9863 19.0182 2.96151 18.883 2.96295Z" fill="black"/>
<path d="M0.632024 13.6545C0.632024 13.6775 0.488026 14.2295 0.316026 14.8845C0.126421 15.4371 0.0199245 16.0147 2.45127e-05 16.5985C-0.00593687 17.0855 0.0873705 17.5686 0.274255 18.0184C0.46114 18.4682 0.737688 18.8751 1.08703 19.2145C1.78882 19.8734 2.67964 20.2956 3.63402 20.4215C4.30702 20.5995 4.87002 20.7375 4.88202 20.7315C4.89402 20.7255 4.83002 20.6515 4.73802 20.5825C4.13044 20.0503 3.55978 19.4773 3.03002 18.8675C1.95002 17.5094 1.18956 15.9256 0.805025 14.2335C0.700025 13.7465 0.632024 13.5225 0.632024 13.6545Z" fill="black"/>
<path d="M20.752 18.9309C20.626 19.0979 20.286 19.4709 19.999 19.7649C18.4189 21.3451 16.4136 22.4318 14.227 22.8929C14.0174 22.929 13.8101 22.9771 13.606 23.0369C13.583 23.0599 13.577 23.0599 14.917 23.4159C16.682 23.8869 17.395 23.8759 18.47 23.3469C19.2797 22.9428 19.9151 22.2584 20.258 21.4209C20.407 21.0359 21.023 18.7529 21 18.6839C20.991 18.6559 20.878 18.7699 20.752 18.9309Z" fill="black"/>
</svg>
