<svg width="24" height="24" viewBox="0 0 24 24" fill="none" xmlns="http://www.w3.org/2000/svg">
<path d="M17 24H7C5.14413 23.9979 3.36489 23.2597 2.05259 21.9474C0.740295 20.6351 0.00211736 18.8559 0 17L0 7C0.00211736 5.14413 0.740295 3.36489 2.05259 2.05259C3.36489 0.740295 5.14413 0.00211736 7 0L17 0C18.8559 0.00211736 20.6351 0.740295 21.9474 2.05259C23.2597 3.36489 23.9979 5.14413 24 7V17C23.9979 18.8559 23.2597 20.6351 21.9474 21.9474C20.6351 23.2597 18.8559 23.9979 17 24ZM7.594 2.158C6.82572 2.08654 6.05121 2.18934 5.32817 2.45875C4.60514 2.72816 3.9522 3.15723 3.418 3.714C2.54044 4.91896 2.11941 6.39646 2.23 7.883V16.056C2.257 18.11 2.63 19.427 3.43 20.324C4.315 21.314 5.73 21.775 7.883 21.775H16.068C18.259 21.757 19.639 21.329 20.544 20.389C21.426 19.473 21.824 18.056 21.763 16.055V7.883C21.82 5.871 21.439 4.511 20.563 3.601C19.653 2.656 18.183 2.186 16.069 2.164H7.928C7.815 2.16 7.7 2.158 7.594 2.158Z" fill="black"/>
<path d="M12 18C10.8133 18 9.65328 17.6481 8.66658 16.9888C7.67989 16.3295 6.91085 15.3925 6.45673 14.2961C6.0026 13.1997 5.88378 11.9933 6.11529 10.8295C6.3468 9.66558 6.91825 8.59648 7.75736 7.75736C8.59648 6.91825 9.66558 6.3468 10.8295 6.11529C11.9933 5.88378 13.1997 6.0026 14.2961 6.45673C15.3925 6.91085 16.3295 7.67989 16.9888 8.66658C17.6481 9.65328 18 10.8133 18 12C17.9981 13.5907 17.3654 15.1158 16.2406 16.2406C15.1158 17.3654 13.5907 17.9981 12 18ZM12 7.993C11.2075 7.993 10.4328 8.22801 9.77383 8.6683C9.11489 9.1086 8.6013 9.73441 8.29802 10.4666C7.99474 11.1988 7.91539 12.0044 8.07 12.7817C8.22461 13.559 8.60624 14.273 9.16663 14.8334C9.72701 15.3938 10.441 15.7754 11.2183 15.93C11.9956 16.0846 12.8012 16.0053 13.5334 15.702C14.2656 15.3987 14.8914 14.8851 15.3317 14.2262C15.772 13.5672 16.007 12.7925 16.007 12C16.0054 10.9378 15.5827 9.91949 14.8316 9.16838C14.0805 8.41726 13.0622 7.99459 12 7.993Z" fill="black"/>
<path d="M18.5 7C19.3284 7 20 6.32843 20 5.5C20 4.67157 19.3284 4 18.5 4C17.6716 4 17 4.67157 17 5.5C17 6.32843 17.6716 7 18.5 7Z" fill="black"/>
</svg>
