<svg width="24" height="24" viewBox="0 0 24 24" fill="none" xmlns="http://www.w3.org/2000/svg">
<path d="M-7.03335e-06 11.0858C0.219551 10.7012 0.581055 10.4179 1.00699 10.2968L5.79999 8.44276L22.332 2.12776C22.4631 2.06766 22.6017 2.02529 22.744 2.00176C22.9062 1.9652 23.0749 1.96847 23.2356 2.01127C23.3963 2.05408 23.5442 2.13515 23.6667 2.24757C23.7893 2.35999 23.8828 2.50041 23.9392 2.65682C23.9957 2.81323 24.0135 2.981 23.991 3.14576C23.9511 3.65861 23.8708 4.16752 23.751 4.66776C22.6177 10.0064 21.4737 15.3454 20.319 20.6848C20.2636 20.959 20.1711 21.2245 20.044 21.4738C19.9479 21.683 19.7782 21.8495 19.5673 21.9417C19.3563 22.0339 19.1188 22.0453 18.9 21.9738C18.6477 21.9009 18.4085 21.7889 18.191 21.6418L13.02 17.8208L12.803 17.6608L12.609 17.8328L9.97999 20.3408C9.85905 20.474 9.71023 20.5789 9.54413 20.648C9.37803 20.7171 9.19873 20.7488 9.01899 20.7408L9.08799 19.7408C9.18799 18.2768 9.29399 16.8118 9.40799 15.3478C9.41086 15.2845 9.42652 15.2224 9.45402 15.1654C9.48151 15.1083 9.52029 15.0574 9.56799 15.0158L19.533 6.05776C19.5558 6.06242 19.5792 6.06242 19.602 6.05776C19.671 5.94376 19.728 5.81776 19.785 5.70276C19.636 5.63929 19.4775 5.60077 19.316 5.58876C19.1485 5.62864 18.9897 5.69843 18.847 5.79476L6.48699 13.5568C6.38068 13.6007 6.26131 13.6007 6.15499 13.5568L0.879993 11.9788C0.51802 11.9006 0.201467 11.6828 -0.00100708 11.3728L-7.03335e-06 11.0858Z" fill="black"/>
</svg>
