<svg width="275" height="46" viewBox="0 0 275 46" fill="none" xmlns="http://www.w3.org/2000/svg">
<g opacity="0.3">
<path opacity="0.3" d="M177.588 35.6644C177.434 35.6644 177.275 35.6644 177.135 35.6644L168.373 35.7278C163.33 35.764 159.185 31.5552 159.131 26.3497L159.04 17.2887C159.005 14.8038 159.943 12.4037 161.654 10.6017C162.478 9.71933 163.473 9.01431 164.578 8.52977C165.683 8.04523 166.876 7.79137 168.083 7.78371L176.849 7.72481C178.058 7.71673 179.255 7.95341 180.369 8.42059C181.483 8.88778 182.491 9.57577 183.333 10.4431C185.083 12.2161 186.071 14.6026 186.087 17.0939L186.182 26.1549C186.216 28.6513 185.268 31.0612 183.541 32.8645C181.984 34.5203 179.856 35.5213 177.588 35.6644Z" fill="black"/>
</g>
<path d="M27.9362 34.5246C28.0026 30.0206 28.0469 25.5615 27.8874 21.6446C27.8564 20.9276 27.945 20.2195 27.8874 19.5338C27.8874 19.3904 27.8431 19.238 27.821 19.0857C27.821 18.7675 27.821 18.4448 27.821 18.1221C27.7457 18.1221 27.6703 18.0997 27.595 18.0952C27.0368 16.3026 25.8229 14.5503 24.4938 14.1246C23.0229 13.6495 21.5742 14.7296 19.9925 14.1246C19.0089 14.4104 17.9901 14.5537 16.9666 14.5503H18.9558C15.159 14.5503 11.0875 14.8147 7.33945 14.4607C5.58946 14.2994 4.34896 14.2053 3.07302 14.9089C1.99644 15.5139 0.786949 17.0824 0.259736 18.9064H0.104678V19.6727C0.025546 20.0965 -0.00714143 20.5279 0.00720953 20.959C0.0293613 21.4474 0.0470806 21.9539 0.0603716 22.4692C-0.00608371 26.9732 -0.050387 31.4323 0.109106 35.3492C0.140118 36.0663 0.0559416 36.7788 0.109106 37.4645C0.109106 37.6079 0.157841 37.7558 0.179993 37.9127C0.179993 38.2353 0.179993 38.558 0.179993 38.8807C0.255309 38.8807 0.326195 38.8807 0.401511 38.9031C0.959736 40.6957 2.17365 42.448 3.50276 42.8737C4.97364 43.3533 6.42236 42.2687 8.00843 42.8737C8.99199 42.5873 10.0109 42.4439 11.0344 42.448H9.04513C12.8419 42.448 16.9135 42.1881 20.6571 42.5376C22.4292 42.7034 23.6476 42.7976 24.9235 42.0895C26.0001 41.48 27.2096 39.9159 27.7368 38.0919H27.8963C27.8963 37.841 27.8963 37.581 27.8963 37.3301C27.9744 36.9061 28.0085 36.475 27.9982 36.0438C27.9716 35.5464 27.9539 35.04 27.9362 34.5246ZM22.54 40.7988C22.0358 40.796 21.5335 40.7359 21.0425 40.6195C19.6027 40.4896 18.1451 40.7898 16.7141 40.6195C16.2134 40.5657 15.6907 40.3013 15.19 40.3372C14.747 40.373 14.397 40.8481 13.9938 40.4761C13.6837 40.1938 14.3128 39.7815 13.6438 39.656C13.1122 39.5529 12.9616 40.2341 12.6382 40.4761C12.1951 40.7988 11.9249 40.7495 11.3401 40.7495C11.5394 39.9338 12.7312 39.3602 12.5894 38.2577C11.4331 37.9261 10.5559 39.0958 10.4584 40.754C8.63395 40.7528 6.81064 40.847 4.99579 41.0363C3.03314 41.2693 2.29327 39.1406 2.03631 36.855C2.03631 35.9318 2.03631 35.0236 2.03631 34.1302C2.03631 31.3517 1.97429 28.5866 1.93885 25.9783C1.93885 24.0901 1.95213 22.1884 1.97872 20.2733C2.12935 18.1759 3.65782 16.4415 5.42996 16.2399C5.93504 16.2401 6.43861 16.2957 6.93185 16.4057C8.20336 16.5177 9.47931 16.4684 10.7553 16.5088C11.3578 16.5088 12.0401 16.697 12.6337 16.6522C13.0768 16.6253 13.4445 16.3833 13.8875 16.4057C13.9628 16.8225 13.4445 17.2482 13.0945 17.674C12.3349 18.5239 11.6721 19.4574 11.1185 20.457C10.9413 20.7886 10.2768 21.8418 10.9635 22.0614C11.6502 22.281 12.0666 20.5511 12.2261 20.2688C13.0812 18.8526 14.5166 17.898 15.5223 16.2354H16.6343C16.435 17.0555 15.2432 17.6247 15.385 18.7316C16.5413 19.0588 17.4229 17.8891 17.516 16.2309C19.3406 16.2365 21.1641 16.1423 22.9786 15.9486C24.9457 15.72 25.6811 17.8487 25.9381 20.1343C25.9381 21.0306 25.9381 21.9673 25.9381 22.8546C25.9381 25.6377 26.0001 28.4028 26.0311 31.0111C26.0311 32.8978 26.0045 34.8025 25.9957 36.7116C25.845 38.8269 24.3166 40.5792 22.54 40.7853V40.7988Z" fill="black"/>
<path d="M35.11 3.11157C34.689 2.99439 34.2471 2.96914 33.8151 3.0376C33.3832 3.10606 32.9717 3.26656 32.6097 3.50784C26.9504 9.25607 18.9115 21.5724 12.9739 29.3931C12.7752 29.6521 12.5582 29.8972 12.3245 30.1264C12.1343 29.8668 11.9441 29.6117 11.7586 29.3248C8.90574 24.8109 7.14301 17.8875 4.38296 15.4097C4.01186 15.0407 3.63612 15.2685 3.2743 15.0362C2.82334 15.1176 2.39357 15.2869 2.01034 15.5341C1.62712 15.7813 1.29822 16.1014 1.04306 16.4755C0.662688 20.3471 2.85681 23.4536 5.46379 28.1906C6.13177 29.4067 7.41206 32.0759 8.95212 34.1529C8.84578 34.8964 9.01005 35.6529 9.416 36.2891C10.339 36.8775 11.45 37.1125 12.5379 36.9496C13.0713 36.9947 13.6029 36.8456 14.0315 36.5305C18.8419 34.3989 23.7358 25.7264 28.7549 18.8486C33.5931 12.2349 40.3286 5.68051 35.11 3.11157Z" fill="#008D36"/>
<path d="M211.869 36.1609C213.709 35.5716 215.342 34.4631 216.576 32.9666C217.267 32.0723 217.721 31.0158 217.896 29.8962C218.066 28.6384 217.912 27.3577 217.449 26.1771C216.942 25.0808 216.29 24.059 215.51 23.1398C214.825 22.2968 214.208 21.4 213.665 20.4578C213.136 19.5668 212.853 18.5497 212.845 17.5115C212.845 16.4866 213.312 15.3957 214.251 14.2469C215.19 13.0981 216.793 11.879 219.065 10.5938C218.582 9.96854 217.907 9.52235 217.146 9.32519C216.3 9.01795 215.387 8.94366 214.503 9.10999C213.619 9.27633 212.795 9.67727 212.115 10.2715C211.268 10.8637 210.496 11.5575 209.815 12.3377C208.859 13.4415 208.204 14.7775 207.917 16.2139C207.696 17.467 207.769 18.7547 208.13 19.9744C208.482 21.1703 209.022 22.3018 209.729 23.3257C210.323 24.1434 210.846 25.0117 211.291 25.9209C211.726 26.7995 211.969 27.7619 212.004 28.7433C212.009 29.864 211.706 30.964 211.127 31.9211C210.233 33.4253 209.164 34.2366 207.921 34.3551C207.27 34.4034 206.617 34.314 206.002 34.0927C205.388 33.8713 204.826 33.5229 204.354 33.0699C203.144 31.9677 202.269 30.5418 201.832 28.9582C201.277 26.9888 201.243 24.9074 201.734 22.9207C202.217 20.659 203.447 18.3021 205.424 15.8502C205.705 15.5247 206.007 15.2169 206.326 14.9287C206.666 14.6146 206.982 14.2923 207.273 13.9659C207.535 13.6825 207.733 13.3457 207.855 12.9782C206.387 12.0526 204.995 11.7853 203.677 12.1765C202.287 12.6157 201.048 13.4406 200.102 14.5568C199.029 15.7666 198.129 17.1213 197.428 18.5817C196.774 19.8973 196.271 21.2837 195.928 22.7141C195.291 25.6894 195.607 28.37 196.875 30.7558C197.767 32.478 199.062 33.9558 200.647 35.0617C202.259 36.1591 204.128 36.8129 206.067 36.9585C208.035 37.0902 210.009 36.8189 211.869 36.1609Z" fill="black"/>
<path d="M223.998 31.4175C225.707 31.7147 227.463 31.5941 229.114 31.0661C230.753 30.5738 232.185 29.5609 233.187 28.183C234.215 26.7934 234.591 24.9552 234.314 22.6684C233.853 19.8013 232.597 16.9954 230.547 14.2507C230.05 13.5561 229.335 13.0448 228.514 12.7972C227.773 12.5946 226.993 12.5768 226.244 12.7453C225.557 12.8859 224.902 13.1469 224.308 13.5159L225.25 15.2809C224.121 15.7692 223.083 16.4444 222.182 17.2775C221.119 18.2381 220.216 19.3594 219.506 20.5999C218.756 21.8833 218.301 23.315 218.173 24.7928C218.082 26.6855 218.6 28.187 219.727 29.2971C220.891 30.431 222.385 31.1728 223.998 31.4175ZM223.885 23.4311C224.245 22.4203 224.729 21.4574 225.326 20.564C225.805 19.7873 226.386 19.077 227.053 18.4516C227.649 19.2114 228.083 20.0836 228.329 21.0152C228.731 22.2633 228.973 23.5566 229.049 24.8646C229.178 25.9974 228.961 27.1423 228.425 28.1511C227.926 28.9976 226.994 29.2918 225.628 29.0336C225.127 28.9145 224.672 28.6506 224.322 28.2753C223.971 27.9001 223.741 27.4302 223.66 26.9251C223.415 25.7564 223.493 24.5436 223.885 23.4151V23.4311Z" fill="black"/>
<path d="M239.818 13.6308C239.822 14.1029 239.91 14.5695 240.079 15.0027C240.247 15.4358 240.492 15.8267 240.799 16.1521C241.097 16.477 241.45 16.732 241.838 16.9017C242.226 17.0714 242.64 17.1524 243.057 17.14C243.473 17.1275 243.883 17.0219 244.263 16.8292C244.642 16.6366 244.982 16.361 245.264 16.0187C245.842 15.3166 246.153 14.3911 246.129 13.4383C246.106 12.4855 245.752 11.5801 245.141 10.9138C244.845 10.5836 244.491 10.3253 244.101 10.1554C243.711 9.98549 243.294 9.90759 242.876 9.92664C242.46 9.93212 242.049 10.0346 241.67 10.2276C241.291 10.4206 240.952 10.6997 240.676 11.0472C240.386 11.3927 240.161 11.7991 240.014 12.2427C239.866 12.6863 239.8 13.1582 239.818 13.6308Z" fill="black"/>
<path d="M239.447 10.8223C239.864 10.8157 240.276 10.7249 240.657 10.5556C241.037 10.3864 241.377 10.1422 241.656 9.83855C242.234 9.22464 242.544 8.41541 242.521 7.58222C242.498 6.74903 242.143 5.95732 241.532 5.37472C241.234 5.09054 240.881 4.86763 240.493 4.71923C240.105 4.57083 239.69 4.49997 239.274 4.51085C238.857 4.52173 238.447 4.61414 238.068 4.78257C237.688 4.95101 237.348 5.19205 237.066 5.49137C236.492 6.10818 236.185 6.91758 236.208 7.75025C236.232 8.58293 236.585 9.37439 237.194 9.95909C237.487 10.2483 237.838 10.4746 238.226 10.6232C238.614 10.7719 239.03 10.8397 239.447 10.8223Z" fill="black"/>
<path d="M236.743 17.139C237.161 17.1337 237.573 17.0434 237.953 16.874C238.333 16.7046 238.673 16.4598 238.951 16.155C239.528 15.5409 239.838 14.7309 239.814 13.8972C239.79 13.0635 239.435 12.2717 238.824 11.69C238.526 11.4061 238.173 11.1835 237.786 11.0353C237.399 10.8871 236.985 10.8164 236.569 10.8273C236.153 10.8381 235.744 10.9304 235.366 11.0986C234.987 11.2669 234.647 11.5076 234.365 11.8067C233.788 12.4214 233.478 13.2315 233.501 14.0655C233.524 14.8996 233.878 15.6922 234.488 16.2756C234.783 16.5641 235.135 16.7898 235.523 16.9385C235.911 17.0871 236.327 17.1554 236.743 17.139Z" fill="black"/>
<path d="M245.314 39.6903C245.788 39.6863 246.256 39.5849 246.69 39.392C247.125 39.1991 247.518 38.9186 247.845 38.5672C248.171 38.2282 248.427 37.8249 248.597 37.3816C248.767 36.9383 248.849 36.4641 248.836 35.9876C248.824 35.5111 248.717 35.0421 248.524 34.609C248.331 34.1758 248.054 33.7874 247.711 33.4671C247.009 32.806 246.085 32.4514 245.133 32.478C244.182 32.5045 243.278 32.9103 242.612 33.6095C242.286 33.9485 242.03 34.3519 241.86 34.7954C241.69 35.239 241.609 35.7134 241.621 36.1901C241.634 36.6667 241.741 37.1358 241.935 37.5688C242.129 38.0019 242.407 38.39 242.751 38.7096C243.092 39.0416 243.495 39.2996 243.936 39.468C244.376 39.6365 244.845 39.7121 245.314 39.6903Z" fill="black"/>
<path d="M248.558 20.1325C248.696 20.5044 248.859 21.0233 249.045 21.6974C249.245 22.4135 249.405 23.1406 249.525 23.8752C249.656 24.619 249.707 25.3754 249.676 26.1307C249.666 26.7688 249.483 27.3913 249.148 27.9285C248.994 28.1485 248.792 28.3286 248.559 28.4548C248.326 28.581 248.067 28.6498 247.804 28.6558C247.345 28.6411 246.894 28.5239 246.483 28.3123C246.072 28.1006 245.711 27.7996 245.424 27.43C244.776 26.5731 244.333 25.5708 244.131 24.5045C243.9 23.4197 243.833 22.3048 243.933 21.199C243.992 20.8598 244.044 20.537 244.08 20.2347C243.546 19.8642 242.956 19.5881 242.335 19.4175C241.595 19.185 240.822 19.0842 240.05 19.1192C239.727 19.1117 239.407 19.1856 239.118 19.3344C238.829 19.4832 238.58 19.7025 238.392 19.9732C238.294 21.5449 237.766 23.8834 236.806 26.9887C235.846 30.094 233.842 34.263 230.793 39.4957L231.154 39.7777L231.348 39.8716L231.59 39.9901C231.645 40.0206 231.702 40.0465 231.761 40.0678C233.612 40.776 234.943 40.776 235.755 40.0678C236.315 39.5693 237.278 38.146 238.642 35.798C239.916 33.627 240.979 31.3319 241.815 28.9459C242.745 29.5987 243.756 30.1195 244.821 30.4944C245.561 30.7617 246.33 30.9372 247.11 31.0174C247.231 31.0559 247.356 31.0738 247.483 31.0706H247.503H247.994H248.03C248.109 31.068 248.187 31.057 248.264 31.0379C249.476 31.0323 250.665 30.7013 251.715 30.0777C252.58 29.5266 253.262 28.7171 253.67 27.7569C254.063 26.791 254.261 25.7522 254.249 24.7047C254.243 23.6162 254.089 22.5339 253.793 21.4891C253.526 20.5156 253.144 19.5797 252.655 18.7025C252.291 18.0083 251.787 17.4033 251.175 16.9292C250.611 16.5314 249.954 16.2966 249.271 16.2492C248.589 16.2018 247.907 16.3434 247.296 16.6595C247.241 16.7943 247.407 17.3092 247.792 18.204C248.025 18.7624 248.28 19.4052 248.558 20.1325Z" fill="black"/>
<path d="M250.728 33.4693C250.397 33.7646 250.139 34.1185 249.969 34.5083C249.799 34.8982 249.722 35.3156 249.741 35.7338C249.748 36.1499 249.852 36.5601 250.045 36.9381C250.239 37.3161 250.519 37.6536 250.867 37.9289C251.569 38.5048 252.492 38.8138 253.443 38.7906C254.394 38.7674 255.298 38.4138 255.964 37.8045C256.289 37.5074 256.545 37.1543 256.715 36.7665C256.886 36.3786 256.967 35.9639 256.954 35.5472C256.942 35.1305 256.836 34.7203 256.642 34.3413C256.449 33.9622 256.172 33.6221 255.829 33.3412C255.127 32.7642 254.202 32.4546 253.25 32.4778C252.299 32.501 251.394 32.8552 250.728 33.4656V33.4693Z" fill="black"/>
<path d="M260.04 29.7766C261.238 30.2433 262.518 30.4493 263.797 30.3819C263.645 31.0672 263.419 31.7331 263.125 32.3676C262.828 33.0143 262.514 33.6361 262.184 34.2331C262.015 34.544 261.854 34.8424 261.709 35.1285C261.424 35.6508 261.134 36.169 260.84 36.6789C260.235 37.6359 259.73 38.6557 259.332 39.7217L260.362 40.2606C260.557 40.3146 260.756 40.3561 260.957 40.385C261.194 40.4181 261.42 40.4472 261.637 40.4637L261.762 40.4969C262.217 40.5666 262.677 40.5998 263.137 40.5964C263.612 40.5807 264.084 40.5154 264.545 40.4016C264.813 40.2109 265.389 39.3818 266.271 37.9143C267.287 36.1701 268.19 34.3587 268.974 32.4919C269.902 30.3496 270.603 28.1106 271.066 25.8135C271.533 23.7431 271.497 21.5859 270.961 19.5331C270.425 17.6455 269.13 16.2471 267.075 15.3379C264.584 14.3789 262.431 14.1826 260.615 14.7492C258.911 15.2297 257.432 16.3259 256.448 17.8376C255.498 19.3035 255.049 21.054 255.172 22.8122C255.309 24.7183 256.089 26.5149 257.377 27.8904C258.117 28.7159 259.027 29.3604 260.04 29.7766ZM260.953 19.4792C261.227 18.5009 261.641 17.8459 262.204 17.5101C262.544 17.3053 262.941 17.2253 263.33 17.2833C263.72 17.3413 264.079 17.5338 264.348 17.8293C265.008 18.5792 265.463 19.4962 265.668 20.4866C265.953 21.6549 266.045 22.8642 265.941 24.0641C265.878 25.168 265.526 26.2337 264.923 27.1484C263.612 27.0365 262.622 26.5514 261.959 25.685C261.289 24.8163 260.87 23.7701 260.752 22.6671C260.61 21.6013 260.679 20.5171 260.953 19.4792Z" fill="black"/>
<path d="M219.657 33.8179C220.378 34.0731 221.136 34.2143 221.903 34.2361C224.055 34.378 226.217 34.2373 228.331 33.8179C229.579 33.5669 232.96 32.7681 233.5 31.5762C232.069 34.7212 227.11 35.3109 223.904 35.1646C221.873 35.0725 220.81 34.4703 219.065 33.5418C219.257 33.6447 219.455 33.7369 219.657 33.8179Z" fill="#E30613"/>
<path d="M200.338 11.2165C199.567 11.7656 198.884 12.4366 198.316 13.2047C196.637 15.3004 195.239 17.6183 194.16 20.0964C193.531 21.5601 191.943 25.6178 192.769 27.0653C190.584 23.2474 193.504 17.7138 195.929 14.5587C197.466 12.5501 198.841 11.9118 201.022 10.8262C200.787 10.942 200.558 11.0724 200.338 11.2165Z" fill="#E30613"/>
<path d="M270.183 34.55C270.815 33.7281 271.301 32.8195 271.623 31.858C272.648 29.1861 273.277 26.4 273.494 23.5743C273.609 21.9082 273.766 17.3509 272.293 16.2402C276.186 19.1696 275.138 25.6516 273.715 29.6493C272.815 32.1929 271.559 33.3121 269.587 35.1859C269.799 34.9846 269.997 34.7723 270.183 34.55Z" fill="#E30613"/>
<path d="M242.683 3.33529C243.126 3.52684 243.669 3.7589 244.052 3.47895C244.184 3.36102 244.274 3.20558 244.31 3.03487C244.345 2.86416 244.324 2.68695 244.249 2.52859C244.089 2.2152 243.852 1.94461 243.559 1.74031C242.608 0.969818 241.486 0.423865 240.281 0.145334C239.077 -0.129887 237.812 -0.0120732 236.684 0.480539C236.224 0.672441 235.83 0.986555 235.546 1.38669C235.405 1.59094 235.323 1.8279 235.307 2.07324C235.292 2.31858 235.344 2.56347 235.459 2.78276C236.13 3.92098 237.792 2.95588 238.706 2.81959C240.055 2.62278 241.434 2.80161 242.683 3.33529Z" fill="#FCEA10"/>
<path d="M142.9 12.4888C142.486 12.4824 142.075 12.5759 141.692 12.7636C141.309 12.9513 140.962 13.2294 140.671 13.5813C140.377 13.9096 140.143 14.3079 139.986 14.7505C139.828 15.1931 139.75 15.6702 139.756 16.1511C139.751 16.6365 139.829 17.118 139.986 17.5656C140.144 18.0131 140.377 18.4171 140.671 18.7521C140.964 19.0999 141.312 19.3743 141.694 19.5593C142.077 19.7442 142.487 19.8359 142.9 19.8289C143.313 19.8394 143.724 19.7494 144.107 19.5643C144.491 19.3791 144.838 19.1028 145.13 18.7521C145.425 18.4181 145.659 18.0145 145.817 17.5667C145.975 17.119 146.054 16.637 146.048 16.1511C146.054 15.6697 145.976 15.1922 145.818 14.7494C145.659 14.3067 145.425 13.9087 145.13 13.5813C144.84 13.2277 144.492 12.9485 144.109 12.7607C143.726 12.5728 143.314 12.4803 142.9 12.4888Z" fill="black"/>
<path d="M136.088 19.8289C136.571 19.8394 137.05 19.7494 137.497 19.5643C137.944 19.3791 138.35 19.1028 138.689 18.7521C139.032 18.417 139.304 18.0131 139.488 17.5655C139.671 17.1179 139.763 16.6364 139.756 16.151C139.763 15.6701 139.672 15.1929 139.489 14.7503C139.305 14.3077 139.033 13.9094 138.689 13.5811C137.996 12.8809 137.062 12.4883 136.088 12.4883C135.115 12.4883 134.18 12.8809 133.487 13.5811C133.143 13.9091 132.87 14.3073 132.686 14.7499C132.501 15.1925 132.409 15.6697 132.415 16.151C132.41 16.6367 132.502 17.1185 132.686 17.5661C132.871 18.0137 133.143 18.4175 133.487 18.7521C133.829 19.1001 134.235 19.3747 134.682 19.5597C135.128 19.7446 135.607 19.8362 136.088 19.8289Z" fill="black"/>
<path d="M161.78 17.7319C162.195 17.7372 162.607 17.6583 162.989 17.5002C163.372 17.3421 163.717 17.1082 164.002 16.8134C164.595 16.2168 164.927 15.4176 164.927 14.5857C164.927 13.7537 164.595 12.9545 164.002 12.358C163.713 12.0673 163.368 11.8363 162.986 11.6785C162.605 11.5207 162.195 11.4395 161.78 11.4395C161.366 11.4395 160.956 11.5207 160.574 11.6785C160.193 11.8363 159.847 12.0673 159.558 12.358C158.966 12.9545 158.634 13.7537 158.634 14.5857C158.634 15.4176 158.966 16.2168 159.558 16.8134C159.844 17.1082 160.189 17.3421 160.571 17.5002C160.953 17.6583 161.365 17.7372 161.78 17.7319Z" fill="black"/>
<path d="M167.146 10.5202C167.741 9.92388 168.073 9.12477 168.073 8.29282C168.073 7.46088 167.741 6.66176 167.146 6.06547C166.857 5.77469 166.511 5.54353 166.128 5.38567C165.746 5.22782 165.335 5.14648 164.919 5.14648C164.504 5.14648 164.093 5.22782 163.711 5.38567C163.328 5.54353 162.982 5.77469 162.693 6.06547C162.107 6.66627 161.781 7.46369 161.781 8.29282C161.781 9.12195 162.107 9.91937 162.693 10.5202C162.982 10.811 163.328 11.0421 163.711 11.2C164.093 11.3578 164.504 11.4392 164.919 11.4392C165.335 11.4392 165.746 11.3578 166.128 11.2C166.511 11.0421 166.857 10.811 167.146 10.5202Z" fill="black"/>
<path d="M168.063 17.7317C168.48 17.7379 168.893 17.6593 169.277 17.501C169.661 17.3428 170.007 17.1083 170.292 16.8125C170.887 16.2163 171.22 15.4172 171.22 14.5854C171.22 13.7536 170.887 12.9545 170.292 12.3583C170.003 12.0676 169.657 11.8365 169.274 11.6786C168.892 11.5208 168.481 11.4395 168.066 11.4395C167.65 11.4395 167.239 11.5208 166.857 11.6786C166.474 11.8365 166.128 12.0676 165.839 12.3583C165.253 12.9591 164.927 13.7564 164.927 14.5854C164.927 15.4144 165.253 16.2118 165.839 16.8125C166.123 17.1086 166.468 17.3434 166.851 17.5017C167.234 17.66 167.647 17.7384 168.063 17.7317Z" fill="black"/>
<path d="M177.391 26.3061C177.22 25.1249 176.872 23.9753 176.359 22.8951C175.999 22.0536 175.43 21.3148 174.705 20.7467C174.144 20.3795 173.494 20.1671 172.821 20.1314C172.149 20.0958 171.479 20.2383 170.882 20.5441C170.824 20.6807 170.972 21.1707 171.331 22.0141C171.808 23.157 172.213 24.3276 172.545 25.5193C172.932 26.7659 173.011 28.0858 172.774 29.3685C172.607 30.0576 172.26 30.6913 171.766 31.2059C171.596 31.4083 171.367 31.5534 171.11 31.621C170.853 31.6885 170.581 31.6752 170.332 31.5828C169.825 31.3944 169.4 30.7474 169.056 29.6418C168.693 28.2541 168.477 26.8331 168.411 25.4015C168.353 23.9728 168.156 22.5529 167.823 21.1613C167.789 21.0388 167.761 20.9163 167.737 20.8032C167.681 20.5638 167.606 20.3291 167.512 20.1012C167.445 19.9589 167.323 19.8488 167.173 19.795C166.92 19.7169 166.661 19.6601 166.399 19.6254C166.353 19.6188 166.306 19.6188 166.26 19.6254L164.129 19.2485C163.958 19.2224 163.789 19.1878 163.622 19.1448C163.345 19.0789 163.186 19.0789 163.144 19.1448C163.087 19.2014 163.068 19.3851 163.092 19.6914C163.085 19.8106 163.085 19.9301 163.092 20.0494C163.134 21.201 163.11 22.354 163.02 23.5029C162.882 25.0872 162.58 26.6533 162.117 28.1765L160.052 19.8091C160.002 19.6356 159.962 19.4594 159.932 19.2815C159.894 19.0817 159.837 18.8861 159.76 18.6973C159.689 18.5632 159.567 18.4619 159.421 18.4146C159.163 18.3283 158.899 18.2576 158.633 18.2026C158.591 18.1972 158.55 18.1972 158.508 18.2026C157.74 18.0045 156.945 17.925 156.152 17.967C156.019 17.9602 155.886 17.988 155.767 18.0475C155.648 18.107 155.547 18.1962 155.473 18.3062C155.345 18.553 155.258 18.8187 155.215 19.093C155.177 19.2768 155.134 19.4699 155.077 19.6772C154.89 20.3604 154.704 21.1189 154.518 21.9481C154.205 23.4317 153.811 24.8976 153.337 26.3391C152.907 27.7181 152.204 28.9992 151.268 30.1082C150.831 30.6068 150.297 31.0127 149.696 31.301C149.095 31.5894 148.442 31.7542 147.774 31.7854C147.102 31.7608 146.453 31.5339 145.915 31.1353C145.071 30.5113 144.383 29.7056 143.903 28.7796C143.346 27.7713 143.067 26.3721 143.067 24.5817C143.067 24.4121 143.067 24.2472 143.067 24.0871C143.019 22.7082 142.511 21.8397 141.542 21.4817C140.586 21.1189 139.301 21.1943 137.719 21.6937C137.685 21.9905 137.652 22.4616 137.618 23.1071C137.618 23.4275 137.59 23.7761 137.566 24.153C137.518 24.9398 137.437 25.769 137.322 26.65C137.214 27.4905 137.043 28.322 136.811 29.1376C136.628 29.8319 136.313 30.4857 135.884 31.0646C135.718 31.2874 135.502 31.47 135.254 31.5982C135.005 31.7264 134.73 31.7969 134.45 31.8043C134.426 31.6535 134.397 31.5075 134.373 31.3331C134.096 29.5805 133.741 27.7101 133.308 25.7219C132.898 23.8219 132.309 21.9639 131.549 20.1719C130.94 18.6336 129.955 17.2676 128.681 16.1955C127.18 15.1745 125.406 14.6154 123.582 14.5889C121.043 14.5355 118.976 15.1936 117.383 16.563C115.79 17.9324 114.87 19.8657 114.621 22.3627C114.497 23.8421 114.694 24.9414 115.214 25.6607C115.479 26.0269 115.817 26.3372 116.206 26.5734C116.595 26.8096 117.028 26.967 117.479 27.0364C118.598 27.2298 119.739 27.2616 120.867 27.1306C122.075 27.0302 123.267 26.7899 124.418 26.4145C125.508 26.047 126.622 25.6277 127.764 25.1471L127.902 25.0764C128.411 26.7787 128.816 28.5093 129.116 30.2589C129.298 31.2295 129.507 32.2157 129.742 33.2177C129.843 33.5239 130.172 33.7312 130.727 33.8396C131.346 33.9544 131.975 34.0096 132.605 34.0045H134.225C134.286 34.0093 134.346 34.0093 134.407 34.0045C134.431 34.0089 134.455 34.0089 134.479 34.0045H134.928V33.9951C135.979 33.889 136.99 33.5421 137.881 32.9821C138.955 32.3122 139.896 31.4548 140.658 30.4521C140.749 30.5652 140.849 30.683 140.954 30.796C141.792 31.7616 142.815 32.5542 143.965 33.1282C145.064 33.6645 146.267 33.9603 147.492 33.9951C147.55 33.9951 147.612 33.9951 147.674 33.9951H147.97C148.062 33.9963 148.154 33.9852 148.243 33.9621C149.47 33.91 150.674 33.6102 151.779 33.0811C152.965 32.511 154.044 31.7444 154.967 30.8149C155.844 29.937 156.623 28.9687 157.29 27.9268C157.395 28.299 157.519 28.8691 157.672 29.637C157.903 30.8743 158.21 32.0967 158.59 33.2978C159.087 34.5196 159.842 35.2514 160.855 35.4933C161.868 35.7383 162.857 35.3237 163.832 34.2542C164.133 33.8773 164.415 33.4909 164.683 33.0905C164.985 32.6334 165.32 32.1988 165.687 31.7901C165.734 31.8235 165.774 31.865 165.806 31.9126C166.401 32.5377 167.093 33.0657 167.856 33.4768C168.91 33.9293 170.053 34.1419 171.202 34.0987C173.032 34.0987 174.423 33.6794 175.384 32.902C176.325 32.1574 176.985 31.1218 177.257 29.9621C177.543 28.7638 177.589 27.5217 177.391 26.3061ZM125.331 23.4322C124.503 23.8091 123.65 24.1687 122.774 24.5111C122.193 24.7633 121.588 24.9574 120.968 25.0906C120.761 24.381 120.696 23.6385 120.777 22.9045C120.845 21.9108 121.005 20.9252 121.255 19.9599C121.455 19.1015 121.776 18.2751 122.21 17.5053C122.588 16.874 123.008 16.6337 123.472 16.7797C123.759 16.9473 124.004 17.1759 124.189 17.4487C124.42 17.7501 124.632 18.0647 124.825 18.391C124.886 18.5143 124.954 18.6338 125.03 18.7491C125.183 18.9799 125.389 19.3427 125.647 19.8421C125.905 20.3415 126.163 20.8598 126.411 21.3827C126.603 21.7813 126.763 22.194 126.889 22.6171C126.395 22.9338 125.874 23.2066 125.331 23.4322Z" fill="black"/>
<path d="M183.943 19.8325C183.616 19.8171 183.29 19.8757 182.993 20.0033C182.696 20.1309 182.437 20.3236 182.238 20.5647C182.025 21.3137 181.449 22.801 180.509 25.0265C179.569 27.2521 178.603 29.4944 177.611 31.7533C176.599 34.0123 175.867 35.5723 175.415 36.4335C176.179 36.924 177.041 37.2702 177.95 37.4522C178.806 37.6951 179.716 37.7249 180.588 37.5387C181.551 36.2106 182.775 33.8971 184.262 30.5981C185.684 27.4477 186.931 24.2326 188 20.965C187.463 20.6179 186.869 20.3523 186.242 20.1781C185.503 19.9392 184.725 19.8222 183.943 19.8325Z" fill="black"/>
<path d="M36.4899 35.2511C37.2444 36.0534 38.1251 36.7325 39.0986 37.2627C41.7713 38.8585 44.6515 40.0943 47.6615 40.9369C49.4397 41.4329 54.3381 42.6178 55.8537 41.4375C51.8561 44.5559 45.0621 42.0666 41.0411 39.7795C38.4886 38.3282 37.5362 36.854 35.9268 34.5117C36.0975 34.7702 36.2856 35.0172 36.4899 35.2511Z" fill="#E30613"/>
<path d="M140.396 36.0689C141.184 36.3638 142.011 36.5279 142.848 36.5551C145.194 36.7203 147.55 36.5567 149.854 36.0689C151.214 35.7723 154.899 34.8485 155.488 33.4629C153.928 37.119 148.523 37.8046 145.034 37.6344C142.82 37.5274 141.657 36.8273 139.756 35.748C139.977 35.8744 140.19 35.9814 140.396 36.0689Z" fill="#E30613"/>
<path d="M128.623 11.9846C127.838 11.6878 127.011 11.5236 126.176 11.4984C123.83 11.331 121.473 11.4946 119.169 11.9846C117.815 12.2763 114.129 13.2049 113.536 14.5857C115.096 10.9344 120.501 10.244 123.994 10.4141C126.208 10.5211 127.367 11.2261 129.268 12.3055C129.06 12.1841 128.845 12.0769 128.623 11.9846Z" fill="#E30613"/>
<path d="M173.62 14.8002C173.561 15.4233 173.498 16.1886 173.967 16.5418C174.151 16.6566 174.365 16.7033 174.576 16.675C174.788 16.6467 174.985 16.5449 175.138 16.3848C175.445 16.0608 175.671 15.6574 175.796 15.2123C176.34 13.7224 176.556 12.1146 176.427 10.5175C176.297 8.92581 175.691 7.4246 174.701 6.24452C174.306 5.75245 173.79 5.39335 173.214 5.20939C172.923 5.12474 172.617 5.12554 172.326 5.21171C172.036 5.29789 171.772 5.46637 171.56 5.69997C170.492 7.00001 172.232 8.64345 172.727 9.7031C173.464 11.2752 173.774 13.0434 173.62 14.8002Z" fill="#FCEA10"/>
<path d="M84.208 34.6148C83.954 34.1053 83.6365 33.4895 83.0604 33.4629C82.8494 33.4752 82.6479 33.5526 82.4849 33.684C82.3218 33.8154 82.2057 33.9939 82.1532 34.1939C82.0467 34.6023 82.0467 35.0303 82.1532 35.4388C82.4223 36.8616 83.0264 38.2039 83.9177 39.3595C84.8102 40.5097 86.0642 41.3423 87.4876 41.7297C88.0668 41.8943 88.682 41.8943 89.2612 41.7297C89.5509 41.6446 89.8126 41.4864 90.0197 41.2709C90.2267 41.0554 90.3719 40.7904 90.4405 40.5026C90.7172 38.9475 88.4265 38.602 87.4785 38.0438C86.0763 37.2283 84.9416 36.0386 84.208 34.6148Z" fill="#FCEA10"/>
<path d="M64.1335 9.29879C64.4679 9.81835 64.8824 10.4447 65.4806 10.3865C65.6991 10.3448 65.8992 10.2325 66.0516 10.0657C66.2041 9.89896 66.301 9.68645 66.3284 9.45903C66.3723 9.00114 66.306 8.53914 66.1352 8.114C65.6593 6.60985 64.8534 5.23904 63.7802 4.10804C62.6977 2.98591 61.288 2.26094 59.7673 2.04437C59.1491 1.93991 58.5148 2.02082 57.9399 2.27745C57.6541 2.41246 57.408 2.62266 57.2261 2.8869C57.0442 3.15114 56.933 3.4601 56.9037 3.78271C56.8424 5.51134 59.2587 5.55505 60.2996 6.02605C61.8531 6.71938 63.183 7.85459 64.1335 9.29879Z" fill="#FCEA10"/>
<path d="M53.0678 39.9956C50.8788 39.9961 48.7097 39.5861 46.676 38.7874C44.7681 38.0372 43.0707 36.8464 41.7265 35.315C40.3856 33.745 39.5152 31.8374 39.2132 29.8066C39.1198 29.218 39.073 28.6232 39.0733 28.0275C39.1094 26.1572 39.465 24.3063 40.125 22.5525C41.1396 19.9625 42.52 17.5267 44.2254 15.3174C45.7164 13.2552 47.538 11.4461 49.6186 9.96121C50.1964 9.54233 50.8989 9.3248 51.6158 9.34283H52.3346C52.7784 9.34283 53.83 9.81851 55.504 10.6462C54.6422 11.8502 53.6489 12.9573 52.542 13.9474C51.4228 15.0034 50.2586 16.218 49.0494 17.5911C47.7977 19.0212 46.7194 20.5905 45.8366 22.2671C44.8007 24.2314 44.2471 26.4082 44.2206 28.6221V28.9504C44.301 31.5507 44.8702 33.5391 45.9283 34.9154C46.8869 36.2297 48.2983 37.1547 49.8984 37.5174C50.5992 37.6658 51.3139 37.7408 52.0307 37.7409C53.1614 37.711 54.2835 37.5367 55.3689 37.2224C56.8116 36.8065 58.1529 36.1039 59.3101 35.158C60.5682 34.2206 61.5356 32.9553 62.1032 31.5048C62.3184 30.8767 62.4244 30.2173 62.4168 29.5545C62.4168 29.4879 62.4168 29.2358 62.4168 28.8029C62.3533 28.1816 62.1541 27.5812 61.8331 27.0429C61.3976 26.2526 60.7413 25.6021 59.9421 25.1687C59.0903 24.7114 58.1703 24.3903 57.2165 24.2173C56.3579 24.0685 55.4881 23.9906 54.6163 23.9843C54.4618 23.9881 54.3082 23.96 54.1653 23.9018C54.0224 23.8437 53.8934 23.7567 53.7866 23.6465C53.6763 23.5441 53.5889 23.4201 53.53 23.2825C53.471 23.1449 53.4417 22.9967 53.4441 22.8474C53.4408 22.7003 53.4677 22.5541 53.5233 22.4176C53.5788 22.281 53.6618 22.157 53.7673 22.053C53.8728 21.9444 53.9993 21.8578 54.1393 21.7981C54.2794 21.7385 54.4301 21.7071 54.5826 21.7057H57.1731C57.4693 21.7304 57.7672 21.6815 58.0393 21.5636C58.3115 21.4456 58.5494 21.2622 58.7312 21.0303C59.078 20.5319 59.2722 19.9458 59.2908 19.3416C59.3149 19.099 59.3294 18.8659 59.3294 18.5996C59.2999 17.4142 59.1234 16.2368 58.8036 15.0938C58.4799 13.956 58.0935 12.8365 57.6458 11.7403C57.42 11.2884 57.2577 10.8083 57.1634 10.3132V10.2228C57.6639 9.99991 58.2062 9.88323 58.7554 9.88036C59.5629 9.89726 60.3484 10.1433 61.0178 10.5891C61.7809 11.2196 62.3783 12.0225 62.7593 12.9295C63.2927 14.0747 63.6441 15.294 63.8013 16.5446C63.8587 16.9513 63.8877 17.3613 63.8881 17.7719C63.8766 18.7327 63.7139 19.6859 63.4057 20.5974C63.0049 21.6898 62.2073 22.5966 61.1674 23.1423C62.5588 23.6851 63.8596 24.4307 65.0266 25.3542C66.44 26.7432 67.2167 28.1512 67.3566 29.564C67.3796 29.7661 67.3909 29.9694 67.3904 30.1729C67.3719 31.4268 67.003 32.6514 66.3243 33.7119C65.5368 34.9524 64.507 36.0261 63.2948 36.8704C60.9395 38.503 58.2056 39.5254 55.3448 39.8434C54.5895 39.9383 53.8292 39.9891 53.0678 39.9956ZM63.9412 44.9998C63.3436 45.0112 62.757 44.84 62.2621 44.5095C61.7671 44.179 61.3881 43.7056 61.177 43.1542C60.958 42.6825 60.8444 42.1698 60.8442 41.651C60.8449 41.3146 60.8854 40.9793 60.9648 40.6521C61.0889 40.2413 61.2979 39.8602 61.5784 39.5328C61.859 39.2053 62.2052 38.9386 62.5953 38.7494C63.0748 38.4959 63.6094 38.3604 64.1534 38.3545C64.6142 38.3789 65.0699 38.4621 65.509 38.6019C66.0975 38.7684 66.6233 39.3915 67.0768 40.4618C67.2471 40.8909 67.3354 41.3473 67.3373 41.808C67.3195 42.2558 67.2466 42.6999 67.1202 43.1304C66.9755 43.6758 66.4931 44.161 65.673 44.586C65.1318 44.8428 64.5416 44.9838 63.9412 44.9998Z" fill="black" stroke="black" stroke-width="0.52439" stroke-miterlimit="10"/>
<path d="M67.3907 36.4843C70.4325 31.4233 72.4558 27.3804 73.4605 24.3556C74.4651 21.3308 75.0339 19.0393 75.1668 17.481C75.3547 17.221 75.5991 17.013 75.8793 16.8745C76.1594 16.736 76.467 16.6712 76.7759 16.6856C77.5163 16.6725 78.2534 16.7938 78.9552 17.044C79.5464 17.2276 80.1044 17.5148 80.606 17.8935C80.5596 18.1882 80.504 18.5024 80.4344 18.8363C80.3155 19.9212 80.353 21.019 80.5457 22.0919C80.7088 23.1469 81.1079 24.1453 81.7096 25.0038C81.9887 25.4002 82.3499 25.7237 82.7655 25.9492C83.1811 26.1748 83.6399 26.2965 84.1069 26.305C84.2523 26.303 84.3966 26.332 84.5312 26.3902C84.6658 26.4484 84.788 26.5346 84.8905 26.6438C84.9973 26.752 85.0818 26.8825 85.1384 27.027C85.1951 27.1716 85.2228 27.327 85.2197 27.4835C85.2204 27.6382 85.1916 27.7914 85.135 27.934C85.0785 28.0766 84.9953 28.2056 84.8905 28.3134C84.7889 28.4241 84.6669 28.5118 84.5322 28.5709C84.3974 28.63 84.2527 28.6593 84.1069 28.6571H84.0744C83.0388 28.6318 82.0155 28.4141 81.0511 28.0138C80.0425 27.6135 79.0882 27.0736 78.2133 26.4081C77.3443 28.7339 76.2569 30.9612 74.9675 33.0568C73.6042 35.3287 72.6474 36.702 72.0972 37.1766C71.3151 37.8543 70.0415 37.8182 68.2764 37.0686C68.2206 37.0464 68.1664 37.0202 68.1141 36.99C68.0445 36.9458 67.9657 36.9065 67.8868 36.8673L67.706 36.7691L67.3907 36.4843Z" fill="black" stroke="black" stroke-width="0.52439" stroke-miterlimit="10"/>
<path d="M84.2212 29.0103C83.9306 29.0077 83.6525 28.8854 83.447 28.6696C83.2415 28.4539 83.125 28.162 83.1226 27.8568C83.1184 27.7029 83.1453 27.5498 83.2016 27.4075C83.2578 27.2653 83.3421 27.1372 83.4489 27.0316C83.5497 26.9244 83.6701 26.8397 83.8028 26.7825C83.9354 26.7252 84.0778 26.6967 84.2212 26.6986C87.1443 26.6209 89.9712 25.5866 92.3072 23.7403C93.4241 22.8735 94.2976 21.7064 94.8355 20.3621C95.4055 18.7534 95.5342 17.4327 95.2216 16.3999C95.0777 15.9064 94.8262 15.4549 94.4871 15.0813C94.1479 14.7077 93.7305 14.4222 93.2679 14.2475C92.0852 13.821 90.8151 13.736 89.5904 14.0014C89.5741 14.0077 89.5562 14.0077 89.5398 14.0014C88.7424 14.1658 87.9339 14.2643 87.1219 14.2958C86.6035 14.3167 86.0965 14.1324 85.7014 13.7794C85.5418 13.6564 85.4327 13.4744 85.396 13.2701C85.3593 13.0659 85.3978 12.8546 85.5038 12.6791C85.7152 12.2737 86.3496 11.96 87.4069 11.738C88.9754 11.4487 90.5725 11.3692 92.1601 11.5015C93.6848 11.6131 95.1818 11.9864 96.5915 12.6067C97.8334 13.1281 98.9104 14.0061 99.699 15.1403C100.448 16.3386 100.72 17.7973 100.457 19.2038C100.332 20.3087 100.282 21.4214 100.306 22.5338C100.297 23.5659 100.589 24.5763 101.142 25.4294C101.676 26.2208 102.643 26.6407 104.043 26.6889C104.187 26.6867 104.33 26.715 104.464 26.7722C104.597 26.8295 104.718 26.9144 104.82 27.0219C104.926 27.1282 105.01 27.2565 105.066 27.3986C105.122 27.5406 105.149 27.6934 105.146 27.8472C105.147 27.9992 105.118 28.1498 105.062 28.2899C105.006 28.4301 104.924 28.5569 104.82 28.6628C104.719 28.7719 104.598 28.8582 104.465 28.9163C104.331 28.9744 104.188 29.0031 104.043 29.0006H104.011C102.288 29.0169 100.577 28.7147 98.9543 28.1078C97.7519 27.6558 96.655 26.9401 95.7365 26.0085C94.5342 26.794 93.2452 27.4228 91.898 27.881C89.8272 28.6265 87.6515 29.0002 85.4624 28.9861L84.2212 29.0103ZM92.6749 31.8383C92.9841 32.1508 93.2301 32.5255 93.3981 32.9402C93.5661 33.3548 93.6527 33.8007 93.6527 34.2513C93.6527 34.7019 93.5661 35.1478 93.3981 35.5624C93.2301 35.9771 92.9841 36.3518 92.6749 36.6643C92.0422 37.3025 91.1988 37.659 90.3213 37.659C89.4439 37.659 88.6004 37.3025 87.9677 36.6643C87.6585 36.3518 87.4125 35.9771 87.2445 35.5624C87.0765 35.1478 86.9899 34.7019 86.9899 34.2513C86.9899 33.8007 87.0765 33.3548 87.2445 32.9402C87.4125 32.5255 87.6585 32.1508 87.9677 31.8383C88.5993 31.1978 89.4432 30.8399 90.3213 30.8399C91.1994 30.8399 92.0433 31.1978 92.6749 31.8383Z" fill="black" stroke="black" stroke-width="0.52439" stroke-miterlimit="10"/>
<path d="M103.992 7.23609C104.33 7.54618 104.598 7.92261 104.78 8.3411C104.961 8.75958 105.051 9.21081 105.044 9.66562C105.05 10.1254 104.96 10.5816 104.779 11.0056C104.598 11.4296 104.33 11.8123 103.992 12.1296C103.303 12.7836 102.384 13.1492 101.427 13.1492C100.47 13.1492 99.5505 12.7836 98.8622 12.1296C98.523 11.8127 98.2541 11.4302 98.0722 11.0062C97.8903 10.5822 97.7994 10.1258 97.8052 9.66562C97.7991 9.21048 97.89 8.75913 98.072 8.34067C98.2541 7.92221 98.5233 7.54593 98.8622 7.23609C99.5443 6.57042 100.466 6.19689 101.427 6.19689C102.388 6.19689 103.31 6.57042 103.992 7.23609ZM103.992 29.2595C103.758 29.2567 103.53 29.1866 103.336 29.0579C103.143 28.9293 102.992 28.7476 102.901 28.5354C102.811 28.3231 102.787 28.0896 102.83 27.8636C102.873 27.6377 102.983 27.4291 103.145 27.2637C103.37 27.0432 103.674 26.9177 103.992 26.9138H104.167C104.474 26.939 104.783 26.8887 105.065 26.7674C105.348 26.6461 105.595 26.4576 105.785 26.2189C106.144 25.6959 106.349 25.0852 106.376 24.4547C106.43 23.7112 106.4 22.9641 106.286 22.2272C106.18 21.4989 106.035 20.7767 105.85 20.0638C105.675 19.3936 105.52 18.8761 105.384 18.5065C105.119 17.7772 104.883 17.1316 104.658 16.5747C104.282 15.6778 104.122 15.1653 104.187 15.0372C104.828 14.7407 105.538 14.619 106.243 14.6849C106.948 14.7508 107.622 15.0018 108.194 15.4117C108.823 15.8919 109.336 16.5027 109.697 17.2006C110.179 18.079 110.55 19.0125 110.799 19.98C111.078 21.0199 111.207 22.0933 111.18 23.1684C111.166 24.2028 110.934 25.2229 110.499 26.1647C110.05 27.0995 109.324 27.8781 108.415 28.3971C107.229 29.0272 105.889 29.3255 104.543 29.2595H103.992ZM111.431 7.23609C111.77 7.54516 112.04 7.9213 112.222 8.33994C112.405 8.75858 112.495 9.21031 112.487 9.66562C112.494 10.1259 112.404 10.5826 112.222 11.0067C112.04 11.4309 111.77 11.8132 111.431 12.1296C111.096 12.4619 110.696 12.7237 110.255 12.899C109.814 13.0744 109.341 13.1597 108.866 13.1497C108.391 13.1563 107.919 13.0695 107.479 12.8943C107.038 12.7191 106.638 12.4591 106.301 12.1296C105.963 11.8123 105.695 11.4296 105.514 11.0056C105.333 10.5816 105.243 10.1254 105.249 9.66562C105.242 9.21081 105.332 8.75958 105.513 8.3411C105.694 7.92261 105.963 7.54618 106.301 7.23609C106.634 6.90028 107.033 6.63486 107.474 6.45607C107.915 6.27728 108.389 6.18888 108.866 6.19628C109.345 6.18508 109.822 6.27168 110.266 6.45063C110.71 6.62959 111.112 6.89702 111.446 7.23609H111.431Z" fill="black" stroke="black" stroke-width="0.52439" stroke-miterlimit="10"/>
</svg>
